<svg xmlns="http://www.w3.org/2000/svg" xmlns:xlink="http://www.w3.org/1999/xlink" viewBox="0 0 140.09 140.99"><defs><style>.cls-1{fill:none;}.cls-2{clip-path:url(#clip-path);}.cls-3{fill:url(#Degradado_sin_nombre_4);}.cls-4{clip-path:url(#clip-path-2);}.cls-5{fill:url(#Degradado_sin_nombre_24);}.cls-6{clip-path:url(#clip-path-3);}.cls-7{fill:url(#Degradado_sin_nombre_25);}.cls-8{clip-path:url(#clip-path-4);}.cls-9{fill:url(#Degradado_sin_nombre_24-2);}.cls-10{clip-path:url(#clip-path-5);}.cls-11{fill:url(#Degradado_sin_nombre_24-3);}.cls-12{clip-path:url(#clip-path-6);}.cls-13{fill:url(#Degradado_sin_nombre_25-2);}.cls-14{clip-path:url(#clip-path-7);}.cls-15{fill:url(#Degradado_sin_nombre_24-4);}.cls-16{clip-path:url(#clip-path-8);}.cls-17{fill:url(#Degradado_sin_nombre_18);}.cls-18{clip-path:url(#clip-path-9);}.cls-19{fill:url(#Degradado_sin_nombre_25-3);}.cls-20{clip-path:url(#clip-path-10);}.cls-21{fill:url(#Degradado_sin_nombre_25-4);}.cls-22{clip-path:url(#clip-path-11);}.cls-23{fill:url(#Degradado_sin_nombre_25-5);}.cls-24{clip-path:url(#clip-path-12);}.cls-25{fill:url(#Degradado_sin_nombre_18-2);}.cls-26{clip-path:url(#clip-path-13);}.cls-27{fill:url(#Degradado_sin_nombre_25-6);}.cls-28{clip-path:url(#clip-path-14);}.cls-29{fill:url(#Degradado_sin_nombre_25-7);}.cls-30{clip-path:url(#clip-path-15);}.cls-31{fill:url(#Degradado_sin_nombre_25-8);}.cls-32{clip-path:url(#clip-path-16);}.cls-33{fill:url(#Degradado_sin_nombre_24-5);}.cls-34{clip-path:url(#clip-path-17);}.cls-35{fill:url(#Degradado_sin_nombre_25-9);}.cls-36{clip-path:url(#clip-path-18);}.cls-37{fill:url(#Degradado_sin_nombre_24-6);}.cls-38{clip-path:url(#clip-path-19);}.cls-39{fill:url(#Degradado_sin_nombre_25-10);}.cls-40{clip-path:url(#clip-path-20);}.cls-41{fill:url(#Degradado_sin_nombre_26);}.cls-42{fill:#fff;}.cls-43{opacity:0.53;}.cls-44{clip-path:url(#clip-path-21);}.cls-45{fill:#f8b122;}</style><clipPath id="clip-path"><path class="cls-1" d="M66.23,41.82c-17.53,3.79-7.75,17.85-18,24.2-15.06,9.33-18,26.15-2.83,32.1,7.9,3.1,16.79,1.66,21.21.94,16.2-2.63,35.35-12.75,40.19-27.39a21.73,21.73,0,0,0-7.87-24.86,31.66,31.66,0,0,0-8.48-4.21,45.9,45.9,0,0,0-13.58-1.92,49.87,49.87,0,0,0-10.65,1.14"/></clipPath><linearGradient id="Degradado_sin_nombre_4" x1="-883.37" y1="748.57" x2="-883.2" y2="748.57" gradientTransform="matrix(-446.27, 0, 0, 446.27, -394112.07, -333992.63)" gradientUnits="userSpaceOnUse"><stop offset="0" stop-color="#288b99"/><stop offset="1" stop-color="#31a36c"/></linearGradient><clipPath id="clip-path-2"><path class="cls-1" d="M61.14,96a1,1,0,0,0,.92,1.07c1.88.09,5.91.29,7.36.23a.31.31,0,0,0,.28-.43.64.64,0,0,0-.36-.38l-6.63-3.13-1.17-.2s-.27,1.43-.4,2.84"/></clipPath><linearGradient id="Degradado_sin_nombre_24" x1="-884.95" y1="749.02" x2="-884.78" y2="749.02" gradientTransform="matrix(-210.95, 0, 0, 210.95, -186609.16, -157909.97)" gradientUnits="userSpaceOnUse"><stop offset="0" stop-color="#2b3582"/><stop offset="1" stop-color="#150e42"/></linearGradient><clipPath id="clip-path-3"><path class="cls-1" d="M61.34,92.31,61.53,94a2.1,2.1,0,0,0,2,0L63,92.06Z"/></clipPath><linearGradient id="Degradado_sin_nombre_25" x1="-845.5" y1="761.18" x2="-845.33" y2="761.18" gradientTransform="matrix(0, 12.68, 12.68, 0, -9590.53, 10814.55)" gradientUnits="userSpaceOnUse"><stop offset="0" stop-color="#f9b776"/><stop offset="1" stop-color="#f47960"/></linearGradient><clipPath id="clip-path-4"><path class="cls-1" d="M56.65,67.62s-.36-11.74,0,.41c.32,10.87,3.41,22.28,4,24.56a.56.56,0,0,0,.57.41,5.57,5.57,0,0,0,1.9-.37.33.33,0,0,0,.2-.38c-2.24-9.81-1.65-31.65-1.56-32.09l-4.81,0Z"/></clipPath><linearGradient id="Degradado_sin_nombre_24-2" x1="-884.29" y1="749.64" x2="-884.12" y2="749.64" gradientTransform="matrix(-204.63, 0, 0, 204.63, -180878.99, -153328.26)" xlink:href="#Degradado_sin_nombre_24"/><clipPath id="clip-path-5"><path class="cls-1" d="M53.06,96.46a.58.58,0,0,0,.51.71,23.08,23.08,0,0,0,2.35.16.59.59,0,0,0,.59-.66,5,5,0,0,0-1.14-2.75l-1.5-.1a10.17,10.17,0,0,0-.81,2.64"/></clipPath><linearGradient id="Degradado_sin_nombre_24-3" x1="-884.95" y1="749.19" x2="-884.78" y2="749.19" gradientTransform="matrix(-210.96, 0, 0, 210.96, -186620.08, -157952.05)" xlink:href="#Degradado_sin_nombre_24"/><clipPath id="clip-path-6"><path class="cls-1" d="M53.54,91.62,54,94.21a1.7,1.7,0,0,0,1.4.11l-.2-2.78Z"/></clipPath><linearGradient id="Degradado_sin_nombre_25-2" x1="-836.11" y1="763.22" x2="-835.94" y2="763.22" gradientTransform="matrix(0, 10.95, 10.95, 0, -8302.14, 9246.79)" xlink:href="#Degradado_sin_nombre_25"/><clipPath id="clip-path-7"><path class="cls-1" d="M52.55,60.74c-2,11.5.15,28.48.9,31.81a.53.53,0,0,0,.41.4,3.53,3.53,0,0,0,1.5,0,.47.47,0,0,0,.34-.43c.13-2.68.1-19.16,1.94-25.65a1.45,1.45,0,0,1,.58-.81l3.48-2.42.3-4Z"/></clipPath><linearGradient id="Degradado_sin_nombre_24-4" x1="-884.29" y1="749.76" x2="-884.12" y2="749.76" gradientTransform="matrix(-204.63, 0, 0, 204.63, -180876.99, -153349.91)" xlink:href="#Degradado_sin_nombre_24"/><clipPath id="clip-path-8"><path class="cls-1" d="M64.93,39a53.68,53.68,0,0,0-12.05,1.39c-1.8,9.93-.5,21.43-.5,21.43,4.41,1.2,9.43-.62,9.43-.62.78-4.16,4.32-15.83,4.32-15.83a19,19,0,0,0,7-2.15,12.34,12.34,0,0,1-2.38-5.1,19.06,19.06,0,0,1-5.84.88"/></clipPath><linearGradient id="Degradado_sin_nombre_18" x1="-882.25" y1="746.51" x2="-882.08" y2="746.51" gradientTransform="translate(222970.74 263480.93) rotate(90) scale(298.6)" gradientUnits="userSpaceOnUse"><stop offset="0" stop-color="#fdf53f"/><stop offset="1" stop-color="#d93c65"/></linearGradient><clipPath id="clip-path-9"><path class="cls-1" d="M80.64,30.38c-.87,3.55-5.32,6.39-9.87,7.76a12.34,12.34,0,0,0,2.38,5.1c7.57-4.16,8.76-12.49,8.76-12.49a1.11,1.11,0,0,0-.87-.44,1.15,1.15,0,0,0-.4.07"/></clipPath><linearGradient id="Degradado_sin_nombre_25-3" x1="-876.33" y1="746.35" x2="-876.16" y2="746.35" gradientTransform="matrix(0, 64.79, 64.79, 0, -48280.98, 56810.26)" xlink:href="#Degradado_sin_nombre_25"/><clipPath id="clip-path-10"><path class="cls-1" d="M80.76,28.39c-.23.29,0,1.87,0,2.23.4.77,1.08.49,1,.3a1.5,1.5,0,0,0,1.15-.66,13.17,13.17,0,0,0,.71-1.14A1.55,1.55,0,0,0,83.8,28a5.19,5.19,0,0,0-.63-1.27l1.11-1.14a.53.53,0,0,0-.06-.74,29.06,29.06,0,0,0-3.46,3.55"/></clipPath><linearGradient id="Degradado_sin_nombre_25-4" x1="-883.47" y1="744.26" x2="-883.3" y2="744.26" gradientTransform="translate(-95384.27 80445.55) rotate(180) scale(108.05)" xlink:href="#Degradado_sin_nombre_25"/><clipPath id="clip-path-11"><path class="cls-1" d="M81.68,28.29l-.33.84.89,1a11.12,11.12,0,0,1,.54-2c.22-.36.11-.54-.1-.65Z"/></clipPath><linearGradient id="Degradado_sin_nombre_25-5" x1="-880.41" y1="736.11" x2="-880.23" y2="736.11" gradientTransform="matrix(33.27, 0, 0, -33.27, 29374.83, 24520.84)" xlink:href="#Degradado_sin_nombre_25"/><clipPath id="clip-path-12"><path class="cls-1" d="M46.58,48.59a12.6,12.6,0,0,1,4.63,1.28C51.63,47.7,55,46,55,46l-2.14-5.56S47.5,44,46.58,48.59"/></clipPath><linearGradient id="Degradado_sin_nombre_18-2" x1="-882.25" y1="746.34" x2="-882.08" y2="746.34" gradientTransform="matrix(0, 298.6, -298.6, 0, 222909.07, 263483.78)" xlink:href="#Degradado_sin_nombre_18"/><clipPath id="clip-path-13"><path class="cls-1" d="M47.23,53c3.48,6.52,13.19-.23,13.19-.23l-.78-1.49s-6,3.33-8,.42a2.31,2.31,0,0,1-.4-1.78,12.6,12.6,0,0,0-4.63-1.28A6.29,6.29,0,0,0,47.23,53"/></clipPath><linearGradient id="Degradado_sin_nombre_25-6" x1="-876.29" y1="747.6" x2="-876.12" y2="747.6" gradientTransform="matrix(0, 81.99, 81.99, 0, -61244.01, 71896.4)" xlink:href="#Degradado_sin_nombre_25"/><clipPath id="clip-path-14"><path class="cls-1" d="M57.31,39.57a.2.2,0,0,0,.08.23,4.27,4.27,0,0,0,4.44-.26.89.89,0,0,0,.42-.63l.63-4.55-3.7,0Z"/></clipPath><linearGradient id="Degradado_sin_nombre_25-7" x1="-867.65" y1="744.79" x2="-867.48" y2="744.79" gradientTransform="matrix(0, 32.42, 32.42, 0, -24084.93, 28162.66)" xlink:href="#Degradado_sin_nombre_25"/><clipPath id="clip-path-15"><path class="cls-1" d="M58.51,30.83,60,34.91c2.15,1.26,4.63,1.39,4.9-.13s-1.69-5.3-1.69-5.3Z"/></clipPath><linearGradient id="Degradado_sin_nombre_25-8" x1="-894" y1="744.69" x2="-893.83" y2="744.69" gradientTransform="matrix(0, -41.75, -41.75, 0, 31152.11, -37288.58)" xlink:href="#Degradado_sin_nombre_25"/><clipPath id="clip-path-16"><path class="cls-1" d="M61.88,27.53a.16.16,0,0,1-.25,0,1.59,1.59,0,0,0-1.94-.65,1.47,1.47,0,0,0-1,1.41.14.14,0,0,1-.18.15,1.79,1.79,0,0,0-2.1,1,1.43,1.43,0,0,0,.09,1.72.16.16,0,0,1-.07.26.93.93,0,0,0-.67,1.06c0,1,1.15.9,1.46.86a.16.16,0,0,1,.14.05,5.28,5.28,0,0,0,2.77,1.74.17.17,0,0,0,.17-.21l-.56-1.65a.16.16,0,0,1,.09-.19l.28-.12a.16.16,0,0,0,.07-.23,4.27,4.27,0,0,1-.54-1.19s-.36-.23.92-.52,3.18-.75,3.59-1.83c.29-.77-.16-2.41-1.08-2.41-.33,0-.73.22-1.17.79"/></clipPath><linearGradient id="Degradado_sin_nombre_24-5" x1="-874.52" y1="751.26" x2="-874.35" y2="751.26" gradientTransform="matrix(0, 58.68, 58.68, 0, -44021.07, 51337.06)" xlink:href="#Degradado_sin_nombre_24"/><clipPath id="clip-path-17"><path class="cls-1" d="M58.79,33c-.11.83,1.27,1.21,2,.91l-.43-.74a2.87,2.87,0,0,0-1.16-.49.34.34,0,0,0-.37.32"/></clipPath><linearGradient id="Degradado_sin_nombre_25-9" x1="-895.31" y1="744.05" x2="-895.14" y2="744.05" gradientTransform="matrix(0, -37.56, -37.56, 0, 28008.06, -33593.43)" xlink:href="#Degradado_sin_nombre_25"/><clipPath id="clip-path-18"><path class="cls-1" d="M66.29,44.35c-2,.16-3.72.36-4.31.43a.31.31,0,0,0-.28.24L58.41,56.5a.34.34,0,0,0,.32.43l7.62.07a.32.32,0,0,0,.27-.14c2-2.55,5.85-10.34,6.8-12.26a.34.34,0,0,0-.28-.48c-.43,0-.94,0-1.49,0-1.59,0-3.58.13-5.36.28"/></clipPath><linearGradient id="Degradado_sin_nombre_24-6" x1="-882.04" y1="750.23" x2="-881.87" y2="750.23" gradientTransform="matrix(0, 193.86, 193.86, 0, -145371.94, 171034.25)" xlink:href="#Degradado_sin_nombre_24"/><clipPath id="clip-path-19"><path class="cls-1" d="M58.93,51.17a8.2,8.2,0,0,0,.27,2.55,1.74,1.74,0,0,0,1.57-.54c.36-.36.57-.71.86-.52a.61.61,0,0,0,.9-.2L62,51.88c.77.37.85-.32.85-.32l-.56-.44a.68.68,0,0,0,1-.59,17.25,17.25,0,0,0-2.6-.69l-.32,0c-.94,0-1.24.76-1.41,1.36"/></clipPath><linearGradient id="Degradado_sin_nombre_25-10" x1="-863.92" y1="746.51" x2="-863.75" y2="746.51" gradientTransform="matrix(25.63, 0, 0, -25.63, 22203.49, 19186.92)" xlink:href="#Degradado_sin_nombre_25"/><clipPath id="clip-path-20"><path class="cls-1" d="M66.07,47.77a1,1,0,1,0,1-1,1,1,0,0,0-1,1"/></clipPath><linearGradient id="Degradado_sin_nombre_26" x1="-884.5" y1="732.45" x2="-884.33" y2="732.45" gradientTransform="translate(-25557.57 21268.22) rotate(-180) scale(28.97)" gradientUnits="userSpaceOnUse"><stop offset="0" stop-color="#53d8ff"/><stop offset="1" stop-color="#3840f7"/></linearGradient><clipPath id="clip-path-21"><rect class="cls-1" x="85" width="30.68" height="30.74"/></clipPath></defs><title>derechaRecurso 3</title><g id="Capa_2" data-name="Capa 2"><g id="Capa_3" data-name="Capa 3"><g class="cls-2"><rect class="cls-3" x="20.42" y="21.52" width="99.25" height="98.87" transform="translate(-29.64 68.92) rotate(-44.2)"/></g><g class="cls-4"><rect class="cls-5" x="60.93" y="90.64" width="9.01" height="9.22" transform="translate(-48.81 77.87) rotate(-46.86)"/></g><g class="cls-6"><rect class="cls-7" x="61.15" y="92.23" width="2.53" height="2.17" transform="translate(-31.49 154.85) rotate(-89.46)"/></g><g class="cls-8"><rect class="cls-9" x="42.87" y="60.44" width="33.94" height="28" transform="translate(-35.62 77.5) rotate(-53.04)"/></g><g class="cls-10"><rect class="cls-11" x="52.27" y="93.08" width="5" height="5" transform="translate(-52.42 70.19) rotate(-46.86)"/></g><g class="cls-12"><rect class="cls-13" x="52.94" y="92.11" width="3.05" height="1.87" transform="translate(-39.1 146.63) rotate(-89.46)"/></g><g class="cls-14"><rect class="cls-15" x="39.46" y="61.71" width="33.61" height="29.27" transform="translate(-38.56 75.39) rotate(-53.04)"/></g><g class="cls-16"><rect class="cls-17" x="48.3" y="35.77" width="27.62" height="29.65" transform="translate(-10.72 17.24) rotate(-14.56)"/></g><g class="cls-18"><rect class="cls-19" x="69.83" y="31.14" width="13.03" height="11.26" transform="translate(38.84 112.76) rotate(-89.46)"/></g><g class="cls-20"><rect class="cls-21" x="78.74" y="24.91" width="7.65" height="6.4" transform="matrix(0.41, -0.91, 0.91, 0.41, 23, 91.83)"/></g><g class="cls-22"><rect class="cls-23" x="80.61" y="27.36" width="3.14" height="2.85" transform="translate(12.74 81.33) rotate(-56.42)"/></g><g class="cls-24"><rect class="cls-25" x="45.52" y="39.5" width="10.55" height="11.29" transform="matrix(0.97, -0.25, 0.25, 0.97, -9.72, 14.22)"/></g><g class="cls-26"><rect class="cls-27" x="47.85" y="46.91" width="11.02" height="14.23" transform="matrix(0.01, -1, 1, 0.01, -1.17, 106.87)"/></g><g class="cls-28"><rect class="cls-29" x="56.77" y="34.77" width="6.62" height="5.67" transform="translate(21.91 97.32) rotate(-89.46)"/></g><g class="cls-30"><rect class="cls-31" x="57.18" y="28.27" width="9.3" height="9.24" transform="translate(1.22 67.97) rotate(-58.08)"/></g><g class="cls-32"><rect class="cls-33" x="53.96" y="24.67" width="12.2" height="12.21" transform="translate(-1.58 58.25) rotate(-51.15)"/></g><g class="cls-34"><rect class="cls-35" x="58.52" y="32.14" width="2.39" height="2.57" transform="translate(-0.23 66.43) rotate(-58.08)"/></g><g class="cls-36"><rect class="cls-37" x="57.05" y="42.47" width="17.77" height="16.12" transform="translate(-9.97 16.78) rotate(-13.5)"/></g><g class="cls-38"><rect class="cls-39" x="58.74" y="49.81" width="4.52" height="4.02"/></g><g class="cls-40"><rect class="cls-41" x="65.87" y="46.61" width="2.33" height="2.33" transform="translate(4.94 101.81) rotate(-76.5)"/></g><path class="cls-42" d="M62.29,49,62,48.91l.79-2.68a1.24,1.24,0,0,1,.92-.86,79.38,79.38,0,0,1,9.38-.63V45a78.72,78.72,0,0,0-9.33.63.93.93,0,0,0-.69.65Z"/><g class="cls-43"><g class="cls-44"><path class="cls-45" d="M114.4,20.84c-3.11,7.26-11.32,10.38-17.75,9.85-1.75-.15-5.28-.44-8-3.05-5.3-5-4.48-15.45.59-21.61.65-.79,5.17-6.1,12.21-6a15.51,15.51,0,0,1,9.22,3.32,14.28,14.28,0,0,1,2.88,3.28,15.73,15.73,0,0,1,.89,14.24"/></g></g></g></g></svg>