<svg xmlns="http://www.w3.org/2000/svg" xmlns:xlink="http://www.w3.org/1999/xlink" viewBox="0 0 113.52 122.4"><defs><style>.cls-1{fill:none;}.cls-2{opacity:0.53;}.cls-3{clip-path:url(#clip-path);}.cls-4{fill:#f8b122;}.cls-5{clip-path:url(#clip-path-2);}.cls-6{fill:url(#Degradado_sin_nombre_26);}.cls-7{clip-path:url(#clip-path-3);}.cls-8{fill:url(#Degradado_sin_nombre_26-2);}.cls-9{clip-path:url(#clip-path-4);}.cls-10{fill:url(#Degradado_sin_nombre_4);}</style><clipPath id="clip-path"><rect class="cls-1" x="6.04" y="9.77" width="91.43" height="91.62"/></clipPath><clipPath id="clip-path-2"><path class="cls-1" d="M56.21,32.38c-2.48,6.56-.87,15.76-6.48,21.07-7.86,7.43-11.67,4.64-15,19.11-1.41,6.18,1.53,10.31,5.35,13a19.4,19.4,0,0,0,20.73.89c5.68-3.3,9.87-8.82,10.31-15.09s-3.72-12-5.3-18a15,15,0,0,1-.46-6.11C66.18,42,70.55,37.85,74,33.84c3.14-3.68,6.18-9.49-1.4-10.4a13.22,13.22,0,0,0-1.42-.08c-5.85,0-13,3.9-14.95,9"/></clipPath><linearGradient id="Degradado_sin_nombre_26" x1="-906.24" y1="755.32" x2="-906.05" y2="755.32" gradientTransform="matrix(-492.27, 0, 0, 492.27, -446019.66, -371763.84)" gradientUnits="userSpaceOnUse"><stop offset="0" stop-color="#53d8ff"/><stop offset="1" stop-color="#3840f7"/></linearGradient><clipPath id="clip-path-3"><path class="cls-1" d="M70.37,41.86a7.83,7.83,0,0,0-1.65,3.85c0,1.47,1.34,2.95,2.86,1.74,1.72-1.38,4.31-3.5,4.82-5.67a2.11,2.11,0,0,0-1.15-2.49,2.65,2.65,0,0,0-.93-.24h-.26c-1.75,0-2.86,1.57-3.69,2.82"/></clipPath><linearGradient id="Degradado_sin_nombre_26-2" x1="-907.96" y1="756" x2="-907.77" y2="756" gradientTransform="matrix(397.81, 0, 0, -397.81, 361227.01, 300791.55)" xlink:href="#Degradado_sin_nombre_26"/><clipPath id="clip-path-4"><path class="cls-1" d="M66.88,63.06c-5.35,3.12-9,9.92-12.46,15-2.08,3-4.62,6-6.32,9.23-2.81,5.35-2.87,9.69-.92,13.28a9.73,9.73,0,0,0,10,4.77c3.67-.55,8.26-2.82,12.09-9.61,2.38-4.2,2.5-9.9,3.36-14.89a22.48,22.48,0,0,1,2.5-7.55c1.36-2.35,3.62-4.62,3.36-7.5-.29-3.29-2.52-4.58-5.23-4.58a13.22,13.22,0,0,0-6.37,1.9"/></clipPath><linearGradient id="Degradado_sin_nombre_4" x1="-907.73" y1="757.22" x2="-907.54" y2="757.22" gradientTransform="matrix(223.2, 0, 0, -223.2, 202632.81, 169094.77)" gradientUnits="userSpaceOnUse"><stop offset="0" stop-color="#288b99"/><stop offset="1" stop-color="#31a36c"/></linearGradient></defs><title>Recurso 4</title><g id="Capa_2" data-name="Capa 2"><g id="Capa_1-2" data-name="Capa 1"><g class="cls-2"><g class="cls-3"><path class="cls-4" d="M93.64,71.89c-9.26,21.62-33.71,30.91-52.87,29.32-5.23-.43-15.76-1.3-24-9.06C1,77.25,3.45,46.09,18.55,27.75,20.5,25.39,34,9.56,55,9.77a46.21,46.21,0,0,1,27.46,9.9A42.57,42.57,0,0,1,91,29.42c7.74,12.09,8.42,28.95,2.63,42.47"/></g></g><g class="cls-5"><rect class="cls-6" x="16.38" y="16.84" width="80.77" height="79.88" transform="translate(-23.49 59.27) rotate(-46.79)"/></g><g class="cls-7"><rect class="cls-8" x="66.78" y="37.67" width="11.79" height="12.35" transform="translate(-12.2 44.05) rotate(-31.24)"/></g><path class="cls-4" d="M57,79.13a.18.18,0,0,1-.12-.13,112.81,112.81,0,0,1,1.67-26.51A52,52,0,0,1,64,37.07c4.1-7.15,8.36-8.87,8.54-8.94a.16.16,0,0,1,.2.07.13.13,0,0,1-.08.18s-4.36,1.78-8.41,8.86c-3.74,6.54-8,19.09-7.07,41.75a.14.14,0,0,1-.14.14h0"/><g class="cls-9"><rect class="cls-10" x="34.08" y="56.32" width="55.82" height="54.42" transform="translate(-41.85 77.43) rotate(-50.06)"/></g><path class="cls-4" d="M53.87,103.38a.16.16,0,0,1-.11-.17,86.11,86.11,0,0,1,3.67-13c2.46-6.74,6.89-16.35,14-23.87a.18.18,0,0,1,.23,0,.15.15,0,0,1,0,.22c-7.08,7.48-11.49,17-13.94,23.76a84.52,84.52,0,0,0-3.66,12.92.16.16,0,0,1-.19.12h0"/></g></g></svg>