<svg xmlns="http://www.w3.org/2000/svg" xmlns:xlink="http://www.w3.org/1999/xlink" viewBox="0 0 80.07 107.09"><defs><style>.cls-1{fill:none;}.cls-2{opacity:0.53;}.cls-3{clip-path:url(#clip-path);}.cls-4{fill:#f8b122;}.cls-5{clip-path:url(#clip-path-2);}.cls-6{fill:url(#Degradado_sin_nombre_3);}.cls-7{clip-path:url(#clip-path-3);}.cls-8{fill:url(#Degradado_sin_nombre_34);}.cls-9{clip-path:url(#clip-path-4);}.cls-10{fill:url(#Degradado_sin_nombre_15);}.cls-11{clip-path:url(#clip-path-5);}.cls-12{fill:url(#Degradado_sin_nombre_30);}.cls-13{clip-path:url(#clip-path-6);}.cls-14{fill:url(#Degradado_sin_nombre_15-2);}.cls-15{clip-path:url(#clip-path-7);}.cls-16{fill:url(#Degradado_sin_nombre_15-3);}.cls-17{clip-path:url(#clip-path-8);}.cls-18{fill:url(#Degradado_sin_nombre_34-2);}.cls-19{clip-path:url(#clip-path-9);}.cls-20{fill:url(#Degradado_sin_nombre_15-4);}.cls-21{clip-path:url(#clip-path-10);}.cls-22{fill:url(#Degradado_sin_nombre_15-5);}.cls-23{clip-path:url(#clip-path-11);}.cls-24{fill:url(#Degradado_sin_nombre_34-3);}.cls-25{clip-path:url(#clip-path-12);}.cls-26{fill:url(#Degradado_sin_nombre_15-6);}.cls-27{clip-path:url(#clip-path-13);}.cls-28{fill:url(#Degradado_sin_nombre_34-4);}.cls-29{clip-path:url(#clip-path-14);}.cls-30{fill:url(#Degradado_sin_nombre_29);}.cls-31{clip-path:url(#clip-path-15);}.cls-32{fill:url(#Degradado_sin_nombre_15-7);}.cls-33{fill:#fff;}</style><clipPath id="clip-path"><rect class="cls-1" width="66.78" height="66.91"/></clipPath><clipPath id="clip-path-2"><path class="cls-1" d="M50.31,53.07c-5.94,2.12-10.56,7.5-14.75,11.41C33,66.84,30,69.1,27.88,71.66c-3.56,4.24-4.14,7.9-2.54,11.12s5.52,5.12,9.82,5c3.89-.11,8.93-1.58,13.73-6.94,3-3.32,3.78-8.11,5.27-12.25a17.77,17.77,0,0,1,3.51-6.13c1.69-1.85,4.32-3.55,4.39-6,.1-3.18-2.68-4.43-6-4.43a17.33,17.33,0,0,0-5.72,1"/></clipPath><linearGradient id="Degradado_sin_nombre_3" x1="-927.64" y1="846.8" x2="-927.51" y2="846.8" gradientTransform="matrix(288.74, 0, 0, -288.74, 267857.71, 244574.72)" gradientUnits="userSpaceOnUse"><stop offset="0" stop-color="#288b99"/><stop offset="1" stop-color="#31a36c"/></linearGradient><clipPath id="clip-path-3"><path class="cls-1" d="M42.28,16.1a6.35,6.35,0,0,0,1.39,5.52,1.53,1.53,0,0,1,.06,2A14.37,14.37,0,0,0,41,36.4c1.78,6.58,8,9.52,14.17,7.84s10.06-7.33,8.28-13.91a14.13,14.13,0,0,0-10-10,1.55,1.55,0,0,1-1.13-1.89h0c.67-2.87-1.17-5.15-3.94-5.79A6.31,6.31,0,0,0,47,12.47a4.57,4.57,0,0,0-4.67,3.63"/></clipPath><linearGradient id="Degradado_sin_nombre_34" x1="-928.06" y1="846.54" x2="-927.92" y2="846.54" gradientTransform="matrix(344.99, 0, 0, -344.99, 320199.92, 292076.27)" gradientUnits="userSpaceOnUse"><stop offset="0" stop-color="#2b3582"/><stop offset="1" stop-color="#150e42"/></linearGradient><clipPath id="clip-path-4"><path class="cls-1" d="M31.39,22.6a.86.86,0,0,0,0,.5c.05.16.18.29.08.47s-.11.07-.18.06c-.36,0-.53-.5-.94-.43l-.14,0a.54.54,0,0,0-.27.32.73.73,0,0,0,0,.36,1.54,1.54,0,0,0,.39,1,5,5,0,0,0,.65.33S28.1,31.1,32.63,35s8.3,1,8.3,1l2.34-7.91s-4.88,6.69-8.47,4.47-2.74-5.36-2.18-7.74a1.56,1.56,0,0,0-.36-1.75,1.6,1.6,0,0,1-.55-1,1.79,1.79,0,0,0-.32.59"/></clipPath><linearGradient id="Degradado_sin_nombre_15" x1="-925.65" y1="844.36" x2="-925.51" y2="844.36" gradientTransform="matrix(-185.49, 0, 0, 185.49, -171655.9, -156590.19)" gradientUnits="userSpaceOnUse"><stop offset="0" stop-color="#c4421b"/><stop offset="1" stop-color="#5c0e16"/></linearGradient><clipPath id="clip-path-5"><path class="cls-1" d="M43.58,27.2a1,1,0,0,0-.58.45c-.91,1.4-4.5,7.21-3,9.26,2.12,3,3.83,9.81,3.83,9.81,3.56,2.8,6.72-.81,6.72-.81-1.9-3.68,0-12.31.76-15.23a1.86,1.86,0,0,0-.56-1.81,7.39,7.39,0,0,0-5-2,7,7,0,0,0-2.12.32"/></clipPath><linearGradient id="Degradado_sin_nombre_30" x1="-928.34" y1="846.98" x2="-928.2" y2="846.98" gradientTransform="translate(214749.1 235366.27) rotate(90) scale(253.49)" gradientUnits="userSpaceOnUse"><stop offset="0" stop-color="#fdf53f"/><stop offset="1" stop-color="#d93c65"/></linearGradient><clipPath id="clip-path-6"><path class="cls-1" d="M44.31,22a47.72,47.72,0,0,1,.52,5.23,3.35,3.35,0,0,0,3.38.47,35.73,35.73,0,0,0-1.81-6.36Z"/></clipPath><linearGradient id="Degradado_sin_nombre_15-2" x1="-928.43" y1="847.94" x2="-928.29" y2="847.94" gradientTransform="matrix(161.94, 0, 0, -161.94, 150389.54, 137342.12)" xlink:href="#Degradado_sin_nombre_15"/><clipPath id="clip-path-7"><path class="cls-1" d="M44.11,15.35s-4,5.83-1.51,7.45,5.33-2.52,5.33-2.52.89-3.16-.12-4.21a4.13,4.13,0,0,0-2.76-.77,8.4,8.4,0,0,0-.94,0"/></clipPath><linearGradient id="Degradado_sin_nombre_15-3" x1="-967.58" y1="844.54" x2="-967.44" y2="844.54" gradientTransform="matrix(-111.94, 0, 0, 111.94, -109059.67, -94519.51)" xlink:href="#Degradado_sin_nombre_15"/><clipPath id="clip-path-8"><path class="cls-1" d="M46,13.94s-1.88.49-2.12,1.34,2.7,1.6,3.53,1.62l.73,3.43S50,17.06,49.2,15.2a2.38,2.38,0,0,0-2.35-1.35,4.07,4.07,0,0,0-.87.09"/></clipPath><linearGradient id="Degradado_sin_nombre_34-2" x1="-928.06" y1="846.37" x2="-927.92" y2="846.37" gradientTransform="matrix(344.99, 0, 0, -344.99, 320186.31, 292004.61)" xlink:href="#Degradado_sin_nombre_34"/><clipPath id="clip-path-9"><path class="cls-1" d="M47.12,19.88l.1.87c.73.58,2.78-.37,2.13-1.56a.67.67,0,0,0-.6-.4c-.73,0-1.63,1.09-1.63,1.09"/></clipPath><linearGradient id="Degradado_sin_nombre_15-4" x1="-967.58" y1="844.39" x2="-967.44" y2="844.39" gradientTransform="matrix(-111.94, 0, 0, 111.94, -109058.23, -94503.34)" xlink:href="#Degradado_sin_nombre_15"/><clipPath id="clip-path-10"><path class="cls-1" d="M39.2,65.34a2.18,2.18,0,0,0,.27,1.56L50.11,84.07a2.35,2.35,0,0,1,.29.67,15.06,15.06,0,0,1,.46,4.62l-.51,1.12,2.3-.57L53,83.7l-.66-.38a3.11,3.11,0,0,1-1.28-1.45A87.86,87.86,0,0,1,47,71.1c-.74-3.19-4.34-5.71-4.34-5.71l.59-1.49L40,61.22c0,.31-.48,2.8-.76,4.12"/></clipPath><linearGradient id="Degradado_sin_nombre_15-5" x1="-926.85" y1="844.18" x2="-926.71" y2="844.18" gradientTransform="matrix(-375.54, 0, 0, 375.54, -348001.11, -316949.02)" xlink:href="#Degradado_sin_nombre_15"/><clipPath id="clip-path-11"><path class="cls-1" d="M52.37,83.32a45.6,45.6,0,0,0-.14,5.2C52.38,90,50.61,90,50.61,90a1.65,1.65,0,0,0-.84.45.41.41,0,0,0,.29.69,9.63,9.63,0,0,0,2.47-.19.76.76,0,0,0,.6-.71l.17-4.3,1.61,1.95.26-.12A14,14,0,0,1,53.73,85c-.14-.67-.49-1.77-1.08-1.77a.52.52,0,0,0-.28.08"/></clipPath><linearGradient id="Degradado_sin_nombre_34-3" x1="-915.43" y1="852.19" x2="-915.29" y2="852.19" gradientTransform="translate(-36454.62 34074.62) rotate(180) scale(39.88)" xlink:href="#Degradado_sin_nombre_34"/><clipPath id="clip-path-12"><path class="cls-1" d="M46.18,63.87s.65,15.53.74,17.74-.21,7.1-2.39,8.6l1,.69a12.53,12.53,0,0,0,2.32-3,19.22,19.22,0,0,1,1.67-2.65L49,84.34a2,2,0,0,1-.19-1.27c.44-2.32,1.89-10,2.29-11.71a7.47,7.47,0,0,0-1.36-6.73,2.89,2.89,0,0,0-2.22-1.2,2.41,2.41,0,0,0-1.38.44"/></clipPath><linearGradient id="Degradado_sin_nombre_15-6" x1="-929.98" y1="845.06" x2="-929.84" y2="845.06" gradientTransform="matrix(0, 214.22, -214.22, 0, 181079.11, 199300.68)" xlink:href="#Degradado_sin_nombre_15"/><clipPath id="clip-path-13"><path class="cls-1" d="M45.85,90a1.15,1.15,0,0,1-1.32.23,2.21,2.21,0,0,0-1,.74.4.4,0,0,0,.33.64l2.05,0a1.45,1.45,0,0,0,1.34-.94,7.73,7.73,0,0,1,1.65-2.84L48.6,91.4a.14.14,0,0,0,.14.14.14.14,0,0,0,.14-.12,19.79,19.79,0,0,1,.57-3.14c.27-.62,1.16-3.23-.07-3.43,0,0-3,4.51-3.53,5.13"/></clipPath><linearGradient id="Degradado_sin_nombre_34-4" x1="-918.08" y1="851.22" x2="-917.94" y2="851.22" gradientTransform="translate(-43599.03 40558.66) rotate(180) scale(47.54)" xlink:href="#Degradado_sin_nombre_34"/><clipPath id="clip-path-14"><path class="cls-1" d="M43.27,45.06A7.32,7.32,0,0,1,43.1,49L39,64.44a.47.47,0,0,0,.31.58,29.43,29.43,0,0,0,11.6,1.18.67.67,0,0,0,.6-.53c.35-1.76,1.57-7.78,1.82-9,1-4.71,2-9.79-3.16-12.75-2.34,1.06-4.53,1.7-6.88,1.15"/></clipPath><linearGradient id="Degradado_sin_nombre_29" x1="-924.23" y1="843.58" x2="-924.09" y2="843.58" gradientTransform="matrix(-192.61, 0, 0, 192.61, -177907.41, -162425.93)" gradientUnits="userSpaceOnUse"><stop offset="0" stop-color="#53d8ff"/><stop offset="1" stop-color="#3840f7"/></linearGradient><clipPath id="clip-path-15"><path class="cls-1" d="M49.42,32.91a2.65,2.65,0,0,0,.77,1c5.78,4.62,4.46,7.77,2.25,8.82-1.46.7-1.68.41-2.08.12a1.59,1.59,0,0,0-1.08-.31c-1.62,0-2.84,2.78-1.47,2.29a2.66,2.66,0,0,1,2.57.79s8.56-.77,7.21-6.44-6.45-9.75-6.45-9.75a2.33,2.33,0,0,0-1.09-.34c-1.2,0-1.55,1.62-.63,3.81"/></clipPath><linearGradient id="Degradado_sin_nombre_15-7" x1="-926.99" y1="844.22" x2="-926.85" y2="844.22" gradientTransform="translate(-290248.73 -318727.37) rotate(-90) scale(343.87)" xlink:href="#Degradado_sin_nombre_15"/></defs><title>registerRecurso 5</title><g id="Capa_2" data-name="Capa 2"><g id="Capa_2-2" data-name="Capa 2"><g class="cls-2"><g class="cls-3"><path class="cls-4" d="M64,45.37C57.21,61.16,39.36,67.94,25.37,66.79c-3.82-.32-11.51-1-17.51-6.62-11.53-10.89-9.75-33.64,1.28-47C10.56,11.41,20.4-.15,35.72,0A33.79,33.79,0,0,1,55.78,7.23a31,31,0,0,1,6.28,7.12c5.65,8.83,6.15,21.15,1.92,31"/></g></g><g class="cls-5"><rect class="cls-6" x="16.67" y="43.73" width="52.56" height="52.47" transform="translate(-36.37 48.78) rotate(-43.5)"/></g><path class="cls-4" d="M25.6,92.68a.16.16,0,0,1-.12-.2,83,83,0,0,1,6.9-13.59c4.32-7,11.71-16.87,22.37-24.13a.29.29,0,0,1,.32,0,.14.14,0,0,1,0,.24c-10.61,7.22-18,17.05-22.27,24a84.64,84.64,0,0,0-6.88,13.54.22.22,0,0,1-.27.11h0"/><g class="cls-7"><rect class="cls-8" x="32.32" y="11.27" width="40.4" height="35.85" transform="translate(6.25 67.54) rotate(-68.72)"/></g><g class="cls-9"><rect class="cls-10" x="24.38" y="19.11" width="22.6" height="22.67" transform="translate(-11.17 32.77) rotate(-43.31)"/></g><g class="cls-11"><rect class="cls-12" x="33.77" y="25.16" width="22.38" height="26.08" transform="translate(-12.96 26.99) rotate(-29.4)"/></g><g class="cls-13"><rect class="cls-14" x="42.43" y="22.54" width="7.66" height="4.84" transform="matrix(0.14, -0.99, 0.99, 0.14, 15.21, 67.38)"/></g><g class="cls-15"><rect class="cls-16" x="38.36" y="13.69" width="12.21" height="12.34" transform="translate(-3.79 26.46) rotate(-31.86)"/></g><g class="cls-17"><rect class="cls-18" x="42.63" y="12.93" width="8.37" height="8.32" transform="translate(13.89 54.51) rotate(-68.72)"/></g><g class="cls-19"><rect class="cls-20" x="46.67" y="18.22" width="3.79" height="3.68" transform="translate(-3.27 28.66) rotate(-31.86)"/></g><g class="cls-21"><rect class="cls-22" x="30.73" y="60.65" width="30.68" height="30.41" transform="translate(-40.4 55.87) rotate(-45.72)"/></g><g class="cls-23"><rect class="cls-24" x="49.49" y="83.21" width="5.72" height="7.94" transform="translate(-0.82 0.5) rotate(-0.54)"/></g><g class="cls-25"><rect class="cls-26" x="33.9" y="69.72" width="28.34" height="14.9" transform="translate(-39.86 100.28) rotate(-72.81)"/></g><g class="cls-27"><rect class="cls-28" x="43.31" y="84.82" width="7.34" height="6.81" transform="translate(-0.83 0.45) rotate(-0.54)"/></g><g class="cls-29"><rect class="cls-30" x="33.44" y="41.33" width="27.38" height="27.98" transform="matrix(0.75, -0.66, 0.66, 0.75, -24.77, 44.72)"/></g><g class="cls-31"><rect class="cls-32" x="42.83" y="27.01" width="19.72" height="20.71" transform="translate(-11.9 37.07) rotate(-35.08)"/></g><path class="cls-33" d="M61.53,36.61l-.12-.09a6.2,6.2,0,0,0,.38-5.93,12.44,12.44,0,0,0-3.94-4.77c-.74-.59-1.53-1.16-2.29-1.7-.91-.66-1.86-1.34-2.74-2.08A4.6,4.6,0,0,1,51,19.47a5.82,5.82,0,0,1,.08-1.66,2.91,2.91,0,0,0-.27-2.31l.11-.09a3,3,0,0,1,.3,2.42,5.56,5.56,0,0,0-.07,1.62,4.4,4.4,0,0,0,1.74,2.48c.87.73,1.81,1.41,2.73,2.07.76.54,1.55,1.11,2.29,1.71a12.53,12.53,0,0,1,4,4.82,6.36,6.36,0,0,1-.39,6.08"/><path class="cls-33" d="M58.59,37.56l-.14-.05a9.32,9.32,0,0,0-.61-7,20.58,20.58,0,0,0-4.46-5.71l.1-.1A20.43,20.43,0,0,1,58,30.4a9.41,9.41,0,0,1,.62,7.16"/></g></g></svg>