<svg xmlns="http://www.w3.org/2000/svg" xmlns:xlink="http://www.w3.org/1999/xlink" viewBox="0 0 82.68 112.85"><defs><style>.cls-1{fill:none;}.cls-2{clip-path:url(#clip-path);}.cls-3{fill:url(#Degradado_sin_nombre_29);}.cls-4{fill:#f8b122;}.cls-5{clip-path:url(#clip-path-2);}.cls-6{fill:url(#Degradado_sin_nombre_29-2);}.cls-7{opacity:0.53;}.cls-8{clip-path:url(#clip-path-3);}.cls-9{clip-path:url(#clip-path-4);}.cls-10{fill:url(#Degradado_sin_nombre_35);}.cls-11{clip-path:url(#clip-path-5);}.cls-12{fill:url(#Degradado_sin_nombre_35-2);}.cls-13{clip-path:url(#clip-path-6);}.cls-14{fill:url(#Degradado_sin_nombre_30);}.cls-15{clip-path:url(#clip-path-7);}.cls-16{fill:url(#Degradado_sin_nombre_35-3);}.cls-17{clip-path:url(#clip-path-8);}.cls-18{fill:url(#Degradado_sin_nombre_34);}.cls-19{clip-path:url(#clip-path-9);}.cls-20{fill:url(#Degradado_sin_nombre_25);}.cls-21{clip-path:url(#clip-path-10);}.cls-22{fill:url(#Degradado_sin_nombre_35-4);}.cls-23{clip-path:url(#clip-path-11);}.cls-24{fill:url(#Degradado_sin_nombre_25-2);}.cls-25{clip-path:url(#clip-path-12);}.cls-26{fill:url(#Degradado_sin_nombre_34-2);}.cls-27{clip-path:url(#clip-path-13);}.cls-28{fill:url(#Degradado_sin_nombre_35-5);}.cls-29{clip-path:url(#clip-path-14);}.cls-30{fill:url(#Degradado_sin_nombre_34-3);}.cls-31{clip-path:url(#clip-path-15);}.cls-32{fill:url(#Degradado_sin_nombre_29-3);}.cls-33{clip-path:url(#clip-path-16);}.cls-34{fill:url(#Degradado_sin_nombre_30-2);}.cls-35{clip-path:url(#clip-path-17);}.cls-36{fill:url(#Degradado_sin_nombre_35-6);}.cls-37{clip-path:url(#clip-path-18);}.cls-38{fill:url(#Degradado_sin_nombre_35-7);}.cls-39{clip-path:url(#clip-path-19);}.cls-40{fill:url(#Degradado_sin_nombre_35-8);}.cls-41{clip-path:url(#clip-path-20);}.cls-42{fill:url(#Degradado_sin_nombre_34-4);}.cls-43{clip-path:url(#clip-path-21);}.cls-44{fill:url(#Degradado_sin_nombre_35-9);}</style><clipPath id="clip-path"><path class="cls-1" d="M33.8,15.79c-5.11.61-3.06,4.52-.94,7,2.31,2.7,5.25,5.5,5.78,9.05A10,10,0,0,1,38.33,36c-1.06,4-3.87,7.84-3.57,12.1s3.12,7.94,7,10.17a13.09,13.09,0,0,0,14-.6c2.57-1.82,4.55-4.61,3.6-8.77C57.05,39.12,54.48,41,49.19,36c-3.78-3.58-2.69-9.78-4.36-14.2-1.31-3.44-6.14-6.07-10.07-6.07a7.5,7.5,0,0,0-1,.06"/></clipPath><linearGradient id="Degradado_sin_nombre_29" x1="-912.2" y1="864.36" x2="-912.07" y2="864.36" gradientTransform="translate(425542.45 449058.19) rotate(90) scale(492.27)" gradientUnits="userSpaceOnUse"><stop offset="0" stop-color="#53d8ff"/><stop offset="1" stop-color="#3840f7"/></linearGradient><clipPath id="clip-path-2"><path class="cls-1" d="M32.63,26.3a1.77,1.77,0,0,0-.63.16,1.43,1.43,0,0,0-.77,1.68C31.57,29.6,33.32,31,34.48,32s1.94-.18,1.92-1.17a5.3,5.3,0,0,0-1.11-2.59c-.56-.84-1.31-1.9-2.49-1.9h-.17"/></clipPath><linearGradient id="Degradado_sin_nombre_29-2" x1="-914.09" y1="864.73" x2="-913.96" y2="864.73" gradientTransform="translate(-343968.23 -363575.57) rotate(-90) scale(397.81)" xlink:href="#Degradado_sin_nombre_29"/><clipPath id="clip-path-3"><rect class="cls-1" x="20.76" y="62.05" width="46.09" height="48.1"/></clipPath><clipPath id="clip-path-4"><path class="cls-1" d="M31.26,54.17c2.74,9.38,16.47,2,16.47,2s3.94.17,4.9-.64S53,53,51.48,52.23s-3.75,2.14-3.75,2.14-7.91,1.15-10,.64-4.24-8.79-4.24-8.79a3,3,0,0,0-1-.18c-1.32,0-3.26,1-1.19,8.13"/></clipPath><linearGradient id="Degradado_sin_nombre_35" x1="-914.73" y1="865.91" x2="-914.6" y2="865.91" gradientTransform="matrix(-182.44, 0, 0, 182.44, -166829.23, -157921.54)" gradientUnits="userSpaceOnUse"><stop offset="0" stop-color="#f9b776"/><stop offset="1" stop-color="#f47960"/></linearGradient><clipPath id="clip-path-5"><path class="cls-1" d="M50,51.76A3.33,3.33,0,0,0,48.1,54c.58.82,2.9-1.56,3.1-1.95s.19-.47-.18-.47a4.21,4.21,0,0,0-1,.2"/></clipPath><linearGradient id="Degradado_sin_nombre_35-2" x1="-914.73" y1="865.73" x2="-914.6" y2="865.73" gradientTransform="matrix(-182.44, 0, 0, 182.44, -166829.29, -157889.64)" xlink:href="#Degradado_sin_nombre_35"/><clipPath id="clip-path-6"><path class="cls-1" d="M32.25,53.94c.78,5,4.54,6.13,9.9,4.73a.14.14,0,0,0,.11-.14c0-1.33-.56-2.37-.25-3.68-.31,0-2.54-.06-2.76-.1-2.89-.54-3.2-7.3-3.2-7.3a4,4,0,0,0-2-.71c-1.35,0-2.74,1.27-1.8,7.2"/></clipPath><linearGradient id="Degradado_sin_nombre_30" x1="-914.17" y1="865.74" x2="-914.04" y2="865.74" gradientTransform="matrix(-317.11, 0, 0, 317.11, -289855.98, -274482.06)" gradientUnits="userSpaceOnUse"><stop offset="0" stop-color="#fdf53f"/><stop offset="1" stop-color="#d93c65"/></linearGradient><clipPath id="clip-path-7"><path class="cls-1" d="M51.15,52.57s-1.66-.1-1.63,1-.08,2.52.81,2.59S52.88,56.34,53,55a2.85,2.85,0,0,0-1.72-2.5.13.13,0,0,0-.14.09"/></clipPath><linearGradient id="Degradado_sin_nombre_35-3" x1="-912.99" y1="875.85" x2="-912.86" y2="875.85" gradientTransform="matrix(-29.37, 0, 0, 29.37, -26765.48, -25673.11)" xlink:href="#Degradado_sin_nombre_35"/><clipPath id="clip-path-8"><path class="cls-1" d="M26.52,105.35l-.65,0a10.08,10.08,0,0,0-5.94,3.79.06.06,0,0,0,.05.1c1.08.09,3.6.26,5.74.2a9.16,9.16,0,0,0,2.56-.25A12.3,12.3,0,0,0,28,106.4a1.44,1.44,0,0,0-1.38-1.05h-.05"/></clipPath><linearGradient id="Degradado_sin_nombre_34" x1="-909.48" y1="865.49" x2="-909.35" y2="865.49" gradientTransform="matrix(154.22, 0, 0, -154.22, 140284.68, 133586.6)" gradientUnits="userSpaceOnUse"><stop offset="0" stop-color="#2b3582"/><stop offset="1" stop-color="#150e42"/></linearGradient><clipPath id="clip-path-9"><path class="cls-1" d="M25.74,109.34c-2.2.06-4.81-.13-5.84-.21a.36.36,0,0,0,.29.51l7.82.06a.29.29,0,0,0,.27-.29V109a7.52,7.52,0,0,1-2.54.37"/></clipPath><linearGradient id="Degradado_sin_nombre_25" x1="-915.41" y1="865.24" x2="-915.28" y2="865.24" gradientTransform="translate(-220894.74 208932.5) rotate(180) scale(241.35)" gradientUnits="userSpaceOnUse"><stop offset="0" stop-color="#53d8ff"/><stop offset="0.85" stop-color="#3c57f8"/><stop offset="1" stop-color="#3840f7"/></linearGradient><clipPath id="clip-path-10"><path class="cls-1" d="M24.77,103.13l.55,2.63a.41.41,0,0,0,.36.35,3.48,3.48,0,0,0,.85,0,.55.55,0,0,0,.43-.64l-.38-2.33Z"/></clipPath><linearGradient id="Degradado_sin_nombre_35-4" x1="-917.25" y1="870.71" x2="-917.13" y2="870.71" gradientTransform="matrix(-76.2, 0, 0, 76.2, -69863.58, -66241.85)" xlink:href="#Degradado_sin_nombre_35"/><clipPath id="clip-path-11"><path class="cls-1" d="M33.54,109.36a.28.28,0,0,0,.27.28l7.82,0a.36.36,0,0,0,.29-.52,57.43,57.43,0,0,1-5.84.22,7.52,7.52,0,0,1-2.54-.37v.44"/></clipPath><linearGradient id="Degradado_sin_nombre_25-2" x1="-916.56" y1="865.49" x2="-916.43" y2="865.49" gradientTransform="translate(-129536.79 122471.52) rotate(-180) scale(141.38)" xlink:href="#Degradado_sin_nombre_25"/><clipPath id="clip-path-12"><path class="cls-1" d="M33.54,109a7.52,7.52,0,0,0,2.54.37,57.43,57.43,0,0,0,5.84-.22.1.1,0,0,0,0-.05A9.89,9.89,0,0,0,36,105.41l-1.66,0a7.83,7.83,0,0,0-.76,3.67"/></clipPath><linearGradient id="Degradado_sin_nombre_34-2" x1="-909.8" y1="865.71" x2="-909.67" y2="865.71" gradientTransform="matrix(143.35, 0, 0, -143.35, 130452.66, 124204.88)" xlink:href="#Degradado_sin_nombre_34"/><clipPath id="clip-path-13"><path class="cls-1" d="M34.13,102.83c0,.12.25,2,.34,2.74a.36.36,0,0,0,.31.33,3.39,3.39,0,0,0,1.14,0,.48.48,0,0,0,.37-.49v-3Z"/></clipPath><linearGradient id="Degradado_sin_nombre_35-5" x1="-917.25" y1="869.89" x2="-917.13" y2="869.89" gradientTransform="matrix(-76.2, 0, 0, 76.2, -69855.31, -66179.66)" xlink:href="#Degradado_sin_nombre_35"/><clipPath id="clip-path-14"><path class="cls-1" d="M23.85,68.56s-1.78,2.94-1.79,3.62c-.09,12,2.22,28.65,2.62,31.44a.53.53,0,0,0,.48.46,7.47,7.47,0,0,0,1.5,0,.4.4,0,0,0,.36-.42c-.39-8.61.83-25.19.83-25.19,1.84,3,5.07,21.64,5.64,24.94a.68.68,0,0,0,.65.58,8.34,8.34,0,0,0,1.87-.22.74.74,0,0,0,.59-.72,148.5,148.5,0,0,0-4-34.5Z"/></clipPath><linearGradient id="Degradado_sin_nombre_34-3" x1="-913.48" y1="865.6" x2="-913.35" y2="865.6" gradientTransform="matrix(-488.76, 0, 0, 488.76, -446424.06, -422986.5)" xlink:href="#Degradado_sin_nombre_34"/><clipPath id="clip-path-15"><path class="cls-1" d="M20.12,55.09l.29-.1a16.63,16.63,0,0,1-.68-6.5l-.3,0a16.76,16.76,0,0,0,.69,6.63"/></clipPath><linearGradient id="Degradado_sin_nombre_29-3" x1="-912.39" y1="858.92" x2="-912.26" y2="858.92" gradientTransform="matrix(92.47, 0, 0, -92.47, 84389.25, 79477.02)" xlink:href="#Degradado_sin_nombre_29"/><clipPath id="clip-path-16"><path class="cls-1" d="M25.75,44.28c-1,.11-2,.25-3,.43a10.2,10.2,0,0,0-2.63.63,7,7,0,0,0-1.67,1.24A14.3,14.3,0,0,0,16,50.08a16.76,16.76,0,0,0-1.77,4.42,12.6,12.6,0,0,0,2.7,10.82,12,12,0,0,0,2.79-2,9.88,9.88,0,0,1,.72-7.73c.06.25.12.49.2.74a45.49,45.49,0,0,1,2.16,13.2.41.41,0,0,0,.26.39c2.71,1.09,7.93.44,9.68.18a.59.59,0,0,0,.49-.67c-.52-3.79,2.4-13.14,2.42-13.13a30.08,30.08,0,0,0,.69-7.07c0-.21,0-.42,0-.63a3.85,3.85,0,0,0-2.75-3.43,25.41,25.41,0,0,0-3.44-.87c-.9,0-1.72-.06-2.56-.06-.59,0-1.17,0-1.79.08"/></clipPath><linearGradient id="Degradado_sin_nombre_30-2" x1="-914.17" y1="865.82" x2="-914.04" y2="865.82" gradientTransform="matrix(-317.11, 0, 0, 317.11, -289856.63, -274504.09)" xlink:href="#Degradado_sin_nombre_30"/><clipPath id="clip-path-17"><path class="cls-1" d="M16.85,65.32A23.3,23.3,0,0,0,22,69.86c.08,1.69,1.38,2.32,1.68,2.87s-.12.43.07,1.12,2.16-1.1,2.64-1.51.18-1.54.18-1.54,0-.24.16-.71-2.24-1.33-2.25-1.34a10.87,10.87,0,0,1-4.79-5.47,12.23,12.23,0,0,1-2.79,2"/></clipPath><linearGradient id="Degradado_sin_nombre_35-6" x1="-906.13" y1="865.02" x2="-906" y2="865.02" gradientTransform="matrix(76.8, 0, 0, -76.8, 69607.81, 66502.88)" xlink:href="#Degradado_sin_nombre_35"/><clipPath id="clip-path-18"><path class="cls-1" d="M25.55,39.91,25,45.25s3,.91,5.18-.63l-1.53-4.86Z"/></clipPath><linearGradient id="Degradado_sin_nombre_35-7" x1="-912.88" y1="868.09" x2="-912.76" y2="868.09" gradientTransform="matrix(-146.91, 0, 0, 146.91, -134076.72, -127486.28)" xlink:href="#Degradado_sin_nombre_35"/><clipPath id="clip-path-19"><path class="cls-1" d="M26,35.81,27.08,42h3.75s-.15-6.56-.19-6.65c-.16-.43-.59-.59-1.13-.59A10.31,10.31,0,0,0,26,35.81"/></clipPath><linearGradient id="Degradado_sin_nombre_35-8" x1="-912.74" y1="869.87" x2="-912.61" y2="869.87" gradientTransform="matrix(-97.44, 0, 0, 97.44, -88904.19, -84719.74)" xlink:href="#Degradado_sin_nombre_35"/><clipPath id="clip-path-20"><path class="cls-1" d="M30,32.39a1.39,1.39,0,0,0-1.38,1.09.51.51,0,0,1-.64.37.37.37,0,0,0-.35.08A.55.55,0,0,1,27,34a1.68,1.68,0,0,0-2,0,1.2,1.2,0,0,0-.32,1.73.54.54,0,0,1-.17.73,1.18,1.18,0,0,0-.38,1.82.54.54,0,0,0,.36.23c.4.07,1.24.28,1.46.9s.68,3.07.84,3.93a.55.55,0,0,0,.37.41,14.5,14.5,0,0,0,3.32.55.54.54,0,0,0,.57-.45,21.24,21.24,0,0,0,.14-3,.54.54,0,0,0-.55-.53,4.85,4.85,0,0,0-1.82.72c-.8.44-1.18-.35-1.28-.6a.83.83,0,0,1,0-.15l-.3-3.25a.58.58,0,0,1,.17-.45A2,2,0,0,1,29.08,36c1,.32,2.79.33,3-.81s-.37-2.77-1.93-2.77H30"/></clipPath><linearGradient id="Degradado_sin_nombre_34-4" x1="-907.55" y1="859.91" x2="-907.42" y2="859.91" gradientTransform="matrix(70.19, 0, 0, -70.19, 63720.99, 60391.64)" xlink:href="#Degradado_sin_nombre_34"/><clipPath id="clip-path-21"><path class="cls-1" d="M24.26,39.75c.65,1.6,1.91.79,1.91.79s.07-1.94-.71-2.23a1.25,1.25,0,0,0-.46-.09c-.63,0-1.16.5-.74,1.53"/></clipPath><linearGradient id="Degradado_sin_nombre_35-9" x1="-911.92" y1="856.81" x2="-911.8" y2="856.81" gradientTransform="matrix(66.63, 0, 0, -66.63, 60781.22, 57131.62)" xlink:href="#Degradado_sin_nombre_35"/></defs><title>registerRecurso 6</title><g id="Capa_2" data-name="Capa 2"><g id="Capa_1-2" data-name="Capa 1"><g class="cls-2"><rect class="cls-3" x="17.56" y="11.04" width="53.79" height="54.39" transform="translate(-14.13 40.8) rotate(-43.21)"/></g><path class="cls-4" d="M48.83,66.63a.14.14,0,0,0,.12-.12A108.29,108.29,0,0,0,47.34,41a49.53,49.53,0,0,0-5.25-14.84c-3.94-6.87-8-8.53-8.21-8.6a.15.15,0,0,0-.19.07.14.14,0,0,0,.08.18s4.2,1.7,8.09,8.51c3.6,6.3,7.7,18.37,6.8,40.17a.13.13,0,0,0,.14.13h0"/><g class="cls-5"><rect class="cls-6" x="29.58" y="25.56" width="8.32" height="7.94" transform="translate(-9.01 43.06) rotate(-58.76)"/></g><g class="cls-7"><g class="cls-8"><path class="cls-4" d="M55.35,66c10.21,6.4,13,19.54,10.69,29.15-.63,2.62-1.89,7.9-6.46,11.46-8.78,6.85-24.36,3.19-32.45-5.92-1.05-1.17-8-9.25-6.25-19.89A23.73,23.73,0,0,1,28,67.61,21.8,21.8,0,0,1,33.65,64c6.72-3,15.31-2,21.7,2"/></g></g><g class="cls-9"><rect class="cls-10" x="26.92" y="42.36" width="28.94" height="24.86" transform="translate(-16.37 17.65) rotate(-20.19)"/></g><g class="cls-11"><rect class="cls-12" x="47.64" y="51.09" width="4.2" height="4.17" transform="translate(-15.29 20.43) rotate(-20.19)"/></g><g class="cls-13"><rect class="cls-14" x="28.26" y="44.78" width="17.07" height="17.25" transform="translate(-26.26 38.25) rotate(-41.92)"/></g><g class="cls-15"><rect class="cls-16" x="48.99" y="52.18" width="4.59" height="4.45" transform="translate(-13.18 92.29) rotate(-77.13)"/></g><g class="cls-17"><rect class="cls-18" x="19.46" y="104.15" width="9.26" height="6.59" transform="translate(-32.43 12.95) rotate(-18.25)"/></g><g class="cls-19"><rect class="cls-20" x="19.89" y="107.76" width="8.3" height="3.28" transform="translate(-32.25 12.56) rotate(-17.77)"/></g><g class="cls-21"><rect class="cls-22" x="24.26" y="103.36" width="3.25" height="2.57" transform="translate(-81.02 118.45) rotate(-83.46)"/></g><g class="cls-23"><rect class="cls-24" x="33.74" y="107.38" width="8.07" height="4.03" transform="translate(-40.3 23.97) rotate(-23.38)"/></g><g class="cls-25"><rect class="cls-26" x="33.11" y="104.15" width="9.24" height="6.52" transform="translate(-31.74 17.22) rotate(-18.25)"/></g><g class="cls-27"><rect class="cls-28" x="33.19" y="102.92" width="3.76" height="2.55" transform="translate(-72.44 127.17) rotate(-83.46)"/></g><g class="cls-29"><rect class="cls-30" x="10.79" y="76.82" width="37.05" height="18.71" transform="translate(-59.66 105.35) rotate(-83.37)"/></g><g class="cls-31"><rect class="cls-32" x="16.36" y="50.03" width="6.72" height="3.48" transform="translate(-35.66 53.36) rotate(-70.8)"/></g><g class="cls-33"><rect class="cls-34" x="7.31" y="39.94" width="35" height="35.28" transform="translate(-32.12 31.31) rotate(-41.92)"/></g><g class="cls-35"><rect class="cls-36" x="16.75" y="63.55" width="10.02" height="11.02"/></g><g class="cls-37"><rect class="cls-38" x="23.92" y="39.71" width="7.4" height="6.49" transform="translate(-20.46 60.18) rotate(-76.97)"/></g><g class="cls-39"><rect class="cls-40" x="24.28" y="35.09" width="8.29" height="6.63" transform="translate(-16.33 55.12) rotate(-73.98)"/></g><g class="cls-41"><rect class="cls-42" x="21.61" y="31.21" width="12.47" height="14.27" transform="translate(-11.92 12.57) rotate(-21.06)"/></g><g class="cls-43"><rect class="cls-44" x="23.13" y="38.06" width="3.82" height="3.44" transform="translate(-21.39 47.12) rotate(-66.8)"/></g></g></g></svg>