<svg id="Capa_1" data-name="Capa 1" xmlns="http://www.w3.org/2000/svg" xmlns:xlink="http://www.w3.org/1999/xlink" viewBox="0 0 73.14 12.91"><defs><style>.cls-1{fill:none;}.cls-2{clip-path:url(#clip-path);}.cls-3{fill:url(#Degradado_sin_nombre_6);}.cls-4{clip-path:url(#clip-path-2);}.cls-5{fill:url(#Degradado_sin_nombre_6-2);}.cls-6{clip-path:url(#clip-path-3);}.cls-7{fill:url(#Degradado_sin_nombre_6-3);}</style><clipPath id="clip-path" transform="translate(-14.21 -40.53)"><path class="cls-1" d="M14.21,47a6.46,6.46,0,1,0,6.46-6.45A6.46,6.46,0,0,0,14.21,47"/></clipPath><linearGradient id="Degradado_sin_nombre_6" x1="-910.41" y1="852.09" x2="-909.41" y2="852.09" gradientTransform="matrix(12.91, 0, 0, -12.91, 11750.17, 11003.95)" gradientUnits="userSpaceOnUse"><stop offset="0" stop-color="#f8b122"/><stop offset="1" stop-color="#fccb8d"/></linearGradient><clipPath id="clip-path-2" transform="translate(-14.21 -40.53)"><path class="cls-1" d="M44.33,47a6.45,6.45,0,1,0,6.45-6.45A6.45,6.45,0,0,0,44.33,47"/></clipPath><linearGradient id="Degradado_sin_nombre_6-2" x1="-910.41" y1="852.09" x2="-909.41" y2="852.09" gradientTransform="matrix(12.91, 0, 0, -12.91, 11780.29, 11003.95)" xlink:href="#Degradado_sin_nombre_6"/><clipPath id="clip-path-3" transform="translate(-14.21 -40.53)"><path class="cls-1" d="M74.44,47a6.46,6.46,0,1,0,6.46-6.45A6.46,6.46,0,0,0,74.44,47"/></clipPath><linearGradient id="Degradado_sin_nombre_6-3" x1="-910.41" y1="852.09" x2="-909.41" y2="852.09" gradientTransform="matrix(12.91, 0, 0, -12.91, 11810.4, 11003.95)" xlink:href="#Degradado_sin_nombre_6"/></defs><title>circulos-confirmacion</title><g class="cls-2"><rect class="cls-3" width="12.91" height="12.91"/></g><g class="cls-4"><rect class="cls-5" x="30.11" width="12.91" height="12.91"/></g><g class="cls-6"><rect class="cls-7" x="60.23" width="12.91" height="12.91"/></g></svg>