<svg id="Capa_1" data-name="Capa 1" xmlns="http://www.w3.org/2000/svg" xmlns:xlink="http://www.w3.org/1999/xlink" viewBox="0 0 115.28 99.68"><defs><style>.cls-1{fill:none;}.cls-2{opacity:0.53;}.cls-3{clip-path:url(#clip-path);}.cls-4{fill:#f8b122;}.cls-5{clip-path:url(#clip-path-2);}.cls-6{fill:url(#Degradado_sin_nombre_7);}.cls-7{opacity:0.43;}.cls-8{clip-path:url(#clip-path-3);}.cls-9{fill:#fff;}.cls-10{clip-path:url(#clip-path-4);}.cls-11{fill:url(#Degradado_sin_nombre_8);}.cls-12{clip-path:url(#clip-path-5);}.cls-13{fill:#2c3a64;}.cls-14{fill:#2b478b;}.cls-15{fill:#233862;}.cls-16{fill:#ffb27d;}.cls-17{fill:#ff9843;}.cls-18{fill:#ed985f;}.cls-19{fill:#ed7d2b;}.cls-20{fill:#fcecdb;}.cls-21{fill:#efcbab;}.cls-22{opacity:0.5;}.cls-23{clip-path:url(#clip-path-6);}.cls-24{fill:#cde0fb;}.cls-25{fill:#b1cff2;}.cls-26{clip-path:url(#clip-path-7);}.cls-27{clip-path:url(#clip-path-8);}.cls-28{fill:#afcdfb;}</style><clipPath id="clip-path" transform="translate(-2.87 -7.31)"><rect class="cls-1" x="8.95" y="11.58" width="82.11" height="79.68"/></clipPath><clipPath id="clip-path-2" transform="translate(-2.87 -7.31)"><path class="cls-1" d="M95.6,34.77c-2.31,4.5-8.73,16.11-16,21.45C67.67,64.92,57.64,81,62,91.34c0,0,34.93.84,34.56-56.34a.49.49,0,0,0-.5-.5.48.48,0,0,0-.44.27"/></clipPath><linearGradient id="Degradado_sin_nombre_7" x1="-907.77" y1="851.05" x2="-907.56" y2="851.05" gradientTransform="matrix(-156.88, 350.84, 350.84, 156.88, -440911.5, 184993.78)" gradientUnits="userSpaceOnUse"><stop offset="0" stop-color="#288b99"/><stop offset="0.64" stop-color="#2e9c79"/><stop offset="1" stop-color="#31a36c"/></linearGradient><clipPath id="clip-path-3" transform="translate(-2.87 -7.31)"><rect class="cls-1" x="65.26" y="41.51" width="28.94" height="44.84"/></clipPath><clipPath id="clip-path-4" transform="translate(-2.87 -7.31)"><path class="cls-1" d="M81.56,12.83c-.91,4.77-3.67,17.2-8.93,24.11C64.07,48.2,59.2,65.71,66,74c0,0,32.27-8.88,16.52-61.21a.47.47,0,0,0-.92,0"/></clipPath><linearGradient id="Degradado_sin_nombre_8" x1="-907.54" y1="850.87" x2="-907.34" y2="850.87" gradientTransform="matrix(-48.17, 364.54, 364.54, 48.17, -353804.12, 289859.36)" gradientUnits="userSpaceOnUse"><stop offset="0" stop-color="#45aed8"/><stop offset="1" stop-color="#003e4c"/></linearGradient><clipPath id="clip-path-5" transform="translate(-2.87 -7.31)"><rect class="cls-1" x="67.6" y="19.42" width="14.52" height="49.08"/></clipPath><clipPath id="clip-path-6" transform="translate(-2.87 -7.31)"><rect class="cls-1" x="49.99" y="34.14" width="10.47" height="8.77"/></clipPath><clipPath id="clip-path-7" transform="translate(-2.87 -7.31)"><rect class="cls-1" x="4.57" y="66.73" width="6.44" height="5.18"/></clipPath><clipPath id="clip-path-8" transform="translate(-2.87 -7.31)"><rect class="cls-1" x="87.98" y="44.94" width="11.99" height="9.06"/></clipPath></defs><title>confirmacion</title><g class="cls-2"><g class="cls-3"><path class="cls-4" d="M81.54,80.05A29.21,29.21,0,0,1,77,83.74C62.18,94,44.65,91,40.92,90.29c-5.5-1.08-16.13-3.17-23.82-11.9-11.64-13.22-9.82-34-.8-47.77C18,28.1,26.67,14.15,44.39,11.91c10.72-1.35,23.22,1.38,32.27,8.71,19,15.37,17.65,46.44,4.88,59.43" transform="translate(-2.87 -7.31)"/></g></g><g class="cls-5"><polygon class="cls-6" points="115.28 36.8 87.5 99.68 33.54 75.25 61.32 12.37 115.28 36.8"/></g><g class="cls-7"><g class="cls-8"><path class="cls-9" d="M94.2,41.63c0,.15-.09.27-.14.41l-.14.39-.3.79q-.3.78-.63,1.56c-.42,1-.86,2.06-1.31,3.09C90.79,49.92,89.83,52,88.85,54s-2,4-3.09,6-2.19,3.91-3.36,5.82a108.75,108.75,0,0,1-7.65,11c-1.41,1.73-2.87,3.43-4.42,5a56.89,56.89,0,0,1-4.92,4.53.09.09,0,0,1-.13,0,.09.09,0,0,1,0-.12h0a63.6,63.6,0,0,0,4.78-4.65c1.51-1.63,2.94-3.34,4.31-5.09s2.68-3.55,3.94-5.39,2.46-3.72,3.63-5.61c2.34-3.8,4.48-7.72,6.51-11.7q1.52-3,2.91-6c.47-1,.93-2,1.38-3.06l.66-1.54.32-.77.16-.39.14-.38v0a.09.09,0,0,1,.16.06" transform="translate(-2.87 -7.31)"/></g></g><g class="cls-10"><polygon class="cls-11" points="103.26 6.19 94.69 71.82 48.44 65.63 57 0 103.26 6.19"/></g><g class="cls-7"><g class="cls-12"><path class="cls-9" d="M82.12,19.51c0,.15,0,.28,0,.42l0,.4-.06.8-.15,1.6c-.12,1.07-.24,2.14-.37,3.2-.27,2.13-.6,4.25-1,6.37s-.77,4.23-1.23,6.32-1,4.19-1.51,6.26a104.71,104.71,0,0,1-4,12.22C72.92,59.08,72,61,71.06,63a57.73,57.73,0,0,1-3.3,5.51.1.1,0,0,1-.12,0,.08.08,0,0,1,0-.12h0a61,61,0,0,0,3.12-5.58c1-1.91,1.8-3.88,2.59-5.86s1.5-4,2.16-6,1.24-4.09,1.81-6.15c1.13-4.13,2-8.32,2.82-12.53q.59-3.15,1-6.33c.16-1.06.3-2.12.44-3.19l.19-1.59.09-.8,0-.4a2.64,2.64,0,0,0,0-.38v0a.11.11,0,0,1,.09-.09.09.09,0,0,1,.08.09" transform="translate(-2.87 -7.31)"/></g></g><path class="cls-13" d="M21.7,36.64c0-.13-.33-1.55-2.5-1.31,0,0,1.08,0,1.33.42,0,0-.81-.48-1.37-.2s-.76,1.37-.71,1.71.53,1.41.92,1.45a1.18,1.18,0,0,0,.45-.07,3.77,3.77,0,0,0-.21.57c-.61,1.92.53,3.54,1.23,3.24.46-.19.7.6.7.6l4-4.4s-2.17-3.26-3.86-2" transform="translate(-2.87 -7.31)"/><path class="cls-14" d="M26.94,89.65,26,90s-4.24-6-4.77-11.21a8.21,8.21,0,0,1,.14-2.68l-.11-.66c0-.2-.08-.44-.12-.71-.14-.8-.33-1.9-.55-3.14-.5-2.87-1.14-6.54-1.65-9.24l.27-.08L22,61.36l.58-1.89,2.13-.56s.47.93.89,5.37q.12.87.21,1.92A38.75,38.75,0,0,1,25.62,74c-.09.77-.22,1.57-.37,2.39a10.66,10.66,0,0,0-.08,2.35,78.88,78.88,0,0,0,1.77,11" transform="translate(-2.87 -7.31)"/><path class="cls-15" d="M25.83,66.2l-4.61,9.27c0-.2-.08-.44-.12-.71-.14-.8-.33-1.9-.55-3.14-.5-2.87-1.14-6.54-1.65-9.24l.27-.08L22,61.36l.58-1.89,2.13-.56s.47.93.89,5.37q.12.87.21,1.92" transform="translate(-2.87 -7.31)"/><path class="cls-14" d="M23.8,60.1l-.11-.93c-1.78.48-6.56-1.34-6.56-1.34s-1.73,1.54-1.5,5.23c.11,1.8.31,9.46.52,11.73.08.82.15,1.4.17,1.64h0a.36.36,0,0,1-.06.2,10.45,10.45,0,0,0-.78,1.66c-2.07,5.61.32,12.51.32,12.51l.62-.26s1.37-7.68,2.48-11.07a6.52,6.52,0,0,1,.53-1.3,15,15,0,0,0,1.34-3.6A91.72,91.72,0,0,0,22.57,65c.06,0,1.23-4.91,1.23-4.91" transform="translate(-2.87 -7.31)"/><path class="cls-16" d="M26.68,52.67l.11.11a13.89,13.89,0,0,0,4.68,3,11.3,11.3,0,0,0,3.65-.34c.88-.18,1.65-.38,2-.45l.15,0L37.11,54s-.8-.06-1.79-.17a15.56,15.56,0,0,1-3.56-.69c-1-.62-2.85-3.23-4.31-4.87l-.22-.26-.17-.19s0,0,0,0a1.53,1.53,0,0,1-.18-.18h0a6.23,6.23,0,0,0-.71-.59c-.26-.14-.47-.17-.62,0a2.27,2.27,0,0,0-.37.55,2.68,2.68,0,0,0-.12.24.52.52,0,0,0-.06.16,3.35,3.35,0,0,0-.2,1.22A3.86,3.86,0,0,0,25,50.37a6.57,6.57,0,0,0,1.7,2.3" transform="translate(-2.87 -7.31)"/><path class="cls-16" d="M25.35,48.86a5.48,5.48,0,0,1-2,.78c-3,.62-4.09-2-4.47-3.75a2.46,2.46,0,0,1,1-.29l.64,0a4.89,4.89,0,0,0,1-3l.14,0,2.34.72s-.13.76-.2,1.47a2.91,2.91,0,0,0,0,1.24l.3.07h0a16.15,16.15,0,0,1,1.15,2.71" transform="translate(-2.87 -7.31)"/><path class="cls-17" d="M26.4,50.77a1.8,1.8,0,0,1,0,.19c-.53,1.79-1,9-1,9,.28.89-4.86,1.07-7.69.66-1-.15-1.76-.38-1.81-.68-.51-1.16.73-3.32,1.45-4.42a2.55,2.55,0,0,0,.23-.43,2.93,2.93,0,0,0,.23-1.21c0-.57-.07-1.12-.13-1.64-.11-1-.26-1.82-.33-2.42h0l.42-.43a4.34,4.34,0,0,0,.52-.57.9.9,0,0,0,.2-.6,2.57,2.57,0,0,0-.08-.47l-.06-.22a6.53,6.53,0,0,0-.65-1.42,5.55,5.55,0,0,1,2.24-.47l0,.22A8.3,8.3,0,0,0,20.44,48c.26.3,4.35,1.15,4.49.68a8.29,8.29,0,0,0-.73-2.49h0a6.77,6.77,0,0,1,1.9.69h0c-.71.63.67,2.21.3,3.93" transform="translate(-2.87 -7.31)"/><path class="cls-18" d="M24.08,43.37s-.13.76-.2,1.47a2.87,2.87,0,0,1-2.14-2.19Z" transform="translate(-2.87 -7.31)"/><path class="cls-16" d="M24.46,44.1s-3.17-.27-3-2.27-.09-3.37,2-3.29,2.35.89,2.44,1.57-.59,4-1.42,4" transform="translate(-2.87 -7.31)"/><path class="cls-13" d="M25.9,39c-.43-.65-.82-.55-1-.39a2.2,2.2,0,0,0-2.89.17,3.82,3.82,0,0,1-1.46,2.13,2.61,2.61,0,0,0,1.91.2,2.22,2.22,0,0,0,1.15-.64,7.48,7.48,0,0,1-1.42,1.44c1.66-.58,2.52-2.75,2.6-3a2.42,2.42,0,0,1,.6,1c.11.52.08,1.58.38,1.57,0,0,.81-1.52.17-2.5" transform="translate(-2.87 -7.31)"/><path class="cls-16" d="M40,53.92c-.32.31-.64,1.07-1.61,1.06a14,14,0,0,0-1.75.11l-.21,0,0-1.12h0a6,6,0,0,0,1.91-.54c.54-.36,1.78,0,1.78,0s.19.18-.13.48" transform="translate(-2.87 -7.31)"/><path class="cls-15" d="M19.43,91.31H14.51A2.71,2.71,0,0,1,14.65,90c.24-.56.63-.81.54-1.48a1.76,1.76,0,0,0,1.53.6,5.6,5.6,0,0,0,.85,1.12c.33.23,1.76.15,1.86,1.09" transform="translate(-2.87 -7.31)"/><path class="cls-15" d="M30,91.31H25.07A2.1,2.1,0,0,1,25.21,90a1,1,0,0,0,0-1.15,1.54,1.54,0,0,0,1.56-.1,19.48,19.48,0,0,0,1.4,1.49c.32.23,1.76.15,1.86,1.09" transform="translate(-2.87 -7.31)"/><path class="cls-9" d="M23.7,42.94s.05.26.69.27c0,0,.54,0,.54-.29a1.7,1.7,0,0,0-1.23,0" transform="translate(-2.87 -7.31)"/><path class="cls-19" d="M18.37,55.63c-.2,1.25-1.09,3.75-.67,4.95-1-.15-1.76-.38-1.81-.68-.51-1.16.73-3.32,1.45-4.42a2.55,2.55,0,0,0,.23-.43,2.93,2.93,0,0,0,.23-1.21c0-.57-.07-1.12-.13-1.64a8.13,8.13,0,0,1,.7,3.43" transform="translate(-2.87 -7.31)"/><path class="cls-17" d="M25.34,47.21c0,1.11.82,4.15,1,3.75s1-2.2,1.44-2.27a20.07,20.07,0,0,0-1.69-1.85,3.16,3.16,0,0,0-.76.37" transform="translate(-2.87 -7.31)"/><path class="cls-16" d="M17.79,63,17,63.5l-.53-.68-.15-.2c-.26-.34-.56-.76-.89-1.2h0c-.55-.78-1.15-1.68-1.62-2.48a7.68,7.68,0,0,1-.69-1.52.53.53,0,0,1,0-.12c-.24-1.06.2-3.15.9-5.2.09-.28.2-.56.29-.83a21.82,21.82,0,0,1,1.21-2.71,9.7,9.7,0,0,1,.73-1.15,2.47,2.47,0,0,1,.24-.29,1,1,0,0,1,.14-.15,3.34,3.34,0,0,1,2.28,1.13,1,1,0,0,1,0,.14c-.31,1-.78,2.25-1.28,3.46-.27.66-.54,1.33-.78,2-.16.37-.29.72-.42,1a11.2,11.2,0,0,0-.48,1.52A3.8,3.8,0,0,0,16,57.44c.22,1,.63,2.24,1,3.33L17.44,62l.35.94" transform="translate(-2.87 -7.31)"/><path class="cls-17" d="M18.15,51.24C17.33,50,15,49.46,15,49.46c1.32-4.24,4.78-3.84,4.78-3.84S18.52,50,18.15,51.24" transform="translate(-2.87 -7.31)"/><path class="cls-16" d="M17,63.5a1.52,1.52,0,0,1,.24.55,2.78,2.78,0,0,0,.49,1.24c.27.24.87.73.95.65a1.11,1.11,0,0,0,.1-1c-.1-.18-.24-.69-.42-.81A3.86,3.86,0,0,1,17.79,63Z" transform="translate(-2.87 -7.31)"/><path class="cls-16" d="M17.79,63.07s.65.34.74.6.45.81.41.87-.6-.3-.79-.63a4.68,4.68,0,0,1-.36-.84" transform="translate(-2.87 -7.31)"/><path class="cls-19" d="M33.24,60,57,45.55a4.12,4.12,0,0,1,4.26,0L85.06,60V83.46L33.24,80.83Z" transform="translate(-2.87 -7.31)"/><rect class="cls-20" x="34.84" y="42.24" width="42.9" height="37.53"/><path class="cls-21" d="M39,51.2a.45.45,0,1,1,.44.44A.45.45,0,0,1,39,51.2" transform="translate(-2.87 -7.31)"/><path class="cls-21" d="M78.38,51.2a.45.45,0,1,1,.44.44.45.45,0,0,1-.44-.44" transform="translate(-2.87 -7.31)"/><rect class="cls-21" x="36.59" y="43.83" width="39.37" height="0.1"/><rect class="cls-21" x="36.54" y="43.7" width="0.1" height="39.86"/><rect class="cls-21" x="75.93" y="43.7" width="0.1" height="39.86"/><polygon class="cls-17" points="82.2 52.59 82.2 84 30.38 84 30.38 52.59 56.29 68.29 82.2 52.59"/><path class="cls-19" d="M33.24,91.31,57,74.08a3.71,3.71,0,0,1,4.35,0L85.06,91.31Z" transform="translate(-2.87 -7.31)"/><path class="cls-21" d="M67.06,56H51.42a.42.42,0,0,1-.41-.42.41.41,0,0,1,.41-.41H67.06a.41.41,0,0,1,.42.41.42.42,0,0,1-.42.42" transform="translate(-2.87 -7.31)"/><path class="cls-21" d="M71.09,57.65H47.39a.42.42,0,0,1,0-.84h23.7a.42.42,0,0,1,0,.84" transform="translate(-2.87 -7.31)"/><path class="cls-21" d="M68,62.85H50.87a.3.3,0,0,1,0-.6H68a.3.3,0,0,1,0,.6" transform="translate(-2.87 -7.31)"/><path class="cls-21" d="M52.59,64.43H47.76a.3.3,0,1,1,0-.6h4.83a.3.3,0,1,1,0,.6" transform="translate(-2.87 -7.31)"/><path class="cls-21" d="M59.88,64.43H54a.3.3,0,0,1,0-.6h5.84a.3.3,0,0,1,0,.6" transform="translate(-2.87 -7.31)"/><path class="cls-21" d="M71.13,64.43H61a.3.3,0,0,1,0-.6h10.1a.3.3,0,0,1,0,.6" transform="translate(-2.87 -7.31)"/><path class="cls-21" d="M59.92,66.27H50.53a.31.31,0,0,1-.3-.3.3.3,0,0,1,.3-.3h9.39a.29.29,0,0,1,.3.3.3.3,0,0,1-.3.3" transform="translate(-2.87 -7.31)"/><path class="cls-21" d="M68.36,66.27H61a.31.31,0,0,1-.3-.3.3.3,0,0,1,.3-.3h7.4a.3.3,0,0,1,.3.3.31.31,0,0,1-.3.3" transform="translate(-2.87 -7.31)"/><g class="cls-22"><g class="cls-23"><polygon class="cls-24" points="55.36 26.83 57.59 31.82 49.36 35.6 47.13 30.61 52.36 31.21 55.36 26.83"/><path class="cls-25" d="M50,37.92l8.24-3.78-2.46,4.2a.92.92,0,0,1-1,.44Z" transform="translate(-2.87 -7.31)"/></g></g><g class="cls-22"><g class="cls-26"><polygon class="cls-24" points="6.96 59.41 8.14 62.6 2.88 64.59 1.7 61.4 4.92 62 6.96 59.41"/><path class="cls-25" d="M4.57,68.71l5.26-2-1.7,2.49a.59.59,0,0,1-.61.24Z" transform="translate(-2.87 -7.31)"/></g></g><g class="cls-22"><g class="cls-27"><polygon class="cls-24" points="97.1 40.42 95.45 46.69 85.12 43.9 86.77 37.63 91.11 42.16 97.1 40.42"/><path class="cls-25" d="M89.63,44.94,100,47.74l-5.37,2a1.08,1.08,0,0,1-1.19-.31Z" transform="translate(-2.87 -7.31)"/></g></g><path class="cls-28" d="M7.56,80.83H6.84a0,0,0,0,1,0,0s0,0,0,0h.72a0,0,0,0,1,.05.05,0,0,0,0,1-.05,0m.72,0a.05.05,0,0,1,0,0,0,0,0,0,1,0,0l.72,0a0,0,0,0,1,0,.1l-.72,0Zm-2.16,0h0q-.37,0-.72-.06a0,0,0,0,1,0,0s0-.05,0,0l.72,0a.07.07,0,0,1,0,.06,0,0,0,0,1,0,0m3.6,0s0,0-.05,0,0,0,.05,0l.72,0s.05,0,.05,0a0,0,0,0,1-.05,0l-.72,0Zm1.44-.08a0,0,0,0,1-.05,0,.05.05,0,0,1,.05-.05l.71,0a.07.07,0,0,1,.06,0,0,0,0,0,1,0,0l-.72.06h0m-6.47-.07h0A6.8,6.8,0,0,1,4,80.46s0,0,0-.06a0,0,0,0,1,.06,0,7,7,0,0,0,.69.17s0,0,0,0a0,0,0,0,1,0,0m7.91,0a0,0,0,0,1,0,0s0-.05,0-.05l.72-.06s0,0,0,0a0,0,0,0,1,0,0l-.72.07h0M14,80.45a.05.05,0,0,1,0,0,0,0,0,0,1,0,0l.71-.07s0,0,0,0,0,0,0,0l-.71.07h0m1.43-.14a0,0,0,0,1,0,0s0-.05,0-.05l.71-.08a.07.07,0,0,1,.06,0,.06.06,0,0,1-.05.06l-.71.08h0M3.35,80.15h0A.87.87,0,0,1,3,79.8c0-.09-.08-.18-.11-.27a.07.07,0,0,1,0-.07.06.06,0,0,1,.06,0,1.72,1.72,0,0,0,.1.26.85.85,0,0,0,.27.31s0,0,0,.06a0,0,0,0,1,0,0m13.54,0a0,0,0,0,1,0,0s0,0,0,0L17.6,80a.05.05,0,1,1,0,.1l-.72.08h0M18.32,80a0,0,0,0,1,0,0s0,0,0,0l.71-.09s0,0,0,0,0,.05,0,.06l-.71.09h0m1.43-.19s-.05,0-.05,0a.07.07,0,0,1,0-.06l.72-.09s.05,0,.05,0,0,.05,0,.05l-.72.1h0m1.43-.19a0,0,0,0,1-.05,0s0-.05,0-.05l.71-.1s.05,0,.06,0a0,0,0,0,1,0,0l-.72.11h0m1.42-.21a0,0,0,0,1,0,0s0,0,0,0l.71-.11s.05,0,.05,0,0,0,0,.06l-.71.1h0M24,79.17a0,0,0,0,1-.05,0,.07.07,0,0,1,0-.06l.71-.1s.05,0,.06,0,0,0,0,0l-.71.11h0M25.45,79a.07.07,0,0,1-.05,0,0,0,0,0,1,0,0l.72-.12s.05,0,.05,0a0,0,0,0,1,0,.06l-.71.11h0M2.91,78.84h0s0,0,0-.06a1.45,1.45,0,0,1,.32-.66s0,0,.06,0a0,0,0,0,1,0,.07,1.43,1.43,0,0,0-.3.62s0,0,0,0m24-.11a0,0,0,0,1-.05,0s0,0,0-.06l.71-.11s.05,0,.05,0,0,0,0,0l-.71.12h0m1.42-.23a0,0,0,0,1-.05,0s0-.06,0-.06l.71-.12a.05.05,0,0,1,0,.1l-.71.12h0m1.42-.24a.07.07,0,0,1,0,0,.05.05,0,0,1,0-.06l.71-.12a.07.07,0,0,1,.06,0s0,.06,0,.06l-.71.12h0M31.14,78a.07.07,0,0,1-.05,0,.07.07,0,0,1,0-.06l.71-.12a.05.05,0,0,1,.06,0,.07.07,0,0,1,0,.06l-.71.12h0m1.42-.25a.05.05,0,0,1-.05,0s0,0,0,0l.71-.13a.05.05,0,0,1,.06,0,.07.07,0,0,1,0,.06l-.71.12h0m-28.8-.06s0,0,0,0a0,0,0,0,1,0-.06,3.74,3.74,0,0,1,.63-.37,0,0,0,0,1,0,.08,5.08,5.08,0,0,0-.62.37h0M34,77.52a.07.07,0,0,1,0,0,.05.05,0,0,1,0-.06l.71-.12s0,0,.06,0,0,0,0,0l-.71.13h0m1.42-.26a.05.05,0,0,1,0,0s0,0,0,0L36.1,77s0,0,.06,0,0,0,0,0l-.71.13h0M5,77.06s0,0,0,0A0,0,0,0,1,5,77l.69-.23a0,0,0,0,1,0,.09c-.24.07-.47.15-.68.23H5M36.82,77a.07.07,0,0,1,0,0,.05.05,0,0,1,0-.06l.71-.13a.05.05,0,0,1,.06,0,.07.07,0,0,1,0,.06l-.71.13h0m1.42-.27a.07.07,0,0,1-.05,0,.08.08,0,0,1,0-.06h.08a.05.05,0,0,1,.06,0s0,0-.12.06h0M6.42,76.64a.05.05,0,0,1,0,0s0-.06,0-.06l.7-.16s.06,0,.06,0a0,0,0,0,1,0,.06l-.7.16h0m1.41-.29a0,0,0,0,1,0,0s0,0,0-.06l.71-.11s.05,0,.05,0,0,0,0,0l-.71.12h0m1.43-.21a.07.07,0,0,1,0,0s0-.06,0-.06L10,76A.07.07,0,0,1,10,76a.06.06,0,0,1,0,.06l-.71.08h0M10.7,76a0,0,0,1,1,0-.09l.73-.05a0,0,0,0,1,0,.1l-.72,0h0" transform="translate(-2.87 -7.31)"/><polygon class="cls-28" points="36.98 71.97 42.88 68.59 37.5 68.91 37.91 69.83 36.8 71.08 36.98 71.97"/><polygon class="cls-9" points="42.88 68.59 36.7 69.73 32.19 72.91 42.88 68.59"/><polygon class="cls-9" points="37.5 68.91 42.88 68.59 37.25 66.91 37.5 68.91"/><polygon class="cls-28" points="68.93 27.44 75.64 28.52 71.22 25.37 70.98 26.35 69.34 26.63 68.93 27.44"/><polygon class="cls-9" points="75.64 28.52 70.09 25.51 64.61 25.14 75.64 28.52"/><polygon class="cls-9" points="71.22 25.37 75.64 28.52 72.26 23.65 71.22 25.37"/><path class="cls-16" d="M36.67,54s.7-.27.78-.45.32-.27.6-.4.44-.36.48-.33,0,.19-.06.32a7.72,7.72,0,0,1-.77,1.06c-.17.1-1-.2-1-.2" transform="translate(-2.87 -7.31)"/><path class="cls-20" d="M44.37,89.46h-6.5a2.15,2.15,0,0,1,0-4.3h6.5a2.15,2.15,0,0,1,0,4.3" transform="translate(-2.87 -7.31)"/><path class="cls-21" d="M43.77,86.23H37a.13.13,0,0,1-.13-.14A.14.14,0,0,1,37,86h6.73a.14.14,0,0,1,.13.14.13.13,0,0,1-.13.14" transform="translate(-2.87 -7.31)"/><path class="cls-21" d="M38.24,86.83H37a.14.14,0,0,1,0-.28h1.2a.14.14,0,0,1,0,.28" transform="translate(-2.87 -7.31)"/><path class="cls-21" d="M42,86.83H38.71a.14.14,0,1,1,0-.28H42a.14.14,0,1,1,0,.28" transform="translate(-2.87 -7.31)"/><path class="cls-21" d="M43.77,87.93H37a.13.13,0,0,1-.13-.14.13.13,0,0,1,.13-.13h6.73a.13.13,0,0,1,.13.13.13.13,0,0,1-.13.14" transform="translate(-2.87 -7.31)"/><path class="cls-21" d="M39.48,88.53H37a.14.14,0,0,1,0-.28h2.44a.14.14,0,0,1,0,.28" transform="translate(-2.87 -7.31)"/><path class="cls-21" d="M42.45,88.53H40a.14.14,0,0,1,0-.28h2.44a.14.14,0,0,1,0,.28" transform="translate(-2.87 -7.31)"/></svg>