<svg xmlns="http://www.w3.org/2000/svg" xmlns:xlink="http://www.w3.org/1999/xlink" viewBox="0 0 108.14 94.42"><defs><style>.cls-1{fill:none;}.cls-2{isolation:isolate;}.cls-3{clip-path:url(#clip-path);}.cls-4{fill:url(#Degradado_sin_nombre_29);}.cls-5{opacity:0.25;}.cls-6{clip-path:url(#clip-path-2);}.cls-7{mix-blend-mode:soft-light;}.cls-8{clip-path:url(#clip-path-3);}.cls-9{fill:#fff;}.cls-10{clip-path:url(#clip-path-4);}.cls-11{clip-path:url(#clip-path-5);}.cls-12{clip-path:url(#clip-path-6);}.cls-13{clip-path:url(#clip-path-7);}.cls-14{clip-path:url(#clip-path-8);}.cls-15{clip-path:url(#clip-path-9);}.cls-16{clip-path:url(#clip-path-10);}.cls-17{fill:url(#Degradado_sin_nombre_38);}.cls-18{fill:#009ab8;}.cls-19{clip-path:url(#clip-path-11);}.cls-20{fill:url(#Degradado_sin_nombre_38-2);}.cls-21{clip-path:url(#clip-path-12);}.cls-22{fill:url(#Degradado_sin_nombre_57);}.cls-23{clip-path:url(#clip-path-13);}.cls-24{fill:url(#Degradado_sin_nombre_43);}.cls-25{clip-path:url(#clip-path-14);}.cls-26{fill:url(#Degradado_sin_nombre_38-3);}.cls-27{clip-path:url(#clip-path-15);}.cls-28{fill:url(#Degradado_sin_nombre_38-4);}.cls-29{clip-path:url(#clip-path-16);}.cls-30{fill:url(#Degradado_sin_nombre_38-5);}.cls-31{clip-path:url(#clip-path-17);}.cls-32{fill:url(#Degradado_sin_nombre_57-2);}.cls-33{clip-path:url(#clip-path-18);}.cls-34{fill:url(#Degradado_sin_nombre_38-6);}.cls-35{clip-path:url(#clip-path-19);}.cls-36{fill:url(#Degradado_sin_nombre_57-3);}.cls-37{clip-path:url(#clip-path-20);}.cls-38{fill:url(#Degradado_sin_nombre_57-4);}.cls-39{clip-path:url(#clip-path-21);}.cls-40{fill:url(#Degradado_sin_nombre_59);}.cls-41{clip-path:url(#clip-path-22);}.cls-42{fill:url(#Degradado_sin_nombre_57-5);}.cls-43{clip-path:url(#clip-path-23);}.cls-44{fill:url(#Degradado_sin_nombre_43-2);}.cls-45{clip-path:url(#clip-path-24);}.cls-46{fill:url(#Degradado_sin_nombre_58);}.cls-47{clip-path:url(#clip-path-25);}.cls-48{fill:url(#Degradado_sin_nombre_58-2);}.cls-49{clip-path:url(#clip-path-26);}.cls-50{fill:url(#Degradado_sin_nombre_57-6);}.cls-51{clip-path:url(#clip-path-27);}.cls-52{fill:url(#Degradado_sin_nombre_59-2);}.cls-53{clip-path:url(#clip-path-28);}.cls-54{fill:url(#Degradado_sin_nombre_60);}.cls-55{clip-path:url(#clip-path-29);}.cls-56{fill:url(#Degradado_sin_nombre_49);}.cls-57{clip-path:url(#clip-path-30);}.cls-58{fill:url(#Degradado_sin_nombre_59-3);}.cls-59{clip-path:url(#clip-path-31);}.cls-60{fill:url(#Degradado_sin_nombre_60-2);}.cls-61{clip-path:url(#clip-path-32);}.cls-62{fill:url(#Degradado_sin_nombre_58-3);}.cls-63{clip-path:url(#clip-path-33);}.cls-64{fill:url(#Degradado_sin_nombre_53);}.cls-65{clip-path:url(#clip-path-34);}.cls-66{fill:url(#Degradado_sin_nombre_54);}.cls-67{clip-path:url(#clip-path-35);}.cls-68{fill:url(#Degradado_sin_nombre_58-4);}.cls-69{clip-path:url(#clip-path-36);}.cls-70{fill:url(#Degradado_sin_nombre_58-5);}.cls-71{clip-path:url(#clip-path-37);}.cls-72{fill:url(#Degradado_sin_nombre_57-7);}.cls-73{clip-path:url(#clip-path-38);}.cls-74{fill:url(#Degradado_sin_nombre_58-6);}.cls-75{clip-path:url(#clip-path-39);}.cls-76{fill:url(#Degradado_sin_nombre_59-4);}.cls-77{clip-path:url(#clip-path-40);}.cls-78{fill:url(#Degradado_sin_nombre_60-3);}</style><clipPath id="clip-path" transform="translate(-0.37 -5.3)"><path class="cls-1" d="M20.93,58.75C20.17,76,34.67,82.48,53.31,83.3S87.67,79,88.43,61.71,74.69,29.78,56.05,29c-.54,0-1.08,0-1.62,0-17.92,0-32.76,13.06-33.5,29.82"/></clipPath><linearGradient id="Degradado_sin_nombre_29" x1="-911.03" y1="2298.59" x2="-910.81" y2="2298.59" gradientTransform="matrix(0, 312.18, 312.18, 0, -717527.31, 284426.73)" gradientUnits="userSpaceOnUse"><stop offset="0" stop-color="#288b99"/><stop offset="1" stop-color="#003e4c"/></linearGradient><clipPath id="clip-path-2" transform="translate(-0.37 -5.3)"><rect class="cls-1" x="23.94" y="29.69" width="61.3" height="53.96"/></clipPath><clipPath id="clip-path-3" transform="translate(-0.37 -5.3)"><rect class="cls-1" x="45.87" y="29.88" width="17.57" height="53.03"/></clipPath><clipPath id="clip-path-4" transform="translate(-0.37 -5.3)"><rect class="cls-1" x="30.14" y="29.69" width="47.24" height="53.22"/></clipPath><clipPath id="clip-path-5" transform="translate(-0.37 -5.3)"><rect class="cls-1" x="26.38" y="48.04" width="56.41" height="0.48"/></clipPath><clipPath id="clip-path-6" transform="translate(-0.37 -5.3)"><rect class="cls-1" x="34.55" y="36.25" width="40.07" height="0.48"/></clipPath><clipPath id="clip-path-7" transform="translate(-0.37 -5.3)"><rect class="cls-1" x="23.94" y="59.83" width="61.3" height="0.48"/></clipPath><clipPath id="clip-path-8" transform="translate(-0.37 -5.3)"><rect class="cls-1" x="26.38" y="71.63" width="56.41" height="0.48"/></clipPath><clipPath id="clip-path-9" transform="translate(-0.37 -5.3)"><rect class="cls-1" x="35.43" y="75.64" width="40.34" height="8.02"/></clipPath><clipPath id="clip-path-10" transform="translate(-0.37 -5.3)"><path class="cls-1" d="M83.45,38.49l-3.24.39-3.79,8.21,6.32-3.68c-.62,4.33,7.5,10.76,10.29,13.11a.63.63,0,0,1,0,.93L92,58.62a12.82,12.82,0,0,0,6.32,3.59l-.59-1.08s-11.61-20.3-13.17-22.2a1.2,1.2,0,0,0-.94-.45h-.14"/></clipPath><linearGradient id="Degradado_sin_nombre_38" x1="-914.55" y1="2290.26" x2="-914.33" y2="2290.26" gradientTransform="matrix(-94.91, 0, 0, 94.91, -86698.14, -217318.41)" gradientUnits="userSpaceOnUse"><stop offset="0" stop-color="#f9b776"/><stop offset="1" stop-color="#f47960"/></linearGradient><clipPath id="clip-path-11" transform="translate(-0.37 -5.3)"><path class="cls-1" d="M75.19,48.05l6.94-2.33c-1.49,4.12,5.17,12.06,7.42,14.93a.63.63,0,0,1-.14.92l-1.32.92a12.74,12.74,0,0,0,5.45,4.79l-.35-1.18s-1.76-4.2-1.78-4.21A73.33,73.33,0,0,0,84.78,41.7a1.21,1.21,0,0,0-1-.65l-3.24-.27Z"/></clipPath><linearGradient id="Degradado_sin_nombre_38-2" x1="-907.31" y1="2298.87" x2="-907.09" y2="2298.87" gradientTransform="matrix(332.73, 0, 0, -332.73, 301990.43, 764959.32)" xlink:href="#Degradado_sin_nombre_38"/><clipPath id="clip-path-12" transform="translate(-0.37 -5.3)"><path class="cls-1" d="M71.85,16.67c-.6.82-2.89.2-3.7,1.92a2.17,2.17,0,0,1-2.31,1.24c-2.41-.4-6.34-.37-8.21,3.42-1.43,2.9-.26,4.57,1.23,5.5A2.42,2.42,0,0,1,59.74,32c-.61,1.09-.71,2.54.95,4.25,3.71,3.85,10.82-2.67,10.82-2.67L77,19.92l-1.34-4.69s-3.08.43-3.82,1.44"/></clipPath><linearGradient id="Degradado_sin_nombre_57" x1="-914.15" y1="2302.14" x2="-913.93" y2="2302.14" gradientTransform="matrix(-88.03, 0, 0, -88.03, -80343.92, 202674.79)" gradientUnits="userSpaceOnUse"><stop offset="0" stop-color="#2b3582"/><stop offset="1" stop-color="#150e42"/></linearGradient><clipPath id="clip-path-13" transform="translate(-0.37 -5.3)"><path class="cls-1" d="M72.91,22.84S65.37,27.74,62.41,36l3.33,1a39.24,39.24,0,0,1,3.91-5.4s-3.36,4.45-3.48,6.27l7.15.73a66.78,66.78,0,0,0,5.1-5.4,4.58,4.58,0,0,0,.77-4.12,57.86,57.86,0,0,0-2.25-5.68c-.18-.59-3.46-.62-4-.62h-.07"/></clipPath><linearGradient id="Degradado_sin_nombre_43" x1="-911.49" y1="2295.56" x2="-911.27" y2="2295.56" gradientTransform="matrix(-269.98, 0, 0, 269.98, -246003.21, -619727.35)" gradientUnits="userSpaceOnUse"><stop offset="0" stop-color="#fdf53f"/><stop offset="1" stop-color="#d93c65"/></linearGradient><clipPath id="clip-path-14" transform="translate(-0.37 -5.3)"><path class="cls-1" d="M61.71,38a1.19,1.19,0,0,0,.44,1.37,8,8,0,0,0,1.12.71c.59.25,13.57.08,13.57.08l3-.22-2.57-2.79-3,.79a17,17,0,0,1-5.44,0l-2-.53L62.41,36Z"/></clipPath><linearGradient id="Degradado_sin_nombre_38-3" x1="-912.09" y1="2306.67" x2="-911.87" y2="2306.67" gradientTransform="translate(-74823.59 189434.29) rotate(180) scale(82.11)" xlink:href="#Degradado_sin_nombre_38"/><clipPath id="clip-path-15" transform="translate(-0.37 -5.3)"><path class="cls-1" d="M75.55,18.24,73,23c.17,1,2.8,1.07,3.21.45a.58.58,0,0,0,.08-.22l1.54-3.2c.07-.31-.79-1.36-1.07-1.51l-.83-.44-.35.13m.16-.23.19.1c.39-.17.21-.24,0-.24s-.37.05-.2.14"/></clipPath><linearGradient id="Degradado_sin_nombre_38-4" x1="-883.77" y1="2306.31" x2="-883.55" y2="2306.31" gradientTransform="translate(-68276.44 -26162.79) rotate(-90) scale(29.64)" xlink:href="#Degradado_sin_nombre_38"/><clipPath id="clip-path-16" transform="translate(-0.37 -5.3)"><path class="cls-1" d="M75.53,18a4.52,4.52,0,0,0,1.07,4c.64.73,1.91.82,3.18-1.23a5.69,5.69,0,0,0,1-3.68c-.18-.81-1-1.16-1.89-1.16-1.42,0-3.13.82-3.34,2.06"/></clipPath><linearGradient id="Degradado_sin_nombre_38-5" x1="-899.07" y1="2295.18" x2="-898.85" y2="2295.18" gradientTransform="translate(69434.93 -177050.9) scale(77.15)" xlink:href="#Degradado_sin_nombre_38"/><clipPath id="clip-path-17" transform="translate(-0.37 -5.3)"><path class="cls-1" d="M78.29,14.17c-2.33.65-3.69,1.38-4,3s1.06,1.35,1.06,1.35.5-1.11,1.11-1.19.39.8.39.8l.17.1s2.06-2.7,3.64-.34l0,.81s2-.09,1.83-2A3,3,0,0,0,79.46,14a4.19,4.19,0,0,0-1.17.17"/></clipPath><linearGradient id="Degradado_sin_nombre_57-2" x1="-915.5" y1="2309.97" x2="-915.28" y2="2309.97" gradientTransform="matrix(-51.03, 0, 0, -51.03, -46631.09, 117890.27)" xlink:href="#Degradado_sin_nombre_57"/><clipPath id="clip-path-18" transform="translate(-0.37 -5.3)"><path class="cls-1" d="M75.82,18.46l.78-.3s1.07-1.38.1-1.67l-.22,0c-.75,0-.71,1.43-.66,2"/></clipPath><linearGradient id="Degradado_sin_nombre_38-6" x1="-899.07" y1="2295.27" x2="-898.85" y2="2295.27" gradientTransform="translate(69432.56 -177058.54) scale(77.15)" xlink:href="#Degradado_sin_nombre_38"/><clipPath id="clip-path-19" transform="translate(-0.37 -5.3)"><path class="cls-1" d="M83.17,40H71.36a.53.53,0,0,0,0,1s0,0,0,0H83.17a.53.53,0,0,0,0-1.06h0"/></clipPath><linearGradient id="Degradado_sin_nombre_57-3" x1="-909.21" y1="2278.32" x2="-908.98" y2="2278.32" gradientTransform="translate(101552.08 40527.61) rotate(90) scale(44.54)" xlink:href="#Degradado_sin_nombre_57"/><clipPath id="clip-path-20" transform="translate(-0.37 -5.3)"><path class="cls-1" d="M84,30.33a1.88,1.88,0,0,0-1.7,1.08l-4.54,9.64H89.93A1.14,1.14,0,0,0,91,40.33l3.53-8.92a.79.79,0,0,0-.73-1.08Z"/></clipPath><linearGradient id="Degradado_sin_nombre_57-4" x1="-909.25" y1="2299.06" x2="-909.03" y2="2299.06" gradientTransform="translate(-891246.58 -352466.2) rotate(-90) scale(387.69)" xlink:href="#Degradado_sin_nombre_57"/><clipPath id="clip-path-21" transform="translate(-0.37 -5.3)"><path class="cls-1" d="M86.86,35.28c-.22.66-.06,1.3.35,1.43s.91-.3,1.12-1,.06-1.31-.35-1.44l-.15,0c-.38,0-.79.4-1,1"/></clipPath><linearGradient id="Degradado_sin_nombre_59" x1="-930.71" y1="2273.42" x2="-930.48" y2="2273.42" gradientTransform="translate(56919.43 23299.41) rotate(90) scale(25)" gradientUnits="userSpaceOnUse"><stop offset="0" stop-color="#53d8ff"/><stop offset="1" stop-color="#3840f7"/></linearGradient><clipPath id="clip-path-22" transform="translate(-0.37 -5.3)"><path class="cls-1" d="M22,50.54c-2.69.28-5.73.26-5.73.26S14,52.49,14,52.49s.49,3.49,2.47,4.87c2.18,1.51,5.25-1.25,5.25-1.25s2.45.58,3.75-4.52c.22-.86-.66-1.14-2-1.14-.46,0-1,0-1.52.09"/></clipPath><linearGradient id="Degradado_sin_nombre_57-5" x1="-921.34" y1="2295.06" x2="-921.12" y2="2295.06" gradientTransform="matrix(-71.04, 0, 0, 71.04, -65413.69, -162986.38)" xlink:href="#Degradado_sin_nombre_57"/><clipPath id="clip-path-23" transform="translate(-0.37 -5.3)"><path class="cls-1" d="M18.69,61.85a11.15,11.15,0,0,1-2.06-.24A7.81,7.81,0,0,0,15,61.38a9.56,9.56,0,0,0-2.84,1.32c-2.43,1.68-3.9,6.37-3.69,6.84s3,1.75,3,1.75l-.31,4.41,8.7,4.36,7.63-3.9.31-4.69a9.26,9.26,0,0,0,3.09-2c-.72-2.65-1.9-5.33-3.92-6.77a10.6,10.6,0,0,0-3.27-1.3,3.77,3.77,0,0,0-.83-.09c-1.26,0-2.7.54-4.13.57"/></clipPath><linearGradient id="Degradado_sin_nombre_43-2" x1="-913.13" y1="2299.18" x2="-912.91" y2="2299.18" gradientTransform="matrix(0, 208.19, 208.19, 0, -478641.32, 190162.2)" xlink:href="#Degradado_sin_nombre_43"/><clipPath id="clip-path-24" transform="translate(-0.37 -5.3)"><path class="cls-1" d="M14.41,80.82s.67-5.28-1.08-5c-.63-.31-1.19-.62-1.69-.91.14,5.38,2.77,6,2.77,6m-2.77-6a21.54,21.54,0,0,1,.2-3.41,23.74,23.74,0,0,0-3.25-2s-3.18,1.77,3.05,5.38"/></clipPath><linearGradient id="Degradado_sin_nombre_58" x1="-913.55" y1="2302.42" x2="-913.33" y2="2302.42" gradientTransform="matrix(0, 142.47, 142.47, 0, -328020.34, 130222.7)" gradientUnits="userSpaceOnUse"><stop offset="0" stop-color="#c4421b"/><stop offset="1" stop-color="#5c0e16"/></linearGradient><clipPath id="clip-path-25" transform="translate(-0.37 -5.3)"><path class="cls-1" d="M25.92,75.77c-1.75-.23-1.07,5-1.07,5s2-1,2.5-5.84c-.43.25-.9.52-1.43.79m1.49-4.32A23.52,23.52,0,0,1,27.35,75c5.51-3.33,3.32-5.5,3.32-5.5a23.64,23.64,0,0,0-3.26,2"/></clipPath><linearGradient id="Degradado_sin_nombre_58-2" x1="-915.84" y1="2296.9" x2="-915.61" y2="2296.9" gradientTransform="translate(-130444.04 327319.22) rotate(-180) scale(142.47)" xlink:href="#Degradado_sin_nombre_58"/><clipPath id="clip-path-26" transform="translate(-0.37 -5.3)"><path class="cls-1" d="M12.86,73.4A1.85,1.85,0,0,0,11,75.24v7.6c0,1,.83-6.35,1.85-6.35h13c1,0,1.85,7.37,1.85,6.35v-7.6a1.85,1.85,0,0,0-1.85-1.84Z"/></clipPath><linearGradient id="Degradado_sin_nombre_57-6" x1="-916.89" y1="2300.45" x2="-916.67" y2="2300.45" gradientTransform="matrix(-116.82, 0, 0, 116.82, -107084.86, -268659.47)" xlink:href="#Degradado_sin_nombre_57"/><clipPath id="clip-path-27" transform="translate(-0.37 -5.3)"><path class="cls-1" d="M28.73,79.63l-.18.49-.3,2.42a50.5,50.5,0,0,0,6.28.76,1.83,1.83,0,0,0,.59-.09A1.53,1.53,0,0,0,35.3,83a2.27,2.27,0,0,0-.24-3.19,19.67,19.67,0,0,0-3.74-.27c-1.41,0-2.59.06-2.59.06"/></clipPath><linearGradient id="Degradado_sin_nombre_59-2" x1="-915.45" y1="2299.1" x2="-915.23" y2="2299.1" gradientTransform="matrix(-139.47, 0, 0, 139.47, -127626.19, -320578.42)" xlink:href="#Degradado_sin_nombre_59"/><clipPath id="clip-path-28" transform="translate(-0.37 -5.3)"><path class="cls-1" d="M35.3,83a1.53,1.53,0,0,1-.18.18c1.55-.48,1.74-2.87.13-3.32l-.19,0A2.27,2.27,0,0,1,35.3,83"/></clipPath><linearGradient id="Degradado_sin_nombre_60" x1="-918.95" y1="2293.83" x2="-918.72" y2="2293.83" gradientTransform="matrix(-95.92, 0, 0, 95.92, -88108.22, -219951.35)" gradientUnits="userSpaceOnUse"><stop offset="0" stop-color="#cb236d"/><stop offset="1" stop-color="#4c246d"/></linearGradient><clipPath id="clip-path-29" transform="translate(-0.37 -5.3)"><path class="cls-1" d="M27.22,82.46l1.14.08a1.1,1.1,0,0,0,.88-.33,1.39,1.39,0,0,0,.4-.92,1.77,1.77,0,0,0-.38-1.22,1.45,1.45,0,0,0-1.06-.54l-.74,0Z"/></clipPath><linearGradient id="Degradado_sin_nombre_49" x1="-903.62" y1="2295.58" x2="-903.4" y2="2295.58" gradientTransform="matrix(182.24, 0, 0, -182.24, 164711.74, 418438.37)" gradientUnits="userSpaceOnUse"><stop offset="0" stop-color="#c4421b"/><stop offset="0.35" stop-color="#a03019"/><stop offset="1" stop-color="#5c0e16"/></linearGradient><clipPath id="clip-path-30" transform="translate(-0.37 -5.3)"><path class="cls-1" d="M2.28,79.6A2.28,2.28,0,0,0,2,82.79l.18.19a1.76,1.76,0,0,0,.58.1A49.63,49.63,0,0,0,9,82.52l-.24-2.43-.16-.49s-1.94-.17-3.8-.17a15.37,15.37,0,0,0-2.54.17"/></clipPath><linearGradient id="Degradado_sin_nombre_59-3" x1="-913.43" y1="2293.16" x2="-913.21" y2="2293.16" gradientTransform="matrix(0, 139.47, -139.47, 0, 319827.07, 127391.76)" xlink:href="#Degradado_sin_nombre_59"/><clipPath id="clip-path-31" transform="translate(-0.37 -5.3)"><path class="cls-1" d="M2.09,79.65c-1.62.4-1.5,2.79.05,3.33L2,82.79a2.28,2.28,0,0,1,.32-3.19l-.19.05"/></clipPath><linearGradient id="Degradado_sin_nombre_60-2" x1="-917.72" y1="2292.81" x2="-917.5" y2="2292.81" gradientTransform="translate(-100523.68 251234.03) rotate(-180) scale(109.54)" xlink:href="#Degradado_sin_nombre_60"/><clipPath id="clip-path-32" transform="translate(-0.37 -5.3)"><path class="cls-1" d="M9.14,79.51A1.4,1.4,0,0,0,8.08,80a1.76,1.76,0,0,0-.42,1.2,1.44,1.44,0,0,0,.38.94,1.18,1.18,0,0,0,.87.36l1.15,0-.17-3Z"/></clipPath><linearGradient id="Degradado_sin_nombre_58-3" x1="-906.54" y1="2301.34" x2="-906.32" y2="2301.34" gradientTransform="matrix(207.44, 0, 0, -207.44, 188070.39, 477475.9)" xlink:href="#Degradado_sin_nombre_58"/><clipPath id="clip-path-33" transform="translate(-0.37 -5.3)"><path class="cls-1" d="M9.24,79.33a10.84,10.84,0,0,1,.47,2.88,4.53,4.53,0,0,1,0,.64c6.39-.33,13.23-2.14,19.48-4l-1.61-.22A65.51,65.51,0,0,0,20,78.13a44.33,44.33,0,0,0-10.72,1.2m23.81-1.72-3.87,1.2c1,.15,1.61.26,1.62.25,1.81-.94,3.93-.61,4.8,1.39.53,1.22.38,0-.24-1.2-.43-.85-1.1-1.71-1.92-1.71a1.07,1.07,0,0,0-.39.07"/></clipPath><linearGradient id="Degradado_sin_nombre_53" x1="-920.52" y1="2300.12" x2="-920.29" y2="2300.12" gradientTransform="matrix(-83.29, 0, 0, 83.29, -76633.11, -191488.5)" gradientUnits="userSpaceOnUse"><stop offset="0" stop-color="#288b99"/><stop offset="0.18" stop-color="#29869f"/><stop offset="0.41" stop-color="#2c79b0"/><stop offset="0.68" stop-color="#3162cc"/><stop offset="0.97" stop-color="#3743f3"/><stop offset="1" stop-color="#3840f7"/></linearGradient><clipPath id="clip-path-34" transform="translate(-0.37 -5.3)"><path class="cls-1" d="M16.46,78.67a21.63,21.63,0,0,1-4.86.93,78,78,0,0,0,15.92,3c0-.08,0-.16,0-.25a6.69,6.69,0,0,1,.65-3.11s0-.09,0-.13c-.57-.18-1.32-.42-2.29-.75a11.51,11.51,0,0,0-3.81-.63,22.33,22.33,0,0,0-5.64.93m-12.85.55c-.6,1.39-.84,2.77-.52,1.6a3.25,3.25,0,0,1,5-2,6.88,6.88,0,0,0,3.54.81l-1.24-.37c-1.88-.61,1.12-.08-4.65-2a1,1,0,0,0-.28,0c-.75,0-1.38,1-1.82,2"/></clipPath><linearGradient id="Degradado_sin_nombre_54" x1="-907.68" y1="2308.82" x2="-907.46" y2="2308.82" gradientTransform="matrix(0, 87.58, 87.58, 0, -202186.56, 79567.44)" gradientUnits="userSpaceOnUse"><stop offset="0" stop-color="#288b99"/><stop offset="1" stop-color="#3840f7"/></linearGradient><clipPath id="clip-path-35" transform="translate(-0.37 -5.3)"><path class="cls-1" d="M17.21,58.35,17.14,61l-2.15.4a4.42,4.42,0,0,0,4.51,3.27,3.9,3.9,0,0,0,4.15-3.28l-2.49-.53L21,58.07Z"/></clipPath><linearGradient id="Degradado_sin_nombre_58-4" x1="-897.11" y1="2291.24" x2="-896.89" y2="2291.24" gradientTransform="matrix(0, -75.71, -75.71, 0, 173486.26, -67849.66)" xlink:href="#Degradado_sin_nombre_58"/><clipPath id="clip-path-36" transform="translate(-0.37 -5.3)"><path class="cls-1" d="M18.53,60.54C22.12,62,24.37,55,23.7,53.14c-1-2.91-1.72-2.56-1.72-2.56l-4.25-.37s-4.29,8.31.8,10.33"/></clipPath><linearGradient id="Degradado_sin_nombre_58-5" x1="-894.74" y1="2293.32" x2="-894.51" y2="2293.32" gradientTransform="matrix(65.93, 0, 0, -65.93, 59006.73, 151259.6)" xlink:href="#Degradado_sin_nombre_58"/><clipPath id="clip-path-37" transform="translate(-0.37 -5.3)"><path class="cls-1" d="M20.15,47a10.28,10.28,0,0,1-2.16.21c-1.56-.05-1.86,1.46-3.16,2.43-1.45,1.09-.79,4.48.4,6.16s1.18-1.57,1.68-2.45,1.75-.89,4.94.2,5-3.51,2.88-4.09C23.17,49,23.65,47.78,22.58,47a1.54,1.54,0,0,0-.89-.24,9,9,0,0,0-1.54.22"/></clipPath><linearGradient id="Degradado_sin_nombre_57-7" x1="-919.89" y1="2295.3" x2="-919.66" y2="2295.3" gradientTransform="matrix(-79.94, 0, 0, 79.94, -73493.31, -183423.62)" xlink:href="#Degradado_sin_nombre_57"/><clipPath id="clip-path-38" transform="translate(-0.37 -5.3)"><path class="cls-1" d="M15.65,54.27c-.15,1.19.32,2.71.88,1.88a2.86,2.86,0,0,0,.18-2.08s-.35-.39-.66-.39-.34.14-.4.59"/></clipPath><linearGradient id="Degradado_sin_nombre_58-6" x1="-900.92" y1="2292.03" x2="-900.7" y2="2292.03" gradientTransform="matrix(0, -103.32, -103.32, 0, 236821.81, -93018.1)" xlink:href="#Degradado_sin_nombre_58"/><clipPath id="clip-path-39" transform="translate(-0.37 -5.3)"><path class="cls-1" d="M19.06,75.48a1,1,0,0,0-.78,1.28,1.1,1.1,0,0,0,1.24.93,1,1,0,0,0,.84-1.23,1.2,1.2,0,0,0-1.15-1h-.15"/></clipPath><linearGradient id="Degradado_sin_nombre_59-4" x1="-917.66" y1="2300.87" x2="-917.44" y2="2300.87" gradientTransform="matrix(-105.19, 0, 0, 105.19, -96500.28, -241948.71)" xlink:href="#Degradado_sin_nombre_59"/><clipPath id="clip-path-40" transform="translate(-0.37 -5.3)"><path class="cls-1" d="M60.56,61.05l-9.77.61a1.12,1.12,0,0,0-1.17,1v7.1a1.16,1.16,0,0,0,1.27,1h9.17a1.18,1.18,0,0,0,1.27-.92l.6-7.71c0-.57-.55-1-1.27-1h-.1"/></clipPath><linearGradient id="Degradado_sin_nombre_60-3" x1="-901.82" y1="2301.6" x2="-901.6" y2="2301.6" gradientTransform="matrix(113.52, 0, 0, -113.52, 102421, 261342.75)" xlink:href="#Degradado_sin_nombre_60"/></defs><title>ilustracion-landing-3</title><g class="cls-2"><g id="Capa_2" data-name="Capa 2"><g class="cls-3"><rect class="cls-4" x="14.71" y="21.67" width="79.95" height="69.71" transform="translate(-12 8.96) rotate(-13.44)"/></g><g class="cls-5"><g class="cls-6"><g class="cls-7"><g class="cls-8"><path class="cls-9" d="M63.44,60.38c0,2.77-.1,5.53-.32,8.29s-.57,5.5-1.06,8.22-1.15-2.77-2.11-.16a19.45,19.45,0,0,1-1.84,3.75,7.5,7.5,0,0,1-1.38,1.6,3.91,3.91,0,0,1-.91.58,2.79,2.79,0,0,1-1.07.25,2.66,2.66,0,0,1-1.08-.2,3.62,3.62,0,0,1-.93-.55,7.34,7.34,0,0,1-1.42-1.58,18.82,18.82,0,0,1-1.86-3.73c-1-2.6-1.62,2.89-2.13.17a96.14,96.14,0,0,1-1.46-16.51c0-2.76.13-5.53.33-8.28s.53-5.51,1-8.23a49.31,49.31,0,0,1,2-8A18.25,18.25,0,0,1,51,32.19a6.71,6.71,0,0,1,1.38-1.58,3.48,3.48,0,0,1,.91-.54,2.51,2.51,0,0,1,1-.19,2.82,2.82,0,0,1,1,.24,3.78,3.78,0,0,1,.9.56,8,8,0,0,1,1.41,1.55,19.36,19.36,0,0,1,1.93,3.69,46.83,46.83,0,0,1,2.29,8,81.13,81.13,0,0,1,1.18,8.21c.24,2.75.36,5.52.37,8.28m-.67,0c0-2.74-.09-5.49-.32-8.23A80,80,0,0,0,61.4,44,46.5,46.5,0,0,0,59.28,36a18.88,18.88,0,0,0-1.83-3.65,7.82,7.82,0,0,0-1.33-1.53,3.05,3.05,0,0,0-1.8-.78,2.71,2.71,0,0,0-1.82.71,6.46,6.46,0,0,0-1.29,1.55,17.35,17.35,0,0,0-1.69,3.72,47.56,47.56,0,0,0-1.83,8,106.19,106.19,0,0,0-1,16.43,95.87,95.87,0,0,0,1.24,16.41c.47,2.7,1.08-2.81,2-.23a17.5,17.5,0,0,0,1.77,3.67A6.78,6.78,0,0,0,53,81.87a2.71,2.71,0,0,0,1.77.68,2.53,2.53,0,0,0,.93-.22,3.94,3.94,0,0,0,.81-.54,7.33,7.33,0,0,0,1.29-1.54,18.79,18.79,0,0,0,1.74-3.68c.92-2.58,1.52,2.93,2,.22s.76-5.43,1-8.17.3-5.49.3-8.24" transform="translate(-0.37 -5.3)"/></g></g><g class="cls-7"><g class="cls-10"><path class="cls-9" d="M77.39,60.38A40.66,40.66,0,0,1,75.94,71a34,34,0,0,1-4.45,9.69c-2,2.95-4.53-2.63-7.56-.73a20.3,20.3,0,0,1-4.86,2.21,18.37,18.37,0,0,1-10.56,0,20.37,20.37,0,0,1-4.87-2.21c-3-1.89-5.58,3.69-7.58.73A34.28,34.28,0,0,1,31.59,71a39,39,0,0,1-1.08-5.24,38.79,38.79,0,0,1,0-10.69A39,39,0,0,1,31.6,49.8a34.31,34.31,0,0,1,4.48-9.69,26,26,0,0,1,7.58-7.44,18.66,18.66,0,0,1,20.25,0,25.81,25.81,0,0,1,7.56,7.45,33.93,33.93,0,0,1,4.46,9.68,40.59,40.59,0,0,1,1.46,10.57m-.78,0A40.08,40.08,0,0,0,75.27,50,33.61,33.61,0,0,0,71,40.42,25.08,25.08,0,0,0,63.73,33,19.45,19.45,0,0,0,59,30.76a17.38,17.38,0,0,0-10.36,0A19.79,19.79,0,0,0,43.86,33a25,25,0,0,0-7.29,7.46A33.71,33.71,0,0,0,32.36,50a39.2,39.2,0,0,0-1,5.14,40.39,40.39,0,0,0,0,10.46,40.26,40.26,0,0,0,1,5.14,33.58,33.58,0,0,0,4.22,9.57c1.9,2.92,4.34-2.66,7.29-.76a19.83,19.83,0,0,0,4.74,2.2,17.21,17.21,0,0,0,10.34,0,19.52,19.52,0,0,0,4.75-2.2c2.95-1.89,5.4,3.69,7.31.76a33.55,33.55,0,0,0,4.23-9.56,39.21,39.21,0,0,0,1.36-10.39" transform="translate(-0.37 -5.3)"/></g></g><g class="cls-7"><g class="cls-11"><path class="cls-9" d="M26.43,48.23l7-.09,7-.06c2.35,0,4.7,0,7,0l7.05,0,7,0c2.34,0,4.69,0,7,0l7,.06c2.34,0,4.69.05,7,.1a0,0,0,0,1,0,0s0,0,0,0l-7,.1-7,0c-2.35,0-4.7,0-7,0l-7,0H47.55l-7,0-7,0c-2.34,0-4.69,0-7-.1a.05.05,0,0,1,0-.1" transform="translate(-0.37 -5.3)"/></g></g><g class="cls-7"><g class="cls-12"><path class="cls-9" d="M34.6,36.44l5-.09,5-.06q5,0,10,0c3.33,0,6.66,0,10,0l5,.05c1.67,0,3.33.06,5,.11a0,0,0,0,1,0,.06c-1.67,0-3.33.07-5,.1l-5,.06c-3.33,0-6.66,0-10,0s-6.67,0-10,0l-5-.06-5-.09a0,0,0,0,1,0-.1" transform="translate(-0.37 -5.3)"/></g></g><g class="cls-7"><g class="cls-13"><path class="cls-9" d="M24,60c2.55,0,5.1-.06,7.65-.09l7.65,0c2.55,0,5.1,0,7.65,0l7.66,0,7.65,0c2.55,0,5.1,0,7.65,0l7.65.06c2.55,0,5.1.05,7.65.1a0,0,0,0,1,0,0,0,0,0,0,1,0,0l-7.65.1-7.65.06-7.65,0H46.94l-7.65,0-7.65-.05c-2.55,0-5.1,0-7.65-.1a0,0,0,0,1,0,0,.05.05,0,0,1,0,0" transform="translate(-0.37 -5.3)"/></g></g><g class="cls-7"><g class="cls-14"><path class="cls-9" d="M26.43,71.82c2.35,0,4.7-.07,7-.1l7,0,7,0H61.64l7,0,7,.06,7,.1s0,0,0,0a0,0,0,0,1,0,0c-2.35,0-4.7.07-7,.1l-7,.06-7,0-7,0-7.05,0c-2.34,0-4.69,0-7,0l-7,0-7-.09a.06.06,0,0,1-.05,0,.05.05,0,0,1,.05-.05" transform="translate(-0.37 -5.3)"/></g></g><g class="cls-7"><g class="cls-15"><path class="cls-9" d="M75.6,75.64h-40c-.1,0-.18,8.12-.18,8a.18.18,0,0,1,.18-.18h40a.18.18,0,0,1,.17.18c0,.1-.08-8-.17-8" transform="translate(-0.37 -5.3)"/></g></g></g></g><g class="cls-16"><rect class="cls-17" x="71.97" y="34.62" width="30.75" height="31.45" transform="translate(-13.83 44.63) rotate(-29.72)"/></g><path class="cls-18" d="M92.61,58a1.64,1.64,0,0,0-1,.86.72.72,0,0,0,.28.83c1.17.84,5,3.55,6.8,4.08a.21.21,0,0,0,.26-.24,6.63,6.63,0,0,0-1.34-2.45l.08.17a.25.25,0,0,1-.34.33A19,19,0,0,1,92.61,58" transform="translate(-0.37 -5.3)"/><g class="cls-19"><rect class="cls-20" x="69.55" y="37.92" width="29.63" height="32.21" transform="translate(-16.18 47.7) rotate(-32.05)"/></g><path class="cls-18" d="M88.84,62a1.62,1.62,0,0,0-1.1.65.73.73,0,0,0,.1.88c1,1,4.2,4.48,5.84,5.36a.2.2,0,0,0,.29-.18A6.43,6.43,0,0,0,93.16,66l0,.19a.25.25,0,0,1-.41.25,19.15,19.15,0,0,1-4-4.48" transform="translate(-0.37 -5.3)"/><path class="cls-18" d="M65.38,39.24s-2.93,4.37-3.17,6.36.81,2.68,3.88,2.93c9.14.76,13.65-2,13.65-2,.62-4,1.07-5,6.29-7.17,0,0-6.61.52-7.94,0s-12.71-.15-12.71-.15" transform="translate(-0.37 -5.3)"/><g class="cls-21"><rect class="cls-22" x="50.86" y="11.48" width="31.48" height="32.35" transform="translate(-3.81 39.49) rotate(-36.29)"/></g><path class="cls-9" d="M60.73,31.35h0a1.59,1.59,0,0,0,.69-1.2,1.48,1.48,0,0,0-.78-1.29,5.07,5.07,0,0,0-.64-.37,3.14,3.14,0,0,1-1-.7,3.55,3.55,0,0,1-.72-1.66,5.24,5.24,0,0,1,.48-3.07c1.32-2.36,5.26-2.28,7.62-2.23h0c1.63,0,2.07-.74,2.61-1.72l.08-.13a2.74,2.74,0,0,1,2.09-1.1,0,0,0,0,0,0-.05.05.05,0,0,0,0-.05A2.82,2.82,0,0,0,69,18.92l-.08.13c-.55,1-.94,1.71-2.51,1.67h0C64,20.67,60,20.58,58.67,23a5.4,5.4,0,0,0-.49,3.14,3.58,3.58,0,0,0,.75,1.71,3.27,3.27,0,0,0,1.06.72,5.67,5.67,0,0,1,.63.36,1.38,1.38,0,0,1,.73,1.2,1.48,1.48,0,0,1-.64,1.12.07.07,0,0,0,0,.07.05.05,0,0,0,0,0" transform="translate(-0.37 -5.3)"/><g class="cls-23"><rect class="cls-24" x="59.33" y="19.09" width="23.37" height="23.33" transform="translate(-1.81 52.62) rotate(-43.97)"/></g><g class="cls-25"><rect class="cls-26" x="61.17" y="30.73" width="18.3" height="4.32"/></g><g class="cls-27"><rect class="cls-28" x="72.78" y="17.72" width="5.29" height="6.54" transform="translate(-1.55 -0.42) rotate(-3.67)"/></g><g class="cls-29"><rect class="cls-30" x="73.7" y="15.2" width="8.83" height="8.39" transform="translate(24.38 74.35) rotate(-62.41)"/></g><g class="cls-31"><rect class="cls-32" x="73.69" y="13.19" width="9.43" height="6.39" transform="translate(-2.06 10.45) rotate(-11.35)"/></g><g class="cls-33"><rect class="cls-34" x="75.36" y="16.14" width="2.67" height="2.64" transform="translate(25.34 72.05) rotate(-62.41)"/></g><path class="cls-9" d="M82.08,17.4l0,0c.43-.59-.27-1.13-.28-1.14a0,0,0,0,0,0,0s0,0,0,.05.64.51.25,1c0,0,0,0,0,.05h0" transform="translate(-0.37 -5.3)"/><g class="cls-35"><rect class="cls-36" x="74.75" y="34.24" width="5.03" height="12.56" transform="translate(14.32 96.01) rotate(-71.84)"/></g><g class="cls-37"><rect class="cls-38" x="80.16" y="26.76" width="12.11" height="17.85" transform="translate(43.06 113.31) rotate(-85.19)"/></g><g class="cls-39"><rect class="cls-40" x="86.1" y="33.98" width="3" height="3.18" transform="translate(-5.42 49.1) rotate(-33.59)"/></g><g class="cls-41"><rect class="cls-42" x="13.08" y="47.46" width="13.62" height="14.41" transform="matrix(0.58, -0.82, 0.82, 0.58, -36.63, 34.17)"/></g><g class="cls-43"><rect class="cls-44" x="7.95" y="60.91" width="23.2" height="19.52" transform="translate(-2.69 -4.61) rotate(-1.89)"/></g><g class="cls-45"><rect class="cls-46" x="3.61" y="68.06" width="13.27" height="14.18" transform="translate(-28.33 4.34) rotate(-22.49)"/></g><g class="cls-47"><rect class="cls-48" x="21.62" y="68.97" width="13.8" height="12.37" transform="translate(-52.19 67.46) rotate(-67.51)"/></g><g class="cls-49"><rect class="cls-50" x="13.94" y="70.14" width="10.87" height="16.97" transform="translate(-60.08 90.75) rotate(-88.59)"/></g><g class="cls-51"><rect class="cls-52" x="29.99" y="77.32" width="4.44" height="8.24" transform="translate(-52.2 100.74) rotate(-84.73)"/></g><g class="cls-53"><rect class="cls-54" x="34.08" y="79.77" width="3.76" height="3.52" transform="translate(-50.49 53.21) rotate(-51.23)"/></g><g class="cls-55"><rect class="cls-56" x="26.75" y="79.61" width="3.38" height="2.85" transform="translate(-56.12 92.67) rotate(-82.03)"/></g><g class="cls-57"><rect class="cls-58" x="0.99" y="79.18" width="8.14" height="4.21" transform="translate(-5.57 -4.8) rotate(-3.68)"/></g><g class="cls-59"><rect class="cls-60" x="-0.34" y="80.33" width="3.43" height="1.91" transform="matrix(0.03, -1, 1, 0.03, -80.29, 74.87)"/></g><g class="cls-61"><rect class="cls-62" x="7.52" y="79.4" width="2.66" height="3.23" transform="translate(-7.38 -4.22) rotate(-4.99)"/></g><g class="cls-63"><rect class="cls-64" x="17.92" y="66.51" width="9.52" height="27.39" transform="translate(-60.47 84.53) rotate(-80.84)"/></g><g class="cls-65"><rect class="cls-66" x="8.64" y="67.01" width="13.7" height="25.77" transform="translate(-65.31 62.18) rotate(-70.25)"/></g><g class="cls-67"><rect class="cls-68" x="14.95" y="58.02" width="8.74" height="6.75" transform="translate(-1.07 -5.07) rotate(-0.66)"/></g><g class="cls-69"><rect class="cls-70" x="12.05" y="49.55" width="13.71" height="13.07" transform="translate(-40.2 58.02) rotate(-78.39)"/></g><g class="cls-71"><rect class="cls-72" x="11.92" y="43.52" width="16.39" height="17.09" transform="translate(-34.4 33.26) rotate(-54.87)"/></g><g class="cls-73"><rect class="cls-74" x="15.36" y="53.62" width="1.87" height="3.43" transform="translate(-5.39 -3.56) rotate(-5.28)"/></g><g class="cls-75"><rect class="cls-76" x="18.14" y="75.47" width="2.35" height="2.3" transform="translate(-58.06 89.04) rotate(-88.8)"/></g><path class="cls-9" d="M40.66,75.21l.67-.27h0a.19.19,0,1,1,.14.36h0l-.67.27a.18.18,0,0,1-.24-.11.19.19,0,0,1,.1-.25Z" transform="translate(-0.37 -5.3)"/><path class="cls-9" d="M42.86,74.29l.65-.3h0a.2.2,0,0,1,.27.11.19.19,0,0,1-.1.26h0l-.66.28a.2.2,0,0,1-.16-.36Z" transform="translate(-0.37 -5.3)"/><path class="cls-9" d="M45,73.29l.64-.32h0a.22.22,0,0,1,.19.39h0l-.65.31a.21.21,0,0,1-.28-.1.21.21,0,0,1,.09-.28Z" transform="translate(-0.37 -5.3)"/><path class="cls-9" d="M47.16,72.22l.63-.34h0a.23.23,0,0,1,.31.1.23.23,0,0,1-.1.3h0l-.64.33a.22.22,0,0,1-.3-.09.23.23,0,0,1,.1-.3Z" transform="translate(-0.37 -5.3)"/><path class="cls-9" d="M49.25,71.08l.63-.35h0a.24.24,0,0,1,.32.09.24.24,0,0,1-.09.32h0l-.63.35a.24.24,0,0,1-.32-.09.24.24,0,0,1,.09-.32Z" transform="translate(-0.37 -5.3)"/><path class="cls-9" d="M51.31,69.88l.61-.38h0a.25.25,0,0,1,.34.08.24.24,0,0,1-.08.34h0l-.62.37a.24.24,0,1,1-.25-.41Z" transform="translate(-0.37 -5.3)"/><path class="cls-9" d="M53.33,68.61l.6-.4h0a.26.26,0,1,1,.28.43h0L53.6,69a.25.25,0,0,1-.35-.07.26.26,0,0,1,.08-.35Z" transform="translate(-0.37 -5.3)"/><path class="cls-9" d="M55.31,67.27l.58-.41h0a.28.28,0,0,1,.38.07.27.27,0,0,1-.07.37h0l-.59.41a.27.27,0,0,1-.37-.07.27.27,0,0,1,.06-.36Z" transform="translate(-0.37 -5.3)"/><path class="cls-9" d="M57.24,65.88l.57-.43h0a.28.28,0,0,1,.34.44h0l-.58.43a.28.28,0,1,1-.33-.44Z" transform="translate(-0.37 -5.3)"/><path class="cls-9" d="M59.13,64.43l.55-.45h0a.29.29,0,0,1,.4,0,.3.3,0,0,1,0,.41h0l-.57.44a.28.28,0,1,1-.36-.44Z" transform="translate(-0.37 -5.3)"/><path class="cls-9" d="M61,62.91l.54-.46h0a.3.3,0,0,1,.42,0,.29.29,0,0,1,0,.42h0l-.55.46a.3.3,0,0,1-.42,0,.31.31,0,0,1,0-.42Z" transform="translate(-0.37 -5.3)"/><path class="cls-9" d="M62.76,61.34l.52-.48h0a.3.3,0,0,1,.43,0,.3.3,0,0,1,0,.44h0l-.53.49a.31.31,0,0,1-.44,0,.3.3,0,0,1,0-.43Z" transform="translate(-0.37 -5.3)"/><path class="cls-9" d="M64.5,59.71l.51-.5h0a.32.32,0,0,1,.45.46h0l-.52.5a.31.31,0,0,1-.44,0,.33.33,0,0,1,0-.45Z" transform="translate(-0.37 -5.3)"/><path class="cls-9" d="M66.18,58l.5-.52h0a.33.33,0,1,1,.48.46h0l-.5.52a.33.33,0,0,1-.47-.46Z" transform="translate(-0.37 -5.3)"/><path class="cls-9" d="M67.81,56.29l.48-.53h0a.34.34,0,0,1,.48,0,.34.34,0,0,1,0,.48h0l-.49.53a.34.34,0,0,1-.48,0,.34.34,0,0,1,0-.47Z" transform="translate(-0.37 -5.3)"/><path class="cls-9" d="M69.38,54.51l.46-.55h0a.35.35,0,0,1,.53.45h0l-.47.55a.35.35,0,0,1-.49,0,.36.36,0,0,1,0-.49Z" transform="translate(-0.37 -5.3)"/><path class="cls-9" d="M58.16,37.3l-.67.26h0a.19.19,0,0,1-.14-.36h0L58,37a.2.2,0,0,1,.25.1.19.19,0,0,1-.11.25Z" transform="translate(-0.37 -5.3)"/><path class="cls-9" d="M56,38.2l-.66.28h0a.22.22,0,0,1-.27-.11.21.21,0,0,1,.11-.27h0l.66-.28a.21.21,0,0,1,.27.11.2.2,0,0,1-.11.26Z" transform="translate(-0.37 -5.3)"/><path class="cls-9" d="M53.77,39.17l-.65.31h0a.21.21,0,0,1-.28-.11.21.21,0,0,1,.1-.28h0l.66-.3a.21.21,0,0,1,.28.1.22.22,0,0,1-.11.28Z" transform="translate(-0.37 -5.3)"/><path class="cls-9" d="M51.63,40.21l-.64.33h0a.23.23,0,0,1-.31-.1.23.23,0,0,1,.1-.3h0l.65-.32a.22.22,0,0,1,.3.09.23.23,0,0,1-.1.3Z" transform="translate(-0.37 -5.3)"/><path class="cls-9" d="M49.52,41.32l-.63.35h0a.24.24,0,0,1-.32-.09.23.23,0,0,1,.09-.32h0l.63-.35a.23.23,0,0,1,.32.1.23.23,0,0,1-.09.31Z" transform="translate(-0.37 -5.3)"/><path class="cls-9" d="M47.44,42.5l-.61.37h0a.25.25,0,0,1-.34-.09.25.25,0,0,1,.08-.34h0l.62-.36a.24.24,0,0,1,.24.42Z" transform="translate(-0.37 -5.3)"/><path class="cls-9" d="M45.41,43.74l-.61.39h0a.26.26,0,0,1-.35-.08.25.25,0,0,1,.08-.35h0l.61-.38a.25.25,0,1,1,.27.43Z" transform="translate(-0.37 -5.3)"/><path class="cls-9" d="M43.41,45.05l-.59.4h0a.25.25,0,0,1-.37-.07.27.27,0,0,1,.07-.37h0l.6-.4a.27.27,0,0,1,.3.44Z" transform="translate(-0.37 -5.3)"/><path class="cls-9" d="M41.46,46.42l-.57.42h0a.27.27,0,0,1-.38-.06.27.27,0,0,1,.06-.39h0l.58-.42a.28.28,0,1,1,.32.45Z" transform="translate(-0.37 -5.3)"/><path class="cls-9" d="M39.56,47.85l-.57.44h0a.29.29,0,0,1-.35-.45h0l.57-.44a.29.29,0,0,1,.4.06.3.3,0,0,1,0,.4Z" transform="translate(-0.37 -5.3)"/><path class="cls-9" d="M37.7,49.34l-.55.46h0a.3.3,0,0,1-.39-.46h0l.56-.46a.3.3,0,0,1,.42,0,.31.31,0,0,1,0,.42Z" transform="translate(-0.37 -5.3)"/><path class="cls-9" d="M35.89,50.89l-.54.47h0a.31.31,0,0,1-.44,0,.31.31,0,0,1,0-.44h0l.54-.48a.31.31,0,0,1,.43,0,.3.3,0,0,1,0,.43Z" transform="translate(-0.37 -5.3)"/><path class="cls-9" d="M34.13,52.49l-.52.49h0a.32.32,0,1,1-.44-.46h0l.52-.49a.32.32,0,0,1,.45,0,.33.33,0,0,1,0,.45Z" transform="translate(-0.37 -5.3)"/><path class="cls-9" d="M32.42,54.15l-.5.51h0a.33.33,0,0,1-.48-.46h0l.51-.51a.33.33,0,0,1,.46.46Z" transform="translate(-0.37 -5.3)"/><path class="cls-9" d="M30.77,55.86l-.49.53h0a.34.34,0,1,1-.5-.46h0l.49-.53a.34.34,0,0,1,.48,0,.33.33,0,0,1,0,.47Z" transform="translate(-0.37 -5.3)"/><path class="cls-9" d="M29.17,57.63l-.47.54h0a.34.34,0,0,1-.49,0,.35.35,0,0,1,0-.5h0l.48-.54a.35.35,0,0,1,.52.46Z" transform="translate(-0.37 -5.3)"/><g class="cls-77"><rect class="cls-78" x="47.95" y="58.27" width="15.68" height="15.21" transform="translate(-29.04 42.78) rotate(-37.83)"/></g><path class="cls-9" d="M51.65,69.72a1,1,0,0,1-.71-.27.69.69,0,0,1-.23-.5v-4.9a.22.22,0,0,1,.22-.22.21.21,0,0,1,.21.22V69a.29.29,0,0,0,.1.19.63.63,0,0,0,.44.15l7.53-.35c.26,0,.47-.16.47-.34V63.79a.3.3,0,0,0-.1-.2.64.64,0,0,0-.46-.14l-6.26.48a.49.49,0,0,0-.44.26.24.24,0,0,0,.07.26L54.88,67a.63.63,0,0,0,.84,0l2.63-2.7a.21.21,0,0,1,.31,0,.2.2,0,0,1,0,.3L56,67.3a1.06,1.06,0,0,1-1.47,0l-2.39-2.55A.66.66,0,0,1,52,64a.92.92,0,0,1,.81-.53L59.09,63a1.09,1.09,0,0,1,.79.25.71.71,0,0,1,.23.52V68.6a.87.87,0,0,1-.88.78l-7.53.34h-.05" transform="translate(-0.37 -5.3)"/></g></g></svg>