<svg id="Capa_1" data-name="Capa 1" xmlns="http://www.w3.org/2000/svg" xmlns:xlink="http://www.w3.org/1999/xlink" viewBox="0 0 105 83.8"><defs><style>.cls-1{fill:none;}.cls-2{opacity:0.53;}.cls-3{clip-path:url(#clip-path);}.cls-4{fill:#f8b122;}.cls-5{clip-path:url(#clip-path-2);}.cls-6{fill:url(#Degradado_sin_nombre_2);}.cls-7{clip-path:url(#clip-path-4);}.cls-8{clip-path:url(#clip-path-5);}.cls-9{clip-path:url(#clip-path-6);}.cls-10{fill:url(#Degradado_sin_nombre_3);}.cls-11{clip-path:url(#clip-path-7);}.cls-12{fill:url(#Degradado_sin_nombre_21);}.cls-13{clip-path:url(#clip-path-8);}.cls-14{fill:url(#Degradado_sin_nombre_23);}.cls-15{clip-path:url(#clip-path-9);}.cls-16{fill:url(#Degradado_sin_nombre_6);}.cls-17{clip-path:url(#clip-path-11);}.cls-18{fill:url(#Degradado_sin_nombre_21-2);}.cls-19{clip-path:url(#clip-path-13);}.cls-20{fill:url(#Degradado_sin_nombre_22);}.cls-21{clip-path:url(#clip-path-14);}.cls-22{fill:url(#Degradado_sin_nombre_23-2);}.cls-23{clip-path:url(#clip-path-15);}.cls-24{fill:url(#Degradado_sin_nombre_21-3);}.cls-25{clip-path:url(#clip-path-16);}.cls-26{fill:url(#Degradado_sin_nombre_13);}.cls-27{clip-path:url(#clip-path-17);}.cls-28{fill:url(#Degradado_sin_nombre_23-3);}.cls-29{clip-path:url(#clip-path-18);}.cls-30{fill:url(#Degradado_sin_nombre_13-2);}.cls-31{clip-path:url(#clip-path-19);}.cls-32{fill:url(#Degradado_sin_nombre_23-4);}.cls-33{clip-path:url(#clip-path-20);}.cls-34{fill:url(#Degradado_sin_nombre_15);}.cls-35{clip-path:url(#clip-path-21);}.cls-36{fill:url(#Degradado_sin_nombre_21-4);}.cls-37{clip-path:url(#clip-path-22);}.cls-38{fill:url(#Degradado_sin_nombre_23-5);}.cls-39{clip-path:url(#clip-path-23);}.cls-40{fill:url(#Degradado_sin_nombre_21-5);}.cls-41{clip-path:url(#clip-path-24);}.cls-42{fill:url(#Degradado_sin_nombre_23-6);}.cls-43{clip-path:url(#clip-path-25);}.cls-44{fill:url(#Degradado_sin_nombre_21-6);}.cls-45{clip-path:url(#clip-path-26);}.cls-46{fill:url(#Degradado_sin_nombre_21-7);}.cls-47{clip-path:url(#clip-path-27);}.cls-48{fill:url(#Degradado_sin_nombre_22-2);}.cls-49{clip-path:url(#clip-path-28);}.cls-50{fill:url(#Degradado_sin_nombre_23-7);}.cls-51{clip-path:url(#clip-path-29);}.cls-52{fill:url(#Degradado_sin_nombre_28);}.cls-53{clip-path:url(#clip-path-30);}.cls-54{fill:url(#Degradado_sin_nombre_28-2);}.cls-55{clip-path:url(#clip-path-31);}.cls-56{fill:url(#Degradado_sin_nombre_28-3);}.cls-57{clip-path:url(#clip-path-32);}.cls-58{fill:url(#Degradado_sin_nombre_28-4);}.cls-59{clip-path:url(#clip-path-33);}.cls-60{fill:url(#Degradado_sin_nombre_28-5);}</style><clipPath id="clip-path" transform="translate(-0.32 -12)"><rect class="cls-1" x="5.89" y="12" width="89.11" height="71.85"/></clipPath><clipPath id="clip-path-2" transform="translate(-0.32 -12)"><path class="cls-1" d="M17.42,18.12C6.56,23.78.32,35.34,2.56,47.75a40,40,0,0,0,4,11.35A62.35,62.35,0,0,0,27.93,81.28c11.13,7,17,2.79,22.87-1.37,4.32-3.07,8.61-6.14,15-4.74,22,4.83,39.56-7.9,31-26.75C92.34,38.6,83,32,78.29,28.78c-11.9-8.32-28.3-14.61-43-14.61a38.4,38.4,0,0,0-17.83,4"/></clipPath><linearGradient id="Degradado_sin_nombre_2" x1="-907.9" y1="2297" x2="-907.69" y2="2297" gradientTransform="matrix(446.27, 0, 0, -446.27, 405169.65, 1025113.93)" gradientUnits="userSpaceOnUse"><stop offset="0" stop-color="#288b99"/><stop offset="1" stop-color="#31a36c"/></linearGradient><clipPath id="clip-path-4" transform="translate(-0.32 -12)"><rect class="cls-1" x="34.78" y="66.34" width="1.93" height="20.89"/></clipPath><clipPath id="clip-path-5" transform="translate(-0.32 -12)"><rect class="cls-1" x="27.29" y="86.37" width="16.92" height="1.26"/></clipPath><clipPath id="clip-path-6" transform="translate(-0.32 -12)"><rect class="cls-1" x="24.09" y="61.36" width="22.61" height="6.41" rx="2.21" ry="2.21"/></clipPath><linearGradient id="Degradado_sin_nombre_3" x1="-908.39" y1="2299.87" x2="-908.18" y2="2299.87" gradientTransform="translate(-299348.37 -118162.11) rotate(-90) scale(130.17)" gradientUnits="userSpaceOnUse"><stop offset="0" stop-color="#cb236d"/><stop offset="1" stop-color="#4c246d"/></linearGradient><clipPath id="clip-path-7" transform="translate(-0.32 -12)"><path class="cls-1" d="M44,84a15.24,15.24,0,0,0,1.74-.8l-1.32-.61A2.1,2.1,0,0,0,44,84"/></clipPath><linearGradient id="Degradado_sin_nombre_21" x1="-915.87" y1="2303.49" x2="-915.65" y2="2303.49" gradientTransform="matrix(-34.65, 0, 0, 34.65, -31687.38, -79741.64)" gradientUnits="userSpaceOnUse"><stop offset="0" stop-color="#2b3582"/><stop offset="1" stop-color="#150e42"/></linearGradient><clipPath id="clip-path-8" transform="translate(-0.32 -12)"><path class="cls-1" d="M44.77,82.8a1,1,0,0,0,.09.8A25.87,25.87,0,0,0,48,81.85l.14-.26-2.44-1.4Z"/></clipPath><linearGradient id="Degradado_sin_nombre_23" x1="-887.57" y1="2304.57" x2="-887.35" y2="2304.57" gradientTransform="matrix(15.65, 0, 0, -15.65, 13931.97, 36128.93)" gradientUnits="userSpaceOnUse"><stop offset="0" stop-color="#f9b776"/><stop offset="1" stop-color="#f47960"/></linearGradient><clipPath id="clip-path-9" transform="translate(-0.32 -12)"><path class="cls-1" d="M36.79,57.07l-2.3,5.08A30.71,30.71,0,0,1,46,66.48c4.77,3.14-.76,13.91-.76,13.91A6.61,6.61,0,0,0,48,81.87c.43-.27.85-.56,1.28-.85,2-3.3,8-14.06,3.86-17.84-4.86-4.49-16.19-6.46-16.19-6.46Z"/></clipPath><linearGradient id="Degradado_sin_nombre_6" x1="-906.6" y1="2294.91" x2="-906.39" y2="2294.91" gradientTransform="matrix(114.48, 0, 0, -114.48, 103828.87, 262794.58)" gradientUnits="userSpaceOnUse"><stop offset="0" stop-color="#2b3582"/><stop offset="0.23" stop-color="#252a70"/><stop offset="0.73" stop-color="#19164f"/><stop offset="1" stop-color="#150e42"/></linearGradient><clipPath id="clip-path-11" transform="translate(-0.32 -12)"><path class="cls-1" d="M50.1,88.69c-1.21-.56-4.64-3-5.22-3.07s-1.59.58-1.59.58a1.57,1.57,0,0,0,0,1.2,10.84,10.84,0,0,0,5,3.53,4.21,4.21,0,0,0,3.78-.52,5.1,5.1,0,0,0-2-1.72"/></clipPath><linearGradient id="Degradado_sin_nombre_21-2" x1="-912.34" y1="2298.93" x2="-912.12" y2="2298.93" gradientTransform="matrix(-89.64, 0, 0, 89.64, -81729.72, -205980.83)" xlink:href="#Degradado_sin_nombre_21"/><clipPath id="clip-path-13" transform="translate(-0.32 -12)"><path class="cls-1" d="M48.31,90.93a10.84,10.84,0,0,1-5-3.53,4.87,4.87,0,0,0,1.45,2,12.31,12.31,0,0,0,7.16,2.5c.7-.11.64-.76.17-1.46a4.21,4.21,0,0,1-3.78.52"/></clipPath><linearGradient id="Degradado_sin_nombre_22" x1="-900.91" y1="2300.45" x2="-900.69" y2="2300.45" gradientTransform="matrix(42.07, 0, 0, -42.07, 37947.28, 96865.25)" gradientUnits="userSpaceOnUse"><stop offset="0" stop-color="#53d8ff"/><stop offset="1" stop-color="#3840f7"/></linearGradient><clipPath id="clip-path-14" transform="translate(-0.32 -12)"><path class="cls-1" d="M42.27,84.5v0a15.48,15.48,0,0,0,2.42-.87l0-.16Z"/></clipPath><linearGradient id="Degradado_sin_nombre_23-2" x1="-885.56" y1="2305.9" x2="-885.34" y2="2305.9" gradientTransform="matrix(14.68, 0, 0, -14.68, 13046.2, 33933.66)" xlink:href="#Degradado_sin_nombre_23"/><clipPath id="clip-path-15" transform="translate(-0.32 -12)"><path class="cls-1" d="M26,62.1c2.52,2,8.52,4.35,9.86,8.42,1.25,3.79,3.3,10.89,6,14.13a16.29,16.29,0,0,0,3.44-1.27c-.42-2.79-1.79-11.44-2.74-14S40.13,63,37.33,60.87c-.8-.61-.66-1.57-.29-2.5l.68-1.7L26,53.32s-2.51,6.73,0,8.78"/></clipPath><linearGradient id="Degradado_sin_nombre_21-3" x1="-907.93" y1="2294.06" x2="-907.72" y2="2294.06" gradientTransform="matrix(124.66, 0, 0, -124.66, 113203.63, 286047.93)" xlink:href="#Degradado_sin_nombre_21"/><clipPath id="clip-path-16" transform="translate(-0.32 -12)"><path class="cls-1" d="M43,45.82s.34,3.6,5.67,5.49a6.62,6.62,0,0,0,3.66.27,5.88,5.88,0,0,1-.1-3.53c-4.21.26-2.9-6.48-2.82-6.75Z"/></clipPath><linearGradient id="Degradado_sin_nombre_13" x1="-911.07" y1="2293.02" x2="-910.85" y2="2293.02" gradientTransform="matrix(0, -67.1, -67.1, 0, 153907.29, -61072.75)" gradientUnits="userSpaceOnUse"><stop offset="0" stop-color="#fdf53f"/><stop offset="1" stop-color="#d93c65"/></linearGradient><clipPath id="clip-path-17" transform="translate(-0.32 -12)"><path class="cls-1" d="M57,46a10.59,10.59,0,0,1-4.81,2,5.88,5.88,0,0,0,.1,3.53A9.07,9.07,0,0,0,57.1,48.5a.76.76,0,0,1,1-.12c.33.26.65.61.59,1-.11.73.74,1,.81.7a11.33,11.33,0,0,0-.3-1.85l2.37,2.37a1.17,1.17,0,0,0,1.51,0S62,47.12,60.39,46a2.71,2.71,0,0,0-1.57-.48A3.8,3.8,0,0,0,57,46"/></clipPath><linearGradient id="Degradado_sin_nombre_23-3" x1="-902.97" y1="2296.94" x2="-902.75" y2="2296.94" gradientTransform="matrix(51.23, 0, 0, -51.23, 46306.82, 117698.94)" xlink:href="#Degradado_sin_nombre_23"/><clipPath id="clip-path-18" transform="translate(-0.32 -12)"><path class="cls-1" d="M32.56,30.89C26.24,40.82,25.7,54,25.7,54a14,14,0,0,0,12,2.64C39.08,51.92,49,43.35,50,41.59a4.28,4.28,0,0,0,.08-3.73c-7.51-6.2-12.73-7.26-15.43-7.26a6.23,6.23,0,0,0-2.13.29"/></clipPath><linearGradient id="Degradado_sin_nombre_13-2" x1="-910.65" y1="2298.66" x2="-910.43" y2="2298.66" gradientTransform="matrix(-142.42, 0, 0, 142.42, -129646.69, -327337.62)" xlink:href="#Degradado_sin_nombre_13"/><clipPath id="clip-path-19" transform="translate(-0.32 -12)"><path class="cls-1" d="M41.67,32.36a1.19,1.19,0,0,0-.15,1.29,3.43,3.43,0,0,0,3.62,1.93,1.86,1.86,0,0,0,1.52-1l2.11-4.37L44.7,28.7Z"/></clipPath><linearGradient id="Degradado_sin_nombre_23-4" x1="-898.78" y1="2295.16" x2="-898.56" y2="2295.16" gradientTransform="matrix(33.99, 0, 0, -33.99, 30588.57, 78027.57)" xlink:href="#Degradado_sin_nombre_23"/><clipPath id="clip-path-20" transform="translate(-0.32 -12)"><path class="cls-1" d="M21,49.61a6.14,6.14,0,0,0,2.2,2.59,9.7,9.7,0,0,1,4.66-5.62c-.71-2.91,6.51-9.37,6.51-9.37l-1.76-6.32S17,41.26,21,49.61"/></clipPath><linearGradient id="Degradado_sin_nombre_15" x1="-907.68" y1="2300.31" x2="-907.46" y2="2300.31" gradientTransform="matrix(0, 117.48, 117.48, 0, -270213.65, 106656.87)" gradientUnits="userSpaceOnUse"><stop offset="0" stop-color="#fdf53f"/><stop offset="0.42" stop-color="#fdf53f"/><stop offset="1" stop-color="#d93c65"/></linearGradient><clipPath id="clip-path-21" transform="translate(-0.32 -12)"><path class="cls-1" d="M34.2,36.49c-.3.26-7.29,6.57-6.56,9.53a.17.17,0,0,0,.17.13h0a.17.17,0,0,0,.12-.21c-.68-2.77,6.38-9.14,6.46-9.2a.17.17,0,0,0,0-.24.18.18,0,0,0-.13-.06.16.16,0,0,0-.11.05"/></clipPath><linearGradient id="Degradado_sin_nombre_21-4" x1="-907.03" y1="2302.3" x2="-906.82" y2="2302.3" gradientTransform="matrix(0, 70.97, 70.97, 0, -163364.5, 64398.41)" xlink:href="#Degradado_sin_nombre_21"/><clipPath id="clip-path-22" transform="translate(-0.32 -12)"><path class="cls-1" d="M45.49,24.19c-.8,1-.48,4.31-.48,4.31a4.73,4.73,0,0,0,3.69,4.4c2.2.5,2.3-.81,2.94-2.62a23.64,23.64,0,0,0,.59-5.8,31.54,31.54,0,0,0-5.12-.66,2.34,2.34,0,0,0-1.62.37"/></clipPath><linearGradient id="Degradado_sin_nombre_23-5" x1="-914.33" y1="2299.94" x2="-914.12" y2="2299.94" gradientTransform="matrix(-52.79, 0, 0, 52.79, -48213.54, -121378.87)" xlink:href="#Degradado_sin_nombre_23"/><clipPath id="clip-path-23" transform="translate(-0.32 -12)"><path class="cls-1" d="M44.71,22.6a.15.15,0,0,1-.26,0c-.14-.2-.41-.38-1-.21-.94.29-1.29,1.93-.3,3.81a.15.15,0,0,1-.1.22c-.35.06-.94.32-.11,1.33a3.07,3.07,0,0,0,1.78,1.29.16.16,0,0,0,.17-.1l.55-1.59a.16.16,0,0,1,.2-.09l.55.23.26.11s-.14-2.63,1-2.62,5.13.81,6.48-.17a2.66,2.66,0,0,0,.47-3.77.16.16,0,0,0-.2,0l-.16.13a.15.15,0,0,1-.24-.13.15.15,0,0,0-.23-.15c-.42.29-1.35.66-3.26.24A10.72,10.72,0,0,0,48,20.87c-1.6,0-2.79.52-3.33,1.73"/></clipPath><linearGradient id="Degradado_sin_nombre_21-5" x1="-905.98" y1="2301.63" x2="-905.76" y2="2301.63" gradientTransform="matrix(0, 61.89, 61.89, 0, -142393.43, 56088.68)" xlink:href="#Degradado_sin_nombre_21"/><clipPath id="clip-path-24" transform="translate(-0.32 -12)"><path class="cls-1" d="M45.3,25.68c-1.22.2-.51,2.63.23,3l.64-.84s.32-2.2-.73-2.2H45.3"/></clipPath><linearGradient id="Degradado_sin_nombre_23-6" x1="-914.33" y1="2300.06" x2="-914.12" y2="2300.06" gradientTransform="matrix(-52.79, 0, 0, 52.79, -48212.8, -121387.26)" xlink:href="#Degradado_sin_nombre_23"/><clipPath id="clip-path-25" transform="translate(-0.32 -12)"><path class="cls-1" d="M61.12,51.25l-17.95,0a.81.81,0,0,0,0,1.61h0l17.95,0a.8.8,0,0,0,.8-.81.79.79,0,0,0-.79-.8h0"/></clipPath><linearGradient id="Degradado_sin_nombre_21-6" x1="-904.14" y1="2295.48" x2="-903.92" y2="2295.48" gradientTransform="matrix(0, 69.09, -69.09, 0, 158638.29, 62502.67)" xlink:href="#Degradado_sin_nombre_21"/><clipPath id="clip-path-26" transform="translate(-0.32 -12)"><path class="cls-1" d="M62.31,36.58a2.84,2.84,0,0,0-2.58,1.63L52.82,52.87H71.4A1.74,1.74,0,0,0,73,51.77l5.36-13.56a1.19,1.19,0,0,0-1.11-1.63Z"/></clipPath><linearGradient id="Degradado_sin_nombre_21-7" x1="-905.78" y1="2294.41" x2="-905.56" y2="2294.41" gradientTransform="translate(157891.71 62342.45) rotate(90) scale(68.79)" xlink:href="#Degradado_sin_nombre_21"/><clipPath id="clip-path-27" transform="translate(-0.32 -12)"><path class="cls-1" d="M66.72,44.09c-.32,1-.08,2,.54,2.19s1.38-.46,1.71-1.47.08-2-.54-2.18a.85.85,0,0,0-.23,0c-.57,0-1.19.62-1.48,1.5"/></clipPath><linearGradient id="Degradado_sin_nombre_22-2" x1="-904.69" y1="2291.84" x2="-904.47" y2="2291.84" gradientTransform="translate(88935.48 35121.02) rotate(90) scale(38.78)" xlink:href="#Degradado_sin_nombre_22"/><clipPath id="clip-path-28" transform="translate(-0.32 -12)"><path class="cls-1" d="M38.74,46.33s-8.55,3.32-10.64.82a1.4,1.4,0,0,1-.29-.57,9.7,9.7,0,0,0-4.66,5.62c4.5,2.87,12.2-1.6,14.28-2.92a1.53,1.53,0,0,1,1.14-.21,10.73,10.73,0,0,0,2.94.3c.48-.08,1.06.64,1.71,1.36.82.9,1.74,1.8,2.73,1.13,0,0-1.29-5.67-5.92-5.67a6,6,0,0,0-1.29.14"/></clipPath><linearGradient id="Degradado_sin_nombre_23-7" x1="-909.69" y1="2298.22" x2="-909.47" y2="2298.22" gradientTransform="matrix(-260.88, 0, 0, 260.88, -237285.03, -599516.62)" xlink:href="#Degradado_sin_nombre_23"/><clipPath id="clip-path-29" transform="translate(-0.32 -12)"><path class="cls-1" d="M61.84,54.37a.72.72,0,0,0-.4,1L70.61,76q.86.09,1.71.15L62.83,54.75a.77.77,0,0,0-1-.38"/></clipPath><linearGradient id="Degradado_sin_nombre_28" x1="-911.67" y1="2298.15" x2="-911.45" y2="2298.15" gradientTransform="translate(-72702.01 183520.29) rotate(180) scale(79.83)" gradientUnits="userSpaceOnUse"><stop offset="0" stop-color="#18459f"/><stop offset="1" stop-color="#2874b5"/></linearGradient><clipPath id="clip-path-30" transform="translate(-0.32 -12)"><path class="cls-1" d="M75.26,54.75l-9.11,20.5,1.52.3,9-20.22a.75.75,0,0,0-.69-1,.77.77,0,0,0-.7.44"/></clipPath><linearGradient id="Degradado_sin_nombre_28-2" x1="-911.76" y1="2298.16" x2="-911.54" y2="2298.16" gradientTransform="translate(-72711.31 183520.51) rotate(180) scale(79.83)" xlink:href="#Degradado_sin_nombre_28"/><clipPath id="clip-path-31" transform="translate(-0.32 -12)"><path class="cls-1" d="M12.86,54.37a.72.72,0,0,0-.39,1l9.74,21.91q1.18.95,2.46,1.86L13.86,54.75a.79.79,0,0,0-.7-.44.8.8,0,0,0-.3.06"/></clipPath><linearGradient id="Degradado_sin_nombre_28-3" x1="-913.88" y1="2298.13" x2="-913.66" y2="2298.13" gradientTransform="translate(-72927.59 183520.25) rotate(180) scale(79.83)" xlink:href="#Degradado_sin_nombre_28"/><clipPath id="clip-path-32" transform="translate(-0.32 -12)"><path class="cls-1" d="M26.29,54.75l-8.35,18.8c.37.36.76.72,1.16,1.08l8.58-19.3a.73.73,0,0,0-.4-1,.8.8,0,0,0-.3-.06.76.76,0,0,0-.69.44"/></clipPath><linearGradient id="Degradado_sin_nombre_28-4" x1="-913.97" y1="2298.16" x2="-913.75" y2="2298.16" gradientTransform="translate(-72936.8 183520.23) rotate(180) scale(79.83)" xlink:href="#Degradado_sin_nombre_28"/><clipPath id="clip-path-33" transform="translate(-0.32 -12)"><path class="cls-1" d="M10,52.71a.68.68,0,0,0-.55.29.87.87,0,0,0-.15.65l.39,2.21a.85.85,0,0,0,.81.75H81a1.09,1.09,0,0,0,1-.71L82.72,54a1,1,0,0,0,0-.88.8.8,0,0,0-.69-.42Z"/></clipPath><linearGradient id="Degradado_sin_nombre_28-5" x1="-909.58" y1="2297.06" x2="-909.37" y2="2297.06" gradientTransform="translate(-307908.46 777839.66) rotate(180) scale(338.61)" xlink:href="#Degradado_sin_nombre_28"/></defs><title>ilustracion-landing-1</title><g class="cls-2"><g class="cls-3"><path class="cls-4" d="M91.26,60.72c-9,17-32.85,24.24-51.52,23-5.1-.34-15.36-1-23.36-7.11C1,64.92,3.36,40.49,18.09,26.1a50.95,50.95,0,0,1,62.23-6.33,37.16,37.16,0,0,1,8.38,7.64c7.54,9.48,8.2,22.71,2.56,33.31" transform="translate(-0.32 -12)"/></g></g><g class="cls-5"><rect class="cls-6" y="2.17" width="105" height="74.06"/></g><g class="cls-5"><g class="cls-2"><g class="cls-7"><rect class="cls-4" x="34.46" y="54.34" width="1.93" height="20.89"/></g></g><g class="cls-2"><g class="cls-8"><path class="cls-4" d="M27.29,87.63H44.2v-.95a.3.3,0,0,0-.3-.31H27.62a.33.33,0,0,0-.33.33Z" transform="translate(-0.32 -12)"/></g></g></g><g class="cls-9"><rect class="cls-10" x="23.73" y="59.63" width="23.33" height="9.88" transform="translate(-10.02 -5.64) rotate(-9.03)"/></g><g class="cls-11"><rect class="cls-12" x="43.85" y="82.17" width="2.05" height="2.19" transform="translate(-50.01 73.52) rotate(-63.05)"/></g><g class="cls-13"><rect class="cls-14" x="44.36" y="68.19" width="3.44" height="3.41"/></g><g class="cls-15"><rect class="cls-16" x="29.01" y="52.76" width="33.65" height="33.08" transform="translate(-37.52 54.36) rotate(-54.49)"/></g><g class="cls-5"><g class="cls-17"><rect class="cls-18" x="42.47" y="83.09" width="10.2" height="10.78" transform="translate(-51.93 60.52) rotate(-52.59)"/></g></g><g class="cls-5"><g class="cls-19"><rect class="cls-20" x="42.99" y="75.4" width="9.31" height="4.6"/></g></g><g class="cls-21"><rect class="cls-22" x="41.95" y="71.52" width="2.43" height="1.02"/></g><g class="cls-23"><rect class="cls-24" x="18.42" y="57.61" width="31.95" height="22.76" transform="translate(-35.89 89.34) rotate(-88.32)"/></g><g class="cls-25"><rect class="cls-26" x="40.91" y="39.61" width="13.52" height="13.88" transform="translate(-17.89 20.99) rotate(-32.57)"/></g><g class="cls-27"><rect class="cls-28" x="51.55" y="33.54" width="11.26" height="6.04"/></g><g class="cls-29"><rect class="cls-30" x="19.89" y="25.81" width="36.98" height="37.56" transform="translate(-19.2 19.11) rotate(-36.03)"/></g><g class="cls-31"><rect class="cls-32" x="40.99" y="16.7" width="7.47" height="7.06"/></g><g class="cls-33"><rect class="cls-34" x="15.49" y="29.72" width="20.31" height="23.65" transform="translate(-6.21 -7.72) rotate(-8.55)"/></g><g class="cls-35"><rect class="cls-36" x="26.26" y="35.95" width="8.9" height="10.7" transform="translate(-5.92 -7.17) rotate(-8.25)"/></g><g class="cls-37"><rect class="cls-38" x="43.6" y="23.02" width="9.77" height="11.19" transform="translate(-5.98 1.19) rotate(-14.65)"/></g><g class="cls-39"><rect class="cls-40" x="41.32" y="19.28" width="14.76" height="11.35" transform="translate(-5.13 1.51) rotate(-15.06)"/></g><g class="cls-41"><rect class="cls-42" x="43.73" y="25.42" width="3.1" height="3.55" transform="translate(-5.72 0.33) rotate(-14.65)"/></g><g class="cls-43"><rect class="cls-44" x="48.32" y="42.52" width="7.64" height="19.09" transform="translate(-13.9 73.38) rotate(-71.84)"/></g><g class="cls-45"><rect class="cls-46" x="50.76" y="29.92" width="29.98" height="29.6" transform="translate(-13.07 45.42) rotate(-43.41)"/></g><g class="cls-47"><rect class="cls-48" x="65.57" y="42.12" width="4.55" height="4.83" transform="translate(-13.63 32.97) rotate(-33.59)"/></g><g class="cls-49"><rect class="cls-50" x="25.02" y="38.54" width="19.07" height="24.19" transform="translate(-26.89 43.32) rotate(-60.08)"/></g><g class="cls-51"><rect class="cls-52" x="60.96" y="42.31" width="11.04" height="21.8"/></g><g class="cls-53"><rect class="cls-54" x="65.84" y="42.31" width="10.66" height="21.23"/></g><g class="cls-55"><rect class="cls-56" x="11.99" y="42.31" width="12.37" height="24.79"/></g><g class="cls-57"><rect class="cls-58" x="17.62" y="42.31" width="9.9" height="20.31"/></g><g class="cls-59"><rect class="cls-60" x="8.95" y="40.71" width="73.58" height="3.9"/></g></svg>