<svg id="Capa_2" data-name="Capa 2" xmlns="http://www.w3.org/2000/svg" xmlns:xlink="http://www.w3.org/1999/xlink" viewBox="0 0 110.93 82.7"><defs><style>.cls-1{fill:none;}.cls-2{opacity:0.53;}.cls-3{clip-path:url(#clip-path);}.cls-4{fill:#f8b122;}.cls-5{clip-path:url(#clip-path-2);}.cls-6{fill:url(#Degradado_sin_nombre_61);}.cls-7{clip-path:url(#clip-path-3);}.cls-8{fill:url(#Degradado_sin_nombre_78);}.cls-9{clip-path:url(#clip-path-4);}.cls-10{fill:url(#Degradado_sin_nombre_78-2);}.cls-11{clip-path:url(#clip-path-5);}.cls-12{fill:url(#Degradado_sin_nombre_77);}.cls-13{clip-path:url(#clip-path-6);}.cls-14{fill:#fff;}.cls-15{clip-path:url(#clip-path-7);}.cls-16{fill:url(#Degradado_sin_nombre_75);}.cls-17{clip-path:url(#clip-path-8);}.cls-18{fill:url(#Degradado_sin_nombre_66);}.cls-19{clip-path:url(#clip-path-9);}.cls-20{fill:url(#Degradado_sin_nombre_78-3);}.cls-21{clip-path:url(#clip-path-10);}.cls-22{fill:url(#Degradado_sin_nombre_78-4);}.cls-23{clip-path:url(#clip-path-11);}.cls-24{fill:url(#Degradado_sin_nombre_78-5);}.cls-25{clip-path:url(#clip-path-12);}.cls-26{fill:url(#Degradado_sin_nombre_77-2);}.cls-27{clip-path:url(#clip-path-13);}.cls-28{fill:url(#Degradado_sin_nombre_78-6);}.cls-29{clip-path:url(#clip-path-14);}.cls-30{fill:url(#Degradado_sin_nombre_77-3);}.cls-31{clip-path:url(#clip-path-15);}.cls-32{fill:url(#Degradado_sin_nombre_75-2);}.cls-33{clip-path:url(#clip-path-16);}.cls-34{fill:url(#Degradado_sin_nombre_75-3);}.cls-35{clip-path:url(#clip-path-17);}.cls-36{fill:url(#Degradado_sin_nombre_75-4);}.cls-37{clip-path:url(#clip-path-18);}.cls-38{fill:url(#Degradado_sin_nombre_77-4);}.cls-39{clip-path:url(#clip-path-19);}.cls-40{fill:url(#Degradado_sin_nombre_77-5);}.cls-41{clip-path:url(#clip-path-21);}.cls-42{fill:url(#Degradado_sin_nombre_78-7);}</style><clipPath id="clip-path" transform="translate(-0.53 -9.07)"><rect class="cls-1" x="6.23" y="9.07" width="87.26" height="79.93"/></clipPath><clipPath id="clip-path-2" transform="translate(-0.53 -9.07)"><path class="cls-1" d="M19.33,19.35A39.8,39.8,0,0,0,10,26.66C1.5,35.78.53,48.71,6.55,59.2,16.17,76,42.25,83.59,62.81,82.75c5.62-.23,16.91-.68,25.83-6.48C105.78,65.15,98,45.21,77.1,37.52c-14.18-5.23-5.69-25-28.19-25.22h-.7a61.48,61.48,0,0,0-28.88,7.05"/></clipPath><linearGradient id="Degradado_sin_nombre_61" x1="-909.31" y1="2297.98" x2="-909.09" y2="2297.98" gradientTransform="matrix(423.31, 0, 0, -423.31, 384922.07, 972793.19)" gradientUnits="userSpaceOnUse"><stop offset="0" stop-color="#288b99"/><stop offset="0.04" stop-color="#2a8f91"/><stop offset="0.15" stop-color="#2d9880"/><stop offset="0.28" stop-color="#2f9e75"/><stop offset="0.47" stop-color="#31a26e"/><stop offset="1" stop-color="#31a36c"/></linearGradient><clipPath id="clip-path-3" transform="translate(-0.53 -9.07)"><path class="cls-1" d="M49.72,61.84c2.16,3.58,16.6-8.41,16.6-8.41l-4.15-7.77S47.59,58.3,49.72,61.84"/></clipPath><linearGradient id="Degradado_sin_nombre_78" x1="-913.61" y1="2298.92" x2="-913.39" y2="2298.92" gradientTransform="translate(-311627.44 -124130.43) rotate(-90) scale(135.58)" gradientUnits="userSpaceOnUse"><stop offset="0" stop-color="#f9b776"/><stop offset="1" stop-color="#f47960"/></linearGradient><clipPath id="clip-path-4" transform="translate(-0.53 -9.07)"><path class="cls-1" d="M47,47.15s-.32,13.39,2.53,15.07,4.89-1.89,4.07-4.43-3.4-11.7-3.4-11.7Z"/></clipPath><linearGradient id="Degradado_sin_nombre_78-2" x1="-917.39" y1="2300.21" x2="-917.17" y2="2300.21" gradientTransform="matrix(0, -125.18, 125.18, 0, -287890.43, -115188.71)" xlink:href="#Degradado_sin_nombre_78"/><clipPath id="clip-path-5" transform="translate(-0.53 -9.07)"><path class="cls-1" d="M64.29,24.57a6.88,6.88,0,0,0-3.63,7.28c1.3,1.38,5.93-1.56,5.93-1.56l1.93,3.07c-.54.24-1.13.5-1.77.81-4.37,2.13-4.83,18.73-2.38,21.38s2.9,5.19.42,9.54-1.05,10,12.15,14.72a11.85,11.85,0,0,0,7.47,0c4.63-1.87,7.18-7.34,7.3-12,.06-2.39-1.3-4.22-2.48-6.17a9.44,9.44,0,0,1-1.31-6.88c.67-4.32.15-9.12-2.62-12.67-2.63-3.36-7.35-3.66-10.24-6.66l-.18-.27a7.41,7.41,0,0,1-1.17-3.79c-.2-5.84-3.22-7.59-6-7.59a7.35,7.35,0,0,0-3.39.84"/></clipPath><linearGradient id="Degradado_sin_nombre_77" x1="-912.62" y1="2295.24" x2="-912.4" y2="2295.24" gradientTransform="matrix(0, 105.54, 105.54, 0, -242159.18, 96322.04)" gradientUnits="userSpaceOnUse"><stop offset="0" stop-color="#2b3582"/><stop offset="1" stop-color="#150e42"/></linearGradient><clipPath id="clip-path-6" transform="translate(-0.53 -9.07)"><path class="cls-1" d="M25.28,21.27A38,38,0,0,0,19,26.66a27.65,27.65,0,0,0-3.65,4.91l.31,27.77C25.32,76,51.32,83.58,71.82,82.75c4.94-.2,14.28-.58,22.53-4.61L95,42a41.92,41.92,0,0,0-8.9-4.51c-8.64-3.18-8.87-11.74-12.8-18Z"/></clipPath><clipPath id="clip-path-7" transform="translate(-0.53 -9.07)"><path class="cls-1" d="M63.16,76.18c-.87.94-1.55,3.56-2.15,6.27a82.31,82.31,0,0,0,10.81.3c1.82-.07,4.25-.17,7-.47-1.43-5.33-3.77-6.13-5-7Z"/></clipPath><linearGradient id="Degradado_sin_nombre_75" x1="-904.42" y1="2303.12" x2="-904.2" y2="2303.12" gradientTransform="translate(-78282.53 199618.32) rotate(180) scale(86.64)" gradientUnits="userSpaceOnUse"><stop offset="0" stop-color="#288b99"/><stop offset="1" stop-color="#3840f7"/></linearGradient><clipPath id="clip-path-8" transform="translate(-0.53 -9.07)"><path class="cls-1" d="M61.92,45.23a1.88,1.88,0,0,0-1,.83C59.56,48.54,54,58.81,56.73,62.17c3.92,4.87,6.91,15.09,6.91,15.09,8.41,1.59,11.61-1.88,11.61-1.88-3.61-6.09-.82-19.93.14-25a3.09,3.09,0,0,0-1.14-3,12.73,12.73,0,0,0-8-2.92,12.34,12.34,0,0,0-4.32.78"/></clipPath><linearGradient id="Degradado_sin_nombre_66" x1="-904.97" y1="2302.39" x2="-904.75" y2="2302.39" gradientTransform="translate(-80274.79 204486.75) rotate(-180) scale(88.79)" gradientUnits="userSpaceOnUse"><stop offset="0" stop-color="#cb236d"/><stop offset="1" stop-color="#4c246d"/></linearGradient><clipPath id="clip-path-9" transform="translate(-0.53 -9.07)"><path class="cls-1" d="M64.07,36.15c.45,1.35.9,8.92.9,8.92a5.74,5.74,0,0,0,5.78.81C70.48,42.53,67.64,35,67.64,35Z"/></clipPath><linearGradient id="Degradado_sin_nombre_78-3" x1="-903.51" y1="2307.36" x2="-903.29" y2="2307.36" gradientTransform="matrix(46.27, 0, 0, -46.27, 41859.98, 106793.26)" xlink:href="#Degradado_sin_nombre_78"/><clipPath id="clip-path-10" transform="translate(-0.53 -9.07)"><path class="cls-1" d="M72.85,54.72a4.22,4.22,0,0,0,1.32,1.72c9.88,7.89,7.64,13.27,3.87,15.08-2.49,1.19-2.87.7-3.56.21a2.74,2.74,0,0,0-1.84-.52c-2.77,0-4.85,4.76-2.5,3.91s4.38,1.34,4.38,1.34,14.63-1.34,12.3-11S75.76,48.79,75.76,48.79a4,4,0,0,0-1.86-.58c-2.05,0-2.64,2.76-1.05,6.51"/></clipPath><linearGradient id="Degradado_sin_nombre_78-4" x1="-911.35" y1="2299.75" x2="-911.13" y2="2299.75" gradientTransform="translate(-141154.48 356507.57) rotate(180) scale(154.99)" xlink:href="#Degradado_sin_nombre_78"/><clipPath id="clip-path-11" transform="translate(-0.53 -9.07)"><path class="cls-1" d="M62.13,30.46s-3.67,9.15.38,10.55,6.67-5.11,6.67-5.11.19-4.56-1.59-5.65a3.69,3.69,0,0,0-1.94-.44,12.21,12.21,0,0,0-3.52.65"/></clipPath><linearGradient id="Degradado_sin_nombre_78-5" x1="-915.45" y1="2296.71" x2="-915.23" y2="2296.71" gradientTransform="matrix(49.41, 57.91, 60.31, -47.2, -93210.95, 161450.7)" xlink:href="#Degradado_sin_nombre_78"/><clipPath id="clip-path-12" transform="translate(-0.53 -9.07)"><path class="cls-1" d="M62,27.64s-1.83,2.12-1.45,3.5,4.41.12,5.39-.48l3.53,4.19s-.32-6-2.72-8a2.89,2.89,0,0,0-1.86-.71A4.42,4.42,0,0,0,62,27.64"/></clipPath><linearGradient id="Degradado_sin_nombre_77-2" x1="-912.29" y1="2295.05" x2="-912.07" y2="2295.05" gradientTransform="matrix(41.13, 106.54, 91.47, -38.39, -172342.44, 185306.67)" xlink:href="#Degradado_sin_nombre_77"/><clipPath id="clip-path-13" transform="translate(-0.53 -9.07)"><path class="cls-1" d="M67.91,35.61l.43,1.15c1.22.55,3.8-1.39,2.47-2.79a1.05,1.05,0,0,0-.76-.37c-1.1,0-2.14,2-2.14,2"/></clipPath><linearGradient id="Degradado_sin_nombre_78-6" x1="-915.45" y1="2296.56" x2="-915.23" y2="2296.56" gradientTransform="matrix(49.41, 57.91, 60.31, -47.2, -93196.58, 161438.25)" xlink:href="#Degradado_sin_nombre_78"/><clipPath id="clip-path-14" transform="translate(-0.53 -9.07)"><path class="cls-1" d="M50.79,40.7s-4.51,7.94-4.7,9.86,3.67,3.38,5,1.09c1.14-2,4.74-11.48,4.74-11.48Z"/></clipPath><linearGradient id="Degradado_sin_nombre_77-3" x1="-899.83" y1="2297.06" x2="-899.6" y2="2297.06" gradientTransform="translate(-134342.48 -52590.8) rotate(-90) scale(58.51)" xlink:href="#Degradado_sin_nombre_77"/><clipPath id="clip-path-15" transform="translate(-0.53 -9.07)"><polygon class="cls-1" points="28.79 46.49 51.56 41.41 50.95 33.25 28.56 25.48 28.79 46.49"/></clipPath><linearGradient id="Degradado_sin_nombre_75-2" x1="-910.29" y1="2300.11" x2="-910.07" y2="2300.11" gradientTransform="translate(-118294.43 299064.04) rotate(-180) scale(130.01)" xlink:href="#Degradado_sin_nombre_75"/><clipPath id="clip-path-16" transform="translate(-0.53 -9.07)"><path class="cls-1" d="M26.34,36.05c0,6,1,10.8,2.2,10.8s2.2-4.84,2.2-10.8-1-10.8-2.2-10.8-2.2,4.84-2.2,10.8"/></clipPath><linearGradient id="Degradado_sin_nombre_75-3" x1="-913.3" y1="2293.3" x2="-913.07" y2="2293.3" gradientTransform="matrix(0, 70.22, -70.22, 0, 161070.24, 64156.91)" xlink:href="#Degradado_sin_nombre_75"/><clipPath id="clip-path-17" transform="translate(-0.53 -9.07)"><path class="cls-1" d="M27.37,28.87A41,41,0,0,0,26.81,36a41,41,0,0,0,.56,7.12,6.72,6.72,0,0,0,1,3,6.72,6.72,0,0,0,1-3A41,41,0,0,0,29.93,36a41,41,0,0,0-.56-7.12,6.72,6.72,0,0,0-1-3,6.72,6.72,0,0,0-1,3"/></clipPath><linearGradient id="Degradado_sin_nombre_75-4" x1="-898.85" y1="2310.63" x2="-898.63" y2="2310.63" gradientTransform="translate(-59649.32 -23176.36) rotate(-90) scale(25.83)" xlink:href="#Degradado_sin_nombre_75"/><clipPath id="clip-path-18" transform="translate(-0.53 -9.07)"><path class="cls-1" d="M25.55,35.91c0,1.83,1,3.32,2.94,3.32A3.72,3.72,0,0,0,29.84,39c.06-1,.09-2,.09-3s0-2.15-.1-3.16a3.67,3.67,0,0,0-1.34-.24c-1.95,0-2.94,1.48-2.94,3.32"/></clipPath><linearGradient id="Degradado_sin_nombre_77-4" x1="-912.24" y1="2291.82" x2="-912.01" y2="2291.82" gradientTransform="translate(159272.6 63417.58) rotate(90) scale(69.48)" xlink:href="#Degradado_sin_nombre_77"/><clipPath id="clip-path-19" transform="translate(-0.53 -9.07)"><path class="cls-1" d="M50.37,33a22.46,22.46,0,0,1-.17,8.78h4.61a1.49,1.49,0,0,0,1.47-1.26,21.31,21.31,0,0,0,.22-5.86,2.24,2.24,0,0,0-1.94-1.87,13.24,13.24,0,0,0-1.51-.08,12,12,0,0,0-2.68.29"/></clipPath><linearGradient id="Degradado_sin_nombre_77-5" x1="-903.12" y1="2292.02" x2="-902.89" y2="2292.02" gradientTransform="translate(58248.31 -147665.6) scale(64.44)" xlink:href="#Degradado_sin_nombre_77"/><clipPath id="clip-path-21" transform="translate(-0.53 -9.07)"><path class="cls-1" d="M48.85,44c-1.65,1.11-2.5,3.52-2.27,3.7s8.79.12,5.24-3a2.68,2.68,0,0,0-1.89-1.07,2,2,0,0,0-1.08.35"/></clipPath><linearGradient id="Degradado_sin_nombre_78-7" x1="-893.46" y1="2310.06" x2="-893.23" y2="2310.06" gradientTransform="translate(-58046.2 -22422.46) rotate(-90) scale(25.15)" xlink:href="#Degradado_sin_nombre_78"/></defs><title>ilustracion-landing-2</title><g class="cls-2"><g class="cls-3"><path class="cls-4" d="M16.34,77.76a30.48,30.48,0,0,0,4.83,3.7C36.91,91.76,55.54,88.76,59.5,88c5.85-1.09,17.15-3.18,25.32-11.94C97.19,62.83,95.26,42,85.67,28.16c-1.75-2.52-11-16.51-29.85-18.76C44.43,8,31.14,10.78,21.52,18.13,1.33,33.56,2.76,64.72,16.34,77.76" transform="translate(-0.53 -9.07)"/></g></g><g class="cls-5"><rect class="cls-6" y="3.23" width="105.24" height="71.29"/></g><g class="cls-7"><rect class="cls-8" x="44.05" y="42.88" width="25.82" height="25.33" transform="translate(-17.99 74.61) rotate(-64.99)"/></g><g class="cls-9"><rect class="cls-10" x="41.24" y="50.19" width="18.52" height="9.59" transform="translate(-10.07 90.3) rotate(-83.91)"/></g><g class="cls-11"><rect class="cls-12" x="50.19" y="19.79" width="51.04" height="64.8" transform="translate(-14.53 22.91) rotate(-21.88)"/></g><g class="cls-13"><path class="cls-14" d="M85.81,56.13s0,0,0,0c.54-6-1.31-9.94-3-12.2a11.58,11.58,0,0,0-5.58-4.34c-2.45-.63-3.59-3.49-3.6-3.51s0,0,0,0,0,0,0,0S74.82,39,77.3,39.62a11.64,11.64,0,0,1,5.55,4.32c1.64,2.25,3.48,6.18,2.94,12.16,0,0,0,0,0,0h0" transform="translate(-0.53 -9.07)"/><path class="cls-14" d="M83.66,77.21h0a8.94,8.94,0,0,0,2.62-1.74,8,8,0,0,0,2.56-6.1,0,0,0,0,0,0,0s0,0,0,0a8,8,0,0,1-2.54,6.06,9.05,9.05,0,0,1-2.61,1.73s0,0,0,0h0" transform="translate(-0.53 -9.07)"/></g><g class="cls-15"><rect class="cls-16" x="60.47" y="66.16" width="17.81" height="7.67"/></g><g class="cls-17"><rect class="cls-18" x="53.06" y="43.86" width="23.51" height="35.58" transform="translate(-3.93 -5.28) rotate(-3.26)"/></g><g class="cls-19"><rect class="cls-20" x="60.45" y="35.66" width="13.93" height="10.96" transform="translate(2.64 78.02) rotate(-66.97)"/></g><g class="cls-21"><rect class="cls-22" x="63.6" y="50.65" width="29.74" height="23.37" transform="translate(10.02 126.97) rotate(-85.8)"/></g><g class="cls-23"><polygon class="cls-24" points="64.47 15.62 75.29 28.3 62.3 38.47 51.48 25.79 64.47 15.62"/></g><g class="cls-25"><polygon class="cls-26" points="67.61 13.76 71.78 24.58 60.9 29.14 56.73 18.32 67.61 13.76"/></g><g class="cls-27"><polygon class="cls-28" points="69.92 22.55 73.51 26.76 69.07 30.23 65.48 26.02 69.92 22.55"/></g><g class="cls-29"><rect class="cls-30" x="42.77" y="38.57" width="16.19" height="16.97" transform="matrix(0.8, -0.6, 0.6, 0.8, -18.57, 30.66)"/></g><g class="cls-31"><rect class="cls-32" x="25.27" y="20.81" width="29.59" height="30.35" transform="translate(-11.47 44.23) rotate(-60.69)"/></g><g class="cls-33"><rect class="cls-34" x="17.72" y="29.86" width="21.63" height="12.37" transform="translate(-16.25 39.46) rotate(-67.38)"/></g><g class="cls-35"><rect class="cls-36" x="18.15" y="33.52" width="20.44" height="4.94" transform="translate(-10.57 51.92) rotate(-84.81)"/></g><g class="cls-37"><rect class="cls-38" x="24.3" y="33.53" width="6.88" height="4.75" transform="translate(-10.23 52.48) rotate(-86.72)"/></g><g class="cls-39"><rect class="cls-40" x="48.84" y="33.77" width="9.33" height="6.95" transform="translate(13.63 80.15) rotate(-87.72)"/></g><g class="cls-13"><path class="cls-14" d="M51.8,35h3.59a.34.34,0,0,0,.29-.17.32.32,0,0,0,0-.34.08.08,0,0,0-.12,0,.08.08,0,0,0,0,.12.14.14,0,0,1,0,.15.12.12,0,0,1-.12.07H51.8a.14.14,0,0,1-.14-.14v-.25a.15.15,0,0,1,.14-.15h3.62a.09.09,0,1,0,0-.18H51.8a.33.33,0,0,0-.33.33v.25a.33.33,0,0,0,.33.33" transform="translate(-0.53 -9.07)"/><path class="cls-14" d="M52.12,36.54h3.59a.34.34,0,0,0,.29-.17A.32.32,0,0,0,56,36a.08.08,0,0,0-.12,0,.08.08,0,0,0,0,.12.14.14,0,0,1,0,.15.12.12,0,0,1-.12.07H52.12a.14.14,0,0,1-.14-.14V36a.15.15,0,0,1,.14-.15h3.62a.09.09,0,0,0,0-.18H52.12a.33.33,0,0,0-.33.33v.25a.33.33,0,0,0,.33.33" transform="translate(-0.53 -9.07)"/><path class="cls-14" d="M47.7,32.68a.11.11,0,0,0,.09-.07.1.1,0,0,0-.06-.11l-17-5.4a.08.08,0,0,0-.11.06.09.09,0,0,0,.06.12l17,5.39h0" transform="translate(-0.53 -9.07)"/><path class="cls-14" d="M50,33.62a.11.11,0,0,0,.09-.06.1.1,0,0,0,0-.12l-.88-.36a.09.09,0,0,0-.12.05.1.1,0,0,0,0,.12l.88.36h0" transform="translate(-0.53 -9.07)"/><path class="cls-14" d="M51.8,38.4h3.59a.32.32,0,0,0,.27-.51.08.08,0,0,0-.12,0,.08.08,0,0,0,0,.12.14.14,0,0,1,0,.15.13.13,0,0,1-.12.08H51.8a.15.15,0,0,1-.14-.15v-.25a.15.15,0,0,1,.14-.15h3.62a.09.09,0,0,0,0-.18H51.8a.33.33,0,0,0-.33.33v.25a.33.33,0,0,0,.33.33" transform="translate(-0.53 -9.07)"/><path class="cls-14" d="M51.46,40.47h3.59a.33.33,0,0,0,.28-.51.09.09,0,1,0-.16.1.16.16,0,0,1,0,.15.16.16,0,0,1-.13.07H51.46a.14.14,0,0,1-.14-.14v-.26a.14.14,0,0,1,.14-.14h3.62a.09.09,0,0,0,0-.18H51.46a.32.32,0,0,0-.32.32v.26a.32.32,0,0,0,.32.33" transform="translate(-0.53 -9.07)"/><path class="cls-14" d="M48.26,51.7a2.92,2.92,0,0,0,.5-.05,2.32,2.32,0,0,0,1.63-1.32L53.25,44a.09.09,0,0,0,0-.13.09.09,0,0,0-.12.05l-2.87,6.37a2.13,2.13,0,0,1-3.34.75l-.08-.07a.09.09,0,0,0-.13,0,.09.09,0,0,0,0,.13l.08.08a2.25,2.25,0,0,0,1.5.56" transform="translate(-0.53 -9.07)"/><path class="cls-14" d="M53.59,43.07a.1.1,0,0,0,.09-.06L54,42.3a.09.09,0,1,0-.17-.07l-.32.71a.09.09,0,0,0,.05.12h0" transform="translate(-0.53 -9.07)"/><path class="cls-14" d="M26.07,35.81a.1.1,0,0,0,.1-.08,2.63,2.63,0,0,1,.92-2,3.22,3.22,0,0,1,2.33-.47.09.09,0,0,0,.1-.08.08.08,0,0,0-.07-.1,3.35,3.35,0,0,0-2.47.51,2.76,2.76,0,0,0-1,2.12.1.1,0,0,0,.09.1h0" transform="translate(-0.53 -9.07)"/></g><g class="cls-41"><rect class="cls-42" x="47.74" y="40.86" width="6.23" height="9.76" transform="translate(-6.03 75.43) rotate(-76.48)"/></g></svg>