<svg id="Capa_3" data-name="Capa 3" xmlns="http://www.w3.org/2000/svg" viewBox="0 0 96.1 28.33"><defs><style>.cls-1{fill:#f8b122;}.cls-2{fill:#003e4d;}</style></defs><title>logo-landing</title><polygon class="cls-1" points="39.12 19.57 30.36 19.57 30.36 28.33 25.99 23.95 25.99 15.2 34.74 15.2 39.12 19.57"/><polygon class="cls-1" points="0 19.57 8.75 19.57 8.75 28.33 13.13 23.95 13.13 15.2 4.38 15.2 0 19.57"/><polygon class="cls-1" points="33.38 13.82 27.62 13.82 19.56 5.76 18.87 6.45 11.5 13.82 5.74 13.82 7.93 11.63 18.87 0.69 19.56 0 20.25 0.69 20.25 0.69 31.19 11.63 33.38 13.82"/><path class="cls-2" d="M66.57,50.52V58.3h-3.8V51.07a2.09,2.09,0,0,0-2.2-2.3c-1.4,0-2.36.81-2.36,2.61V58.3h-3.8V45.62h3.8v1.2a4.32,4.32,0,0,1,3.62-1.55c2.56,0,4.74,1.82,4.74,5.25" transform="translate(-0.9 -34.64)"/><path class="cls-2" d="M73.49,48.93V53.2c0,1,.94,1.14,2.61,1v3.28c-5,.49-6.41-.94-6.41-4.32V48.93h-2V45.46h2v-2.3l3.8-1.08v3.38H76.1v3.47Z" transform="translate(-0.9 -34.64)"/><rect class="cls-2" x="77.19" y="10.99" width="3.8" height="12.67"/><path class="cls-2" d="M97,45.62V58.3H93.2V57.11a4.78,4.78,0,0,1-3.78,1.54c-3.32,0-6.06-2.91-6.06-6.69s2.74-6.69,6.06-6.69a4.75,4.75,0,0,1,3.78,1.55v-1.2ZM93.2,52a3,3,0,1,0-3,3.09,2.9,2.9,0,0,0,3-3.09" transform="translate(-0.9 -34.64)"/><polygon class="cls-2" points="47.55 7.04 47.55 23.66 51.61 23.66 51.61 5.82 47.55 7.04"/><rect class="cls-2" x="77.19" y="5.82" width="3.8" height="3.8"/></svg>