<svg id="Capa_3" data-name="Capa 3" xmlns="http://www.w3.org/2000/svg" viewBox="0 0 92.52 35.42"><defs><style>.cls-1{fill:#fbfdfd;}</style></defs><title>text-intia-white</title><path class="cls-1" d="M39,50.14V65.29H31.77V51.23c0-3.06-1.88-4.49-4.2-4.49-2.66,0-4.49,1.58-4.49,5.08V65.29H15.83V40.62h7.25v2.32c1.3-1.83,3.71-3,6.9-3,4.88,0,9,3.55,9,10.21" transform="translate(-4.48 -30.56)"/><path class="cls-1" d="M52.2,47.72v8.74c0,2.12,1.79,2.32,5,2.12v6.71C47.71,66.28,45,63.37,45,56.46V47.72H41.09v-7.1H45V35.93l7.25-2.22v6.91h5v7.1Z" transform="translate(-4.48 -30.56)"/><rect class="cls-1" x="56.47" y="10.06" width="7.24" height="24.67"/><path class="cls-1" d="M97,40.62V65.29H89.76V63a9,9,0,0,1-7.2,3C76.23,66,71,60.31,71,53s5.22-13,11.55-13a9,9,0,0,1,7.2,3V40.62ZM89.76,53c0-3.7-2.42-6-5.75-6s-5.75,2.32-5.75,6,2.41,6,5.75,6,5.75-2.32,5.75-6" transform="translate(-4.48 -30.56)"/><polygon class="cls-1" points="0 2.37 0 34.73 7.73 34.73 7.73 0 0 2.37"/><rect class="cls-1" x="56.47" width="7.24" height="7.4"/></svg>