<svg id="Capa_3" data-name="Capa 3" xmlns="http://www.w3.org/2000/svg" viewBox="0 0 92.47 34.65"><defs><style>.cls-1{fill:#003e4d;}</style></defs><title>text-intia</title><path class="cls-1" d="M39,50.15V65H31.8V51.22c0-3-1.88-4.4-4.2-4.4-2.65,0-4.49,1.55-4.49,5V65H15.87V40.84h7.24v2.27c1.31-1.79,3.72-3,6.91-3,4.87,0,9,3.48,9,10" transform="translate(-4.53 -31)"/><path class="cls-1" d="M52.22,47.14v8.13c0,2,1.79,2.16,5,2V63.5C47.73,64.42,45,61.71,45,55.27V47.14H41.12V40.52H45V36.15l7.24-2.07v6.44h5v6.62Z" transform="translate(-4.53 -31)"/><rect class="cls-1" x="56.45" y="9.84" width="7.24" height="24.14"/><path class="cls-1" d="M97,40.84V65H89.76V62.71a9.07,9.07,0,0,1-7.19,2.94C76.24,65.65,71,60.1,71,52.91s5.21-12.75,11.54-12.75a9,9,0,0,1,7.19,3V40.84ZM89.76,52.91a5.75,5.75,0,1,0-11.49,0,5.75,5.75,0,1,0,11.49,0" transform="translate(-4.53 -31)"/><polygon class="cls-1" points="0 2.32 0 33.98 7.72 33.98 7.72 0 0 2.32"/><rect class="cls-1" x="56.45" width="7.24" height="7.24"/></svg>